<?xml version="1.0" standalone="no"?>
<!DOCTYPE svg PUBLIC "-//W3C//DTD SVG 1.1//EN" "http://www.w3.org/Graphics/SVG/1.1/DTD/svg11.dtd" >
<svg xmlns="http://www.w3.org/2000/svg">
<metadata></metadata>
<defs>
<font id="designosaurregular" horiz-adv-x="1097" >
<font-face units-per-em="2048" ascent="1536" descent="-512" />
<missing-glyph horiz-adv-x="614" />
<glyph horiz-adv-x="2048" />
<glyph horiz-adv-x="2048" />
<glyph unicode="&#xd;" horiz-adv-x="2048" />
<glyph unicode=" "  horiz-adv-x="614" />
<glyph unicode="&#x09;" horiz-adv-x="614" />
<glyph unicode="&#xa0;" horiz-adv-x="614" />
<glyph unicode="!" horiz-adv-x="462" d="M102 41q0 -22 9.5 -31.5t31.5 -9.5h176q22 0 31.5 9.5t9.5 31.5v164q0 22 -9.5 31.5t-31.5 9.5h-176q-22 0 -31.5 -9.5t-9.5 -31.5v-164zM102 1434q-3 41 41 41h176q44 0 41 -41l-41 -942q-2 -22 -10.5 -31.5t-29.5 -9.5h-95q-21 0 -30 9.5t-11 31.5z" />
<glyph unicode="&#x22;" horiz-adv-x="712" d="M84 1434q-3 41 41 41h135q44 0 41 -41l-20 -328q-2 -22 -11 -31.5t-30 -9.5h-95q-21 0 -30 9.5t-11 31.5zM412 1434q-3 41 41 41h135q44 0 41 -41l-21 -328q-2 -22 -11 -31.5t-30 -9.5h-94q-21 0 -30 9.5t-11 31.5z" />
<glyph unicode="#" horiz-adv-x="1165" d="M82 510v102q0 22 9.5 31.5t31.5 9.5h137l49 185h-106q-22 0 -31.5 9.5t-9.5 31.5v102q0 22 9.5 31.5t31.5 9.5h155l111 412q8 40 49 28l98 -26q41 -9 29 -50l-98 -364h221l111 412q8 40 49 28l98 -26q41 -9 29 -50l-99 -364h86q22 0 31.5 -9.5t9.5 -31.5v-102 q0 -22 -9.5 -31.5t-31.5 -9.5h-135l-49 -185h105q22 0 31.5 -9.5t9.5 -31.5v-102q0 -22 -9.5 -31.5t-31.5 -9.5h-154l-115 -428q-8 -41 -49 -29l-98 27q-41 8 -29 49l103 381h-222l-114 -428q-8 -41 -49 -29l-99 27q-40 8 -28 49l102 381h-88q-22 0 -31.5 9.5t-9.5 31.5z M449 653h221l49 185h-221z" />
<glyph unicode="$" horiz-adv-x="1136" d="M83.5 177.5q-0.5 10.5 8.5 33.5l33 86q7 18 53 4q59 -16 162 -32.5t188 -16.5q128 0 208.5 42t80.5 109q0 55 -54.5 100t-135.5 75l-199 73q-336 125 -336 377q0 151 106.5 251.5t276.5 127.5v149q0 22 9.5 31.5t31.5 9.5h102q22 0 31.5 -9.5t9.5 -31.5v-143 q110 -10 216 -41t137 -55q10 -7 10.5 -17.5t-8.5 -35.5l-33 -86q-7 -18 -53 -4q-186 49 -330 49q-75 0 -130 -16t-83.5 -42t-41.5 -53.5t-13 -56.5q0 -46 38.5 -85t137.5 -73l196 -68q176 -63 264.5 -171t88.5 -234q0 -142 -107 -235.5t-289 -120.5v-150q0 -22 -9.5 -31.5 t-31.5 -9.5h-102q-22 0 -31.5 9.5t-9.5 31.5v141q-115 7 -230.5 39t-150.5 60q-10 9 -10.5 19.5z" />
<glyph unicode="%" horiz-adv-x="1449" d="M102 1110q0 185 77.5 283t201.5 98t202.5 -98t78.5 -283t-78.5 -283t-202.5 -98q-123 0 -201 98t-78 283zM193 137l917 1307q21 33 57 10l84 -59q33 -23 11 -58l-918 -1306q-22 -34 -57 -11l-84 60q-32 22 -10 57zM281 1110q0 -104 27.5 -151.5t72.5 -47.5t73.5 48 t28.5 151q0 102 -28.5 149.5t-73.5 47.5t-72.5 -47.5t-27.5 -149.5zM788 358q0 185 77.5 283t201.5 98t202.5 -98t78.5 -283t-78.5 -283t-202.5 -98q-123 0 -201 98t-78 283zM967 358q0 -104 27.5 -151t72.5 -47t73.5 47.5t28.5 150.5q0 102 -28.5 149.5t-73.5 47.5 t-72.5 -47.5t-27.5 -149.5z" />
<glyph unicode="&#x26;" horiz-adv-x="1460" d="M82 344q0 92 31.5 170t92.5 141.5t126.5 110.5t156.5 98l-51 60q-94 132 -94 278q0 132 102 211.5t265 79.5q178 0 287.5 -77t109.5 -202q0 -217 -287 -403l183 -281l198 183q30 30 55 -6l97 -125q23 -34 -6 -60l-211 -182l215 -307q26 -33 -17 -33h-229q-42 0 -64 35 l-96 139q-121 -102 -219.5 -146t-210.5 -44q-199 0 -316.5 102.5t-117.5 257.5zM338 352q0 -67 50.5 -115.5t127.5 -48.5q109 0 303 172l-205 322q-141 -83 -208.5 -159t-67.5 -171zM600 1206q0 -46 23.5 -97t72.5 -122q76 57 116 110.5t40 114.5q0 44 -38 71.5t-103 27.5 q-46 0 -78.5 -26.5t-32.5 -78.5z" />
<glyph unicode="'" horiz-adv-x="385" d="M84 1434q-3 41 41 41h135q44 0 41 -41l-20 -328q-2 -22 -11 -31.5t-30 -9.5h-95q-21 0 -30 9.5t-11 31.5z" />
<glyph unicode="(" horiz-adv-x="761" d="M82 739q0 184 26 336t73 260t112.5 182.5t143.5 110t167 35.5h55q22 0 31.5 -9.5t9.5 -31.5v-115q0 -22 -9.5 -31.5t-31.5 -9.5q-77 0 -131.5 -34t-95.5 -115t-60.5 -224.5t-19.5 -355.5q0 -210 19.5 -352.5t60.5 -223.5t95.5 -115t131.5 -34q22 0 31.5 -9.5t9.5 -31.5 v-114q0 -22 -9.5 -31.5t-31.5 -9.5h-55q-89 0 -167 35.5t-143.5 110t-112.5 182.5t-73 259.5t-26 335.5z" />
<glyph unicode=")" horiz-adv-x="761" d="M61 -29q0 22 9.5 31.5t31.5 9.5q61 0 107.5 20.5t85.5 71t63.5 132.5t38 207t13.5 294q0 170 -13.5 296t-38 208.5t-63.5 133t-85 71t-108 20.5q-22 0 -31.5 9.5t-9.5 31.5v115q0 22 9.5 31.5t31.5 9.5h56q89 0 167 -35.5t143.5 -110t112.5 -182.5t73 -260t26 -336 t-26 -335.5t-73 -259.5t-112.5 -182.5t-143.5 -110t-167 -35.5h-56q-22 0 -31.5 9.5t-9.5 31.5v114z" />
<glyph unicode="*" horiz-adv-x="876" d="M106 1288l15 49q12 40 51 25l207 -78l-6 232q0 22 8.5 31t30.5 9h53q22 0 30.5 -9t8.5 -31l-6 -232l207 78q39 15 51 -25l14 -49q12 -39 -29 -51l-211 -63l146 -181q25 -32 -10 -55l-43 -27q-35 -20 -58 13l-127 184l-127 -184q-22 -32 -57 -13l-43 27q-35 23 -10 55 l145 181l-211 63q-41 12 -29 51z" />
<glyph unicode="+" horiz-adv-x="921" d="M82 694v103q0 22 9.5 31.5t31.5 9.5h246v245q0 22 9.5 31.5t31.5 9.5h102q22 0 31.5 -9.5t9.5 -31.5v-245h246q22 0 31.5 -9.5t9.5 -31.5v-103q0 -22 -9.5 -31.5t-31.5 -9.5h-246v-245q0 -22 -9.5 -31.5t-31.5 -9.5h-102q-22 0 -31.5 9.5t-9.5 31.5v245h-246 q-22 0 -31.5 9.5t-9.5 31.5z" />
<glyph unicode="," horiz-adv-x="491" d="M102 41v205q0 22 9.5 31.5t31.5 9.5h205q22 0 31.5 -9.5t9.5 -31.5v-236q0 -93 -33 -181t-67 -126q-20 -24 -53 -2l-66 43q-18 12 -4 53q2 7 13 35.5t18 48.5t13.5 54t6.5 65h-74q-22 0 -31.5 9.5t-9.5 31.5z" />
<glyph unicode="-" horiz-adv-x="757" d="M102 694v103q0 22 9.5 31.5t31.5 9.5h471q22 0 31.5 -9.5t9.5 -31.5v-103q0 -22 -9.5 -31.5t-31.5 -9.5h-471q-22 0 -31.5 9.5t-9.5 31.5z" />
<glyph unicode="." horiz-adv-x="491" d="M102 41v205q0 22 9.5 31.5t31.5 9.5h205q22 0 31.5 -9.5t9.5 -31.5v-205q0 -22 -9.5 -31.5t-31.5 -9.5h-205q-22 0 -31.5 9.5t-9.5 31.5z" />
<glyph unicode="/" horiz-adv-x="897" d="M27 53l675 1446q17 38 56 21l92 -43q37 -17 20 -56l-675 -1446q-17 -37 -56 -20l-92 43q-37 16 -20 55z" />
<glyph unicode="0" horiz-adv-x="1282" d="M82 737q0 187 43 334t119 239.5t176.5 140.5t220.5 48t220.5 -48t176.5 -140.5t119 -239.5t43 -334t-43 -334t-119.5 -239.5t-177 -140.5t-219.5 -48t-219.5 48t-177 140.5t-119.5 239.5t-43 334zM352 737q0 -151 22.5 -263t62.5 -177t91 -96t113 -31t113 31t91 96 t62.5 177t22.5 263t-22.5 263.5t-62.5 177.5t-91 96t-113 31t-113 -31t-91 -96t-62.5 -177.5t-22.5 -263.5z" />
<glyph unicode="1" horiz-adv-x="671" d="M20 1081v115q0 43 37 59l475 232q20 9 28.5 4t8.5 -27v-1423q0 -22 -9.5 -31.5t-31.5 -9.5h-174q-22 0 -31.5 9.5t-9.5 31.5v1133l-256 -117q-20 -9 -28.5 -3.5t-8.5 27.5z" />
<glyph unicode="2" horiz-adv-x="1040" d="M83.5 1380.5q0.5 9.5 10.5 18.5q37 30 168 65t250 35q182 0 302 -95.5t126 -279.5q6 -176 -109 -319l-493 -621h580q22 0 31 -9.5t9 -31.5v-102q0 -22 -9 -31.5t-31 -9.5h-781q-22 0 -31.5 9.5t-9.5 31.5v57q0 46 21 78l434 664l11 14q11 15 20 28.5t23 36t25 45t21.5 49 t16.5 55t6 54.5q0 77 -48.5 130t-142.5 53q-93 0 -305 -50q-26 -6 -38 -5.5t-15 10.5l-33 86q-9 25 -8.5 34.5z" />
<glyph unicode="3" horiz-adv-x="1089" d="M83.5 95.5q-0.5 10.5 8.5 33.5l33 86q7 18 53 4q57 -15 161.5 -32t182.5 -17q88 0 153 75t66 206q1 136 -69 217.5t-183 79.5h-51q-22 0 -31.5 9t-9.5 31v43q0 40 23 76l215 383h-477q-22 0 -31.5 9.5t-9.5 31.5v103q0 22 9.5 31.5t31.5 9.5h739q22 0 31.5 -9.5 t9.5 -31.5v-58q0 -48 -20 -78l-283 -389q169 -27 271 -145.5t102 -298.5q0 -104 -39 -195.5t-104.5 -156t-154.5 -101.5t-186 -37q-120 0 -254.5 34.5t-175.5 66.5q-10 9 -10.5 19.5z" />
<glyph unicode="4" horiz-adv-x="1183" d="M82 393v21q0 41 22 73l629 955q23 33 64 33h135q22 0 31.5 -9.5t9.5 -31.5v-899h129q22 0 31.5 -9.5t9.5 -31.5v-101q0 -22 -9.5 -31.5t-31.5 -9.5h-129v-311q0 -22 -9.5 -31.5t-31.5 -9.5h-176q-22 0 -31.5 9.5t-9.5 31.5v311h-592q-22 0 -31.5 9.5t-9.5 31.5zM379 535 h336v536h-4z" />
<glyph unicode="5" horiz-adv-x="1077" d="M83.5 95.5q-0.5 10.5 8.5 33.5l33 86q7 18 53 4q57 -15 161.5 -32t182.5 -17q85 0 145.5 74t61.5 219q2 119 -54.5 202t-144.5 83q-98 0 -251 -33q-38 -8 -70 24l-12 11q-30 24 -27 69l33 615q2 22 11.5 31.5t31.5 9.5h604q22 0 31.5 -9.5t9.5 -31.5v-103 q0 -22 -9.5 -31.5t-31.5 -9.5h-473l-19 -368q98 20 174 20q81 0 161.5 -30.5t148.5 -87.5t110.5 -150t42.5 -207q0 -210 -134 -351t-337 -141q-120 0 -254.5 34.5t-175.5 66.5q-10 9 -10.5 19.5z" />
<glyph unicode="6" horiz-adv-x="1126" d="M82 729q0 192 38.5 340.5t108.5 241.5t163 140.5t206 47.5q77 0 166.5 -22t147 -50.5t57.5 -48.5q0 -13 -8 -32l-33 -86q-6 -11 -21 -11l-65 19q-144 37 -234 37q-69 0 -122.5 -28t-96 -90.5t-65 -174t-23.5 -267.5q36 136 112 190t189 54q119 0 206.5 -38.5t138 -108.5 t74 -157t23.5 -193q0 -88 -16 -163.5t-52.5 -141.5t-91 -112.5t-135.5 -73t-182 -26.5q-230 0 -357.5 191.5t-127.5 562.5zM330 430q1 -64 21 -115.5t52 -82t69.5 -46.5t76.5 -16q250 0 250 328q0 66 -10 116.5t-35 93t-72 65t-115 22.5q-57 0 -99.5 -19.5t-68.5 -52.5 t-42 -81t-22 -99t-5 -113z" />
<glyph unicode="7" horiz-adv-x="987" d="M61 1331v103q0 22 9.5 31.5t31.5 9.5h783q22 0 31.5 -9.5t9.5 -31.5v-74q0 -27 -21 -78l-413 -1243q-12 -39 -54 -39h-190q-41 0 -29 39l430 1251h-547q-22 0 -31.5 9.5t-9.5 31.5z" />
<glyph unicode="8" horiz-adv-x="1175" d="M82 424q0 134 76 233.5t221 153.5q-236 95 -236 307q0 176 110.5 278.5t334.5 102.5t334 -101.5t110 -277.5q0 -208 -235 -309q144 -55 220.5 -153.5t76.5 -235.5q0 -215 -133 -331t-373 -116q-246 0 -376 116t-130 333zM338 430q0 -119 72.5 -190.5t177.5 -71.5 t177.5 70.5t72.5 189.5q0 125 -72.5 201t-177.5 76q-104 0 -177 -76t-73 -199zM399 1120q0 -86 55 -148.5t134 -62.5q76 0 132 61t56 150q0 83 -55.5 135t-134.5 52q-81 0 -134 -54.5t-53 -132.5z" />
<glyph unicode="9" horiz-adv-x="1126" d="M82 983q0 111 26.5 201.5t81.5 162.5t149 112t220 40q230 0 357.5 -191.5t127.5 -562.5q0 -192 -38.5 -340.5t-108.5 -241.5t-163 -140.5t-206 -47.5q-77 0 -166.5 22t-146.5 50.5t-57 48.5q0 14 8 33l33 86q5 10 20 10l67 -19q143 -36 232 -36q69 0 122.5 28t96 90.5 t65 173.5t23.5 267q-36 -137 -111.5 -190.5t-189.5 -53.5q-119 0 -206.5 39t-138 109t-74 157t-23.5 193zM328 977q0 -66 10 -116t34.5 -93t71.5 -65.5t115 -22.5q64 0 108.5 28.5t67.5 81.5t32.5 114t8.5 140q-1 124 -61.5 192.5t-136.5 68.5q-250 0 -250 -328z" />
<glyph unicode=":" horiz-adv-x="491" d="M102 41v205q0 22 9.5 31.5t31.5 9.5h205q22 0 31.5 -9.5t9.5 -31.5v-205q0 -22 -9.5 -31.5t-31.5 -9.5h-205q-22 0 -31.5 9.5t-9.5 31.5zM102 705v204q0 22 9.5 31.5t31.5 9.5h205q22 0 31.5 -9.5t9.5 -31.5v-204q0 -22 -9.5 -31.5t-31.5 -9.5h-205q-22 0 -31.5 9.5 t-9.5 31.5z" />
<glyph unicode=";" horiz-adv-x="491" d="M102 41v205q0 22 9.5 31.5t31.5 9.5h205q22 0 31.5 -9.5t9.5 -31.5v-236q0 -93 -33 -181t-67 -126q-20 -24 -53 -2l-66 43q-18 12 -4 53q2 7 13 35.5t18 48.5t13.5 54t6.5 65h-74q-22 0 -31.5 9.5t-9.5 31.5zM102 705v204q0 22 9.5 31.5t31.5 9.5h205q22 0 31.5 -9.5 t9.5 -31.5v-204q0 -22 -9.5 -31.5t-31.5 -9.5h-205q-22 0 -31.5 9.5t-9.5 31.5z" />
<glyph unicode="&#x3c;" horiz-adv-x="1241" d="M102 715v57q0 41 37 57l963 433q20 9 28.5 3t8.5 -28v-111q0 -41 -37 -57l-725 -326l725 -325q37 -16 37 -58v-110q0 -22 -8.5 -28t-28.5 3l-963 432q-37 16 -37 58z" />
<glyph unicode="=" horiz-adv-x="995" d="M82 500v90q0 22 9.5 31.5t31.5 9.5h749q22 0 31.5 -9.5t9.5 -31.5v-90q0 -22 -9.5 -31.5t-31.5 -9.5h-749q-22 0 -31.5 9.5t-9.5 31.5zM82 897v90q0 22 9.5 31.5t31.5 9.5h749q22 0 31.5 -9.5t9.5 -31.5v-90q0 -22 -9.5 -31.5t-31.5 -9.5h-749q-22 0 -31.5 9.5t-9.5 31.5 z" />
<glyph unicode="&#x3e;" horiz-adv-x="1241" d="M102 250v110q0 42 37 58l725 325l-725 326q-37 16 -37 57v111q0 22 8.5 28t28.5 -3l963 -433q37 -16 37 -57v-57q0 -42 -37 -58l-963 -432q-20 -9 -28.5 -3t-8.5 28z" />
<glyph unicode="?" horiz-adv-x="1040" d="M83.5 1380.5q0.5 9.5 10.5 18.5q37 30 168 65t250 35q84 0 156 -20.5t132.5 -63.5t97.5 -117.5t42 -173.5q9 -183 -109 -319q-2 -3 -36.5 -35.5t-67 -66.5t-60.5 -86t-28 -97v-28q0 -22 -9.5 -31.5t-31.5 -9.5h-176q-22 0 -31.5 9.5t-9.5 31.5v28q0 84 37 147t133 173 q17 19 40.5 53t53 102.5t29.5 126.5q0 78 -48.5 130.5t-146.5 52.5q-76 0 -301 -50q-28 -6 -39 -5.5t-14 10.5l-33 86q-9 25 -8.5 34.5zM381 41q0 -22 9.5 -31.5t31.5 -9.5h176q22 0 31.5 9.5t9.5 31.5v164q0 22 -9.5 31.5t-31.5 9.5h-176q-22 0 -31.5 -9.5t-9.5 -31.5v-164 z" />
<glyph unicode="@" horiz-adv-x="1671" d="M82 547q0 245 99 414t279.5 251t432.5 82q170 0 296 -39t217 -124t137 -225.5t46 -336.5q0 -112 -16 -190.5t-55.5 -139.5t-111.5 -90.5t-179 -29.5q-40 0 -71.5 4t-51 11t-33.5 15t-21 18t-10.5 16.5t-5.5 14.5t-2 9l-26 63h-5q-41 -85 -86.5 -119t-126.5 -34 q-68 0 -126 22t-106.5 69t-76.5 130.5t-28 196.5q0 112 28 195t77.5 129t107.5 67.5t127 21.5q76 0 122 -32.5t88 -120.5h5l20 86q5 23 12.5 32t28.5 9h102q22 0 31.5 -9.5t9.5 -31.5v-574q0 -24 37 -24q36 0 60 19t36 57.5t16.5 82t4.5 107.5q0 225 -50.5 355.5t-149 183.5 t-263.5 53q-289 0 -441.5 -148.5t-152.5 -435.5q0 -154 44.5 -269t127 -185t192.5 -104t249 -34q160 0 436 49q34 6 42 5.5t11 -9.5l33 -76q12 -28 11 -41t-13 -22q-43 -33 -210.5 -66.5t-328.5 -33.5q-177 0 -324 47.5t-258.5 140.5t-174 243.5t-62.5 344.5zM696 535 q0 -140 36 -193t110 -53q83 0 123.5 58.5t40.5 189.5q0 129 -40 184t-124 55q-49 0 -79.5 -19t-48.5 -73t-18 -149z" />
<glyph unicode="A" horiz-adv-x="1376" d="M27 37l559 1401q15 37 57 37h90q43 0 58 -37l559 -1401q5 -11 5 -19q0 -18 -30 -18h-195q-41 0 -55 39l-127 323h-581l-127 -323q-14 -39 -56 -39h-133q-29 0 -29 18q0 8 5 19zM434 535h447l-183 530l-41 154l-39 -154z" />
<glyph unicode="B" horiz-adv-x="1155" d="M102 41v1393q0 22 9.5 31.5t31.5 9.5h303q242 0 380.5 -101.5t138.5 -288.5q0 -215 -195 -307v-4q146 -23 224.5 -118t78.5 -236q0 -179 -135 -299.5t-334 -120.5h-461q-22 0 -31.5 9.5t-9.5 31.5zM360 172h177q80 0 137 20.5t86.5 57t42 77.5t12.5 91q0 48 -14 90 t-44.5 79t-86.5 58t-133 21h-177v-494zM360 838h123q95 0 159.5 65.5t64.5 177.5q0 104 -65.5 163t-197.5 59h-84v-465z" />
<glyph unicode="C" horiz-adv-x="1308" d="M82 737q0 187 55 334t153 239.5t228.5 140.5t286.5 48q122 0 242.5 -33.5t166.5 -66.5q12 -9 12 -21q0 -11 -9 -32l-33 -86q-12 -17 -54 -5q-197 50 -325 50q-97 0 -176 -31t-142.5 -96t-99 -177.5t-35.5 -263.5t35.5 -263.5t99.5 -177t143 -95.5t175 -31q132 0 325 49 q41 14 54 -4l33 -76q9 -27 9 -39q0 -13 -12 -24q-46 -33 -167 -67t-242 -34q-155 0 -285.5 48t-228.5 140.5t-153.5 239.5t-55.5 334z" />
<glyph unicode="D" horiz-adv-x="1320" d="M102 41v1393q0 22 9.5 31.5t31.5 9.5h471q124 0 238.5 -55t199.5 -150.5t136 -233t51 -293.5q0 -209 -90.5 -379t-244.5 -266t-339 -98h-422q-22 0 -31.5 9.5t-9.5 31.5zM360 184h203q116 0 209.5 74t145.5 204q51 128 51 286v6q-1 116 -34.5 217t-90.5 170.5t-134 109 t-163 39.5h-187v-1106z" />
<glyph unicode="E" horiz-adv-x="989" d="M102 41v1393q0 22 9.5 31.5t31.5 9.5h723q22 0 31.5 -9.5t9.5 -31.5v-103q0 -22 -9.5 -31.5t-31.5 -9.5h-506v-452h404q22 0 31.5 -9.5t9.5 -31.5v-103q0 -22 -9.5 -31.5t-31.5 -9.5h-404v-469h506q22 0 31.5 -9.5t9.5 -31.5v-102q0 -22 -9.5 -31.5t-31.5 -9.5h-723 q-22 0 -31.5 9.5t-9.5 31.5z" />
<glyph unicode="F" horiz-adv-x="989" d="M102 41v1393q0 22 9.5 31.5t31.5 9.5h723q22 0 31.5 -9.5t9.5 -31.5v-103q0 -22 -9.5 -31.5t-31.5 -9.5h-506v-452h404q22 0 31.5 -9.5t9.5 -31.5v-103q0 -22 -9.5 -31.5t-31.5 -9.5h-404v-612q0 -22 -9.5 -31.5t-31.5 -9.5h-176q-22 0 -31.5 9.5t-9.5 31.5z" />
<glyph unicode="G" horiz-adv-x="1329" d="M82 737q0 187 55 334t153 239.5t228.5 140.5t286.5 48q122 0 242.5 -33.5t166.5 -66.5q12 -9 12 -21q0 -10 -9 -32l-33 -76q-12 -17 -54 -4q-193 49 -325 49q-97 0 -176 -31.5t-142.5 -97.5t-99 -180.5t-35.5 -268.5q0 -124 23.5 -222.5t64.5 -164t99.5 -109t124 -62.5 t141.5 -19q85 0 162 12v481h-181q-22 0 -31.5 9.5t-9.5 31.5v103q0 22 9.5 31.5t31.5 9.5h398q22 0 31.5 -9.5t9.5 -31.5v-693q2 -17 -11 -28q-46 -33 -167 -67t-242 -34q-155 0 -285.5 48t-228.5 140.5t-153.5 239.5t-55.5 334z" />
<glyph unicode="H" horiz-adv-x="1247" d="M102 41v1393q0 22 9.5 31.5t31.5 9.5h176q22 0 31.5 -9.5t9.5 -31.5v-586h527v586q0 22 9.5 31.5t31.5 9.5h176q22 0 31.5 -9.5t9.5 -31.5v-1393q0 -22 -9.5 -31.5t-31.5 -9.5h-176q-22 0 -31.5 9.5t-9.5 31.5v623h-527v-623q0 -22 -9.5 -31.5t-31.5 -9.5h-176 q-22 0 -31.5 9.5t-9.5 31.5z" />
<glyph unicode="I" horiz-adv-x="462" d="M102 41v1393q0 22 9.5 31.5t31.5 9.5h176q22 0 31.5 -9.5t9.5 -31.5v-1393q0 -22 -9.5 -31.5t-31.5 -9.5h-176q-22 0 -31.5 9.5t-9.5 31.5z" />
<glyph unicode="J" horiz-adv-x="729" d="M20 45v98q0 22 9.5 31.5t31.5 9.5h27q157 0 229 86.5t72 302.5v861q0 22 9.5 31.5t31.5 9.5h176q22 0 31.5 -9.5t9.5 -31.5v-904q-3 -255 -139.5 -392.5t-372.5 -137.5l-78 2q-20 1 -28.5 11t-8.5 32z" />
<glyph unicode="K" horiz-adv-x="1304" d="M102 41v1393q0 22 9.5 31.5t31.5 9.5h176q22 0 31.5 -9.5t9.5 -31.5v-631l508 639q23 33 66 33h211q21 0 24.5 -8t-8.5 -25l-571 -686l588 -723q9 -13 9 -21q-1 -2 -1 -4q-4 -8 -25 -8h-241q-43 0 -66 33l-494 637v-629q0 -22 -9.5 -31.5t-31.5 -9.5h-176 q-22 0 -31.5 9.5t-9.5 31.5z" />
<glyph unicode="L" horiz-adv-x="948" d="M102 41v1393q0 22 9.5 31.5t31.5 9.5h176q22 0 31.5 -9.5t9.5 -31.5v-1250h506q22 0 31.5 -9.5t9.5 -31.5v-102q0 -22 -9.5 -31.5t-31.5 -9.5h-723q-22 0 -31.5 9.5t-9.5 31.5z" />
<glyph unicode="M" horiz-adv-x="1710" d="M102 41v1393q0 22 9.5 31.5t31.5 9.5h187q41 0 61 -35l461 -1118l487 1116q19 37 62 37h166q22 0 31.5 -9.5t9.5 -31.5v-1393q0 -22 -9.5 -31.5t-31.5 -9.5h-176q-22 0 -31.5 9.5t-9.5 31.5v573l20 412h-4l-414 -989q-16 -37 -59 -37h-133q-42 0 -62 35l-395 991h-4 l20 -412v-573q0 -22 -9 -31.5t-31 -9.5h-136q-22 0 -31.5 9.5t-9.5 31.5z" />
<glyph unicode="N" horiz-adv-x="1302" d="M102 41v1393q0 22 9.5 31.5t31.5 9.5h144q46 0 67 -33l625 -1000h4l-20 418v574q0 22 9.5 31.5t31.5 9.5h155q22 0 31.5 -9.5t9.5 -31.5v-1393q0 -22 -9.5 -31.5t-31.5 -9.5h-143q-47 0 -68 33l-624 999h-5l21 -418v-573q0 -22 -9.5 -31.5t-31.5 -9.5h-156 q-22 0 -31.5 9.5t-9.5 31.5z" />
<glyph unicode="O" horiz-adv-x="1609" d="M82 737q0 187 55 334t153 239.5t228.5 140.5t286.5 48t286.5 -48t228.5 -140.5t153 -239.5t55 -334t-55.5 -334t-153.5 -239.5t-228.5 -140.5t-285.5 -48t-285.5 48t-228.5 140.5t-153.5 239.5t-55.5 334zM352 737q0 -151 35.5 -263.5t99.5 -177t143 -95.5t175 -31 q76 0 141.5 18.5t123.5 61.5t99 107.5t64.5 161t23.5 218.5t-23.5 218.5t-64 161.5t-98.5 107.5t-123.5 61.5t-142.5 19q-97 0 -176 -31t-142.5 -96t-99 -177.5t-35.5 -263.5z" />
<glyph unicode="P" horiz-adv-x="1140" d="M102 41v1393q0 22 9.5 31.5t31.5 9.5h389q151 0 272.5 -68.5t188 -186t66.5 -259.5q0 -104 -39.5 -198t-108.5 -163.5t-167.5 -110t-211.5 -40.5h-172v-408q0 -22 -9.5 -31.5t-31.5 -9.5h-176q-22 0 -31.5 9.5t-9.5 31.5zM360 631h132q152 0 230.5 82.5t78.5 247.5 q0 328 -309 331h-132v-661z" />
<glyph unicode="Q" horiz-adv-x="1609" d="M82 737q0 187 55 334t153 239.5t228.5 140.5t286.5 48t286.5 -48t228.5 -140.5t153 -239.5t55 -334q0 -411 -256 -614l209 -307q13 -17 10 -25t-27 -8h-225q-41 0 -61 35l-123 192q-119 -35 -250 -35q-155 0 -285.5 48t-228.5 140.5t-153.5 239.5t-55.5 334zM352 737 q0 -151 35.5 -263.5t99.5 -177t143 -95.5t175 -31q78 0 135 16l-203 306q-13 17 -10 24.5t27 7.5h225q41 0 61 -35l103 -167q114 142 114 415q0 122 -23.5 218.5t-64 161.5t-98.5 107.5t-123.5 61.5t-142.5 19q-97 0 -176 -31t-142.5 -96t-99 -177.5t-35.5 -263.5z" />
<glyph unicode="R" horiz-adv-x="1161" d="M102 41v1393q0 22 9.5 31.5t31.5 9.5h389q151 0 272.5 -68.5t188 -186t66.5 -259.5q0 -150 -78.5 -274t-212.5 -187l315 -467q11 -14 11 -22q0 -11 -27 -11h-225q-42 0 -62 35l-260 414h-160v-408q0 -22 -9.5 -31.5t-31.5 -9.5h-176q-22 0 -31.5 9.5t-9.5 31.5zM360 631 h132q152 0 230.5 82.5t78.5 247.5q0 328 -309 331h-132v-661z" />
<glyph unicode="S" horiz-adv-x="1136" d="M83 97q0 11 9 32l33 86q7 18 53 4q57 -15 161.5 -32t182.5 -17q133 0 214 52.5t81 137.5q0 69 -53.5 125.5t-136.5 89.5l-199 78q-336 132 -336 416q0 130 68 229.5t180.5 150t249.5 50.5q122 0 254 -35.5t168 -64.5q10 -7 10.5 -17.5t-8.5 -35.5l-33 -86q-7 -19 -53 -5 q-189 50 -326 50q-78 0 -134.5 -20t-84.5 -53t-40.5 -67t-12.5 -71q0 -61 39 -108.5t137 -84.5l196 -74q172 -64 262.5 -183t90.5 -261q0 -186 -147 -297t-384 -111q-120 0 -254.5 34.5t-175.5 66.5q-11 10 -11 21z" />
<glyph unicode="T" horiz-adv-x="983" d="M20 1331v103q0 22 9.5 31.5t31.5 9.5h861q22 0 31.5 -9.5t9.5 -31.5v-103q0 -22 -9.5 -31.5t-31.5 -9.5h-301v-1249q0 -22 -9.5 -31.5t-31.5 -9.5h-177q-22 0 -31.5 9.5t-9.5 31.5v1249h-301q-22 0 -31.5 9.5t-9.5 31.5z" />
<glyph unicode="U" horiz-adv-x="1302" d="M102 524v910q0 22 9.5 31.5t31.5 9.5h176q22 0 31.5 -9.5t9.5 -31.5v-852q0 -181 77.5 -301.5t213.5 -120.5q165 0 259 119t94 303v852q0 22 9 31.5t31 9.5h115q22 0 31.5 -9.5t9.5 -31.5v-910q0 -239 -155.5 -394t-397.5 -155q-234 0 -389.5 157t-155.5 392z" />
<glyph unicode="V" horiz-adv-x="1273" d="M27 1438q-5 11 -5 19q0 18 29 18h195q41 0 55 -39l215 -660l100 -366l41 -154l39 154l82 284l256 742q14 39 56 39h133q29 0 29 -18q0 -8 -5 -19l-518 -1401q-15 -37 -57 -37h-90q-43 0 -58 37z" />
<glyph unicode="W" horiz-adv-x="1785" d="M27 1438q-5 11 -5 19q0 18 29 18h195q47 0 55 -39l197 -822l57 -358l57 358l197 822q9 39 51 39h127q42 0 51 -39l183 -822l51 -358l63 358l211 822q14 39 56 39h133q29 0 29 -18q0 -8 -5 -19l-416 -1401q-12 -37 -57 -37h-131q-49 0 -57 37l-209 995l-221 -995 q-8 -37 -58 -37h-131q-46 0 -57 37z" />
<glyph unicode="X" horiz-adv-x="1202" d="M22 14q0 10 13 31l420 709l-398 676q-14 25 -9.5 35t32.5 10h192q56 0 76 -39l260 -469l281 469q22 39 80 39h143q33 0 37 -10t-14 -35l-398 -656l432 -729q12 -18 12 -28q0 -3 -1 -6q-5 -11 -35 -11h-193q-49 0 -75 39l-291 510l-305 -510q-22 -39 -78 -39h-146 q-35 0 -35 14z" />
<glyph unicode="Y" horiz-adv-x="1286" d="M22 1467q5 8 27 8h219q42 0 62 -35l327 -664l353 662q16 37 59 37h168q22 0 27 -9q2 -3 2 -7q0 -8 -6 -21l-498 -899v-498q0 -22 -9.5 -31.5t-31.5 -9.5h-176q-22 0 -31.5 9.5t-9.5 31.5v498l-475 901q-8 13 -8 21q0 4 1 6z" />
<glyph unicode="Z" horiz-adv-x="995" d="M20 41v74q0 37 21 78l621 1097h-588q-22 0 -31.5 9.5t-9.5 31.5v103q0 22 9.5 31.5t31.5 9.5h844q22 0 31 -9.5t9 -31.5v-74q0 -39 -20 -78l-619 -1098h615q22 0 31.5 -9.5t9.5 -31.5v-102q0 -22 -9.5 -31.5t-31.5 -9.5h-873q-22 0 -31.5 9.5t-9.5 31.5z" />
<glyph unicode="[" horiz-adv-x="559" d="M102 -266v2007q0 22 9.5 31.5t31.5 9.5h314q22 0 31.5 -9.5t9.5 -31.5v-103q0 -22 -9.5 -31.5t-31.5 -9.5h-97v-1720h97q22 0 31.5 -9.5t9.5 -31.5v-102q0 -22 -9.5 -31.5t-31.5 -9.5h-314q-22 0 -31.5 9.5t-9.5 31.5z" />
<glyph unicode="\" horiz-adv-x="897" d="M27 1421q-17 39 20 56l92 43q39 17 56 -21l675 -1446q17 -39 -20 -55l-92 -43q-39 -17 -56 20z" />
<glyph unicode="]" horiz-adv-x="559" d="M61 -164q0 22 9.5 31.5t31.5 9.5h97v1720h-97q-22 0 -31.5 9.5t-9.5 31.5v103q0 22 9.5 31.5t31.5 9.5h314q22 0 31.5 -9.5t9.5 -31.5v-2007q0 -22 -9.5 -31.5t-31.5 -9.5h-314q-22 0 -31.5 9.5t-9.5 31.5v102z" />
<glyph unicode="^" horiz-adv-x="1032" d="M27 897l366 582q23 37 58 37h131q34 0 57 -37l367 -582q18 -37 -25 -37h-147q-21 0 -31.5 8.5t-22.5 30.5l-264 473l-264 -473q-12 -22 -22 -30.5t-31 -8.5h-148q-42 0 -24 37z" />
<glyph unicode="_" horiz-adv-x="1372" d="M0 -369q0 22 9.5 31.5t31.5 9.5h1290q22 0 31.5 -9.5t9.5 -31.5v-102q0 -22 -9.5 -31.5t-31.5 -9.5h-1290q-22 0 -31.5 9.5t-9.5 31.5v102z" />
<glyph unicode="`" horiz-adv-x="612" d="M119 1487q-33 29 10 29h186q42 0 64 -35l123 -201q10 -19 5.5 -27t-26.5 -8h-63q-39 0 -72 29z" />
<glyph unicode="a" horiz-adv-x="1052" d="M82 346q0 77 22.5 136t60.5 96t94 60.5t116.5 32.5t134.5 9h211q-3 30 -10.5 58.5t-24 63t-39.5 59.5t-61.5 42t-87.5 17q-67 0 -232 -52q-41 -12 -53 4l-43 66q-19 29 2 53q34 37 136.5 69t217.5 32q103 0 182 -29.5t128 -78.5t80 -120.5t43 -148.5t12 -170v-504 q0 -22 -9.5 -31.5t-31.5 -9.5h-103q-21 0 -28.5 9t-12.5 32l-20 84h-4q-40 -73 -116 -111.5t-179 -38.5q-79 0 -147.5 23t-122 67.5t-84.5 116.5t-31 164zM330 352q0 -26 6 -53t20.5 -54.5t36 -49t55.5 -35t76 -13.5q96 0 148.5 74.5t52.5 227.5v59h-215q-82 0 -131 -41.5 t-49 -114.5z" />
<glyph unicode="b" horiz-adv-x="1189" d="M102 41v1434q0 22 9.5 31.5t31.5 9.5h164q22 0 31.5 -9.5t9.5 -31.5v-535h4q98 150 316 150q74 0 137.5 -17t120 -58.5t96.5 -104.5t63 -160.5t23 -221.5q0 -123 -23 -219.5t-62.5 -158.5t-95.5 -102.5t-118 -57.5t-135 -17q-241 0 -363 154h-4l-20 -86q-5 -23 -12.5 -32 t-28.5 -9h-103q-22 0 -31.5 9.5t-9.5 31.5zM348 528q0 -199 71.5 -291t211.5 -92q59 0 99.5 16.5t71.5 58.5t45.5 118t14.5 190q0 94 -10.5 163t-29 112.5t-48 69t-63 35.5t-78.5 10q-140 0 -212.5 -93.5t-72.5 -296.5z" />
<glyph unicode="c" horiz-adv-x="980" d="M82 535q0 557 496 557q93 0 181 -33.5t126 -67.5q13 -10 13 -24q0 -13 -11 -29l-43 -66q-13 -18 -53 -4q-7 3 -35 14t-49 18t-54.5 13.5t-64.5 6.5q-73 0 -125.5 -31.5t-81 -88t-41 -122.5t-12.5 -146q0 -82 13 -148t41 -121t80 -85.5t124 -30.5q23 0 44.5 2.5t46 9.5 t36.5 11t41.5 15.5t36.5 13.5q40 14 53 -4l43 -66q9 -14 9 -26q0 -14 -11 -27q-33 -38 -121 -69.5t-207 -31.5q-475 0 -475 560z" />
<glyph unicode="d" horiz-adv-x="1189" d="M82 528q0 124 23 221.5t63 160.5t96.5 104.5t120 58.5t137.5 17q218 0 316 -150h4v535q0 22 9.5 31.5t31.5 9.5h164q22 0 31 -9.5t9 -31.5v-1434q0 -22 -9 -31.5t-31 -9.5h-103q-21 0 -28.5 9t-12.5 32l-20 86h-4q-122 -154 -363 -154q-73 0 -135 17t-118 57.5 t-95.5 102.5t-62.5 158.5t-23 219.5zM328 528q0 -114 14.5 -190t45.5 -118t71.5 -58.5t99.5 -16.5q140 0 211.5 92t71.5 291q0 203 -72.5 296.5t-212.5 93.5q-45 0 -78.5 -10t-63 -35.5t-48 -69t-29 -112.5t-10.5 -163z" />
<glyph unicode="e" horiz-adv-x="1056" d="M82 522q0 122 25 222.5t77.5 180t142 123.5t210.5 44q94 0 173 -27.5t138.5 -81t93 -138.5t33.5 -194q0 -118 -47.5 -161.5t-175.5 -43.5h-420q6 -68 22 -120t45 -93.5t77 -63.5t114 -22q37 0 82 8.5t74 17t85 26.5q42 12 54 -4l43 -66q19 -29 -2 -53q-32 -37 -136.5 -69 t-226.5 -32q-110 0 -195 30t-138.5 79.5t-87 121.5t-47 148.5t-13.5 167.5zM332 618h315q49 0 64.5 12.5t15.5 57.5q0 94 -50.5 163t-129.5 69q-193 0 -215 -302z" />
<glyph unicode="f" horiz-adv-x="604" d="M20 944v80q0 22 9.5 31.5t31.5 9.5h107v131q0 320 283 320h75q22 0 31.5 -9.5t9.5 -31.5v-91q0 -22 -9.5 -31.5t-31.5 -9.5h-14q-40 0 -69 -35.5t-29 -105.5v-137h129q22 0 31.5 -9.5t9.5 -31.5v-80q0 -22 -9.5 -31.5t-31.5 -9.5h-129v-862q0 -22 -9.5 -31.5t-31.5 -9.5 h-164q-22 0 -31.5 9.5t-9.5 31.5v862h-107q-22 0 -31.5 9.5t-9.5 31.5z" />
<glyph unicode="g" horiz-adv-x="1189" d="M82 537q0 123 23 219.5t62.5 158.5t95.5 102.5t118 57.5t135 17q241 0 363 -154h4l20 86q5 23 12.5 32t28.5 9h103q22 0 31 -9.5t9 -31.5v-963q0 -241 -135 -385.5t-354 -144.5q-121 0 -255 34t-175 66q-10 9 -10.5 20t8.5 34l33 86q7 18 53 4q57 -15 161.5 -32 t182.5 -17q110 0 178 86.5t68 226.5v86h-4q-98 -150 -316 -150q-74 0 -137.5 17t-120 58.5t-96.5 104.5t-63 160.5t-23 221.5zM328 537q0 -94 10.5 -163t29 -112.5t48 -69t63 -35.5t78.5 -10q140 0 212.5 93.5t72.5 296.5q0 199 -71.5 291t-211.5 92q-59 0 -99.5 -16.5 t-71.5 -58.5t-45.5 -118t-14.5 -190z" />
<glyph unicode="h" horiz-adv-x="1128" d="M102 41v1434q0 22 9.5 31.5t31.5 9.5h164q22 0 31.5 -9.5t9.5 -31.5v-535h4q83 150 275 150q68 0 125 -17t108.5 -58.5t87.5 -104.5t57 -160.5t21 -221.5v-487q0 -22 -9.5 -31.5t-31.5 -9.5h-164q-22 0 -31.5 9.5t-9.5 31.5v487q0 117 -12.5 195t-38 120t-58 58.5 t-79.5 16.5q-121 0 -182.5 -78t-61.5 -250v-549q0 -22 -9.5 -31.5t-31.5 -9.5h-164q-22 0 -31.5 9.5t-9.5 31.5z" />
<glyph unicode="i" horiz-adv-x="450" d="M102 41v983q0 22 9.5 31.5t31.5 9.5h164q22 0 31.5 -9.5t9.5 -31.5v-983q0 -22 -9.5 -31.5t-31.5 -9.5h-164q-22 0 -31.5 9.5t-9.5 31.5zM102 1311v164q0 22 9.5 31.5t31.5 9.5h164q22 0 31.5 -9.5t9.5 -31.5v-164q0 -22 -9.5 -31.5t-31.5 -9.5h-164q-22 0 -31.5 9.5 t-9.5 31.5z" />
<glyph unicode="j" horiz-adv-x="450" d="M-10 -319q0 22 9.5 31t31.5 9h14q23 0 40 41t17 121v1141q0 22 9.5 31.5t31.5 9.5h164q22 0 31.5 -9.5t9.5 -31.5v-1155q0 -320 -282 -320h-35q-22 0 -31.5 9.5t-9.5 31.5v91zM102 1311v164q0 22 9.5 31.5t31.5 9.5h164q22 0 31.5 -9.5t9.5 -31.5v-164q0 -22 -9.5 -31.5 t-31.5 -9.5h-164q-22 0 -31.5 9.5t-9.5 31.5z" />
<glyph unicode="k" horiz-adv-x="997" d="M102 41v1434q0 22 9.5 31.5t31.5 9.5h162q22 0 31.5 -9.5t9.5 -31.5v-877l344 434q23 33 66 33h170q22 0 26 -9t-10 -24l-407 -481l430 -518q11 -11 11 -19q0 -3 -2 -5q-4 -9 -26 -9h-200q-43 0 -66 33l-336 432v-424q0 -22 -9.5 -31.5t-31.5 -9.5h-162q-22 0 -31.5 9.5 t-9.5 31.5z" />
<glyph unicode="l" horiz-adv-x="462" d="M102 319v1156q0 22 9.5 31.5t31.5 9.5h164q22 0 31.5 -9.5t9.5 -31.5v-1141q0 -80 17.5 -121t40.5 -41h14q22 0 31.5 -9.5t9.5 -31.5v-90q0 -22 -9.5 -31.5t-31.5 -9.5h-35q-283 0 -283 319z" />
<glyph unicode="m" horiz-adv-x="1581" d="M102 41v983q0 22 9.5 31.5t31.5 9.5h103q21 0 28.5 -9t12.5 -32l20 -84h4q29 69 95.5 109.5t136.5 40.5q96 0 175 -43.5t128 -124.5q40 77 113 122.5t149 45.5q158 0 264.5 -108t106.5 -294v-647q0 -41 -39 -41h-168q-39 0 -39 41v577q0 84 -13 148.5t-47 108t-86 43.5 q-171 0 -174 -306v-571q0 -41 -39 -41h-167q-39 0 -39 41v577q0 84 -13 148.5t-47 108t-86 43.5q-174 0 -174 -320v-557q0 -22 -9.5 -31.5t-31.5 -9.5h-164q-22 0 -31.5 9.5t-9.5 31.5z" />
<glyph unicode="n" d="M102 41v983q0 22 9.5 31.5t31.5 9.5h103q21 0 28.5 -9t12.5 -32l20 -84h4q35 69 113 109.5t160 40.5q177 0 294 -108t117 -294v-647q0 -41 -39 -41h-168q-38 0 -38 41v577q0 62 -9.5 114t-30.5 95t-58.5 67t-88.5 24q-215 0 -215 -320v-557q0 -22 -9.5 -31.5t-31.5 -9.5 h-164q-22 0 -31.5 9.5t-9.5 31.5z" />
<glyph unicode="o" horiz-adv-x="1155" d="M82 530q0 97 13.5 176.5t48 152.5t89.5 123.5t142.5 80t202.5 29.5t202.5 -29.5t142 -79.5t89 -123.5t48 -152.5t13.5 -175q0 -97 -13.5 -176t-48 -151.5t-89.5 -122t-142 -78.5t-202 -29t-202.5 29t-142.5 78t-89.5 121.5t-48 151t-13.5 175.5zM328 532q0 -66 6 -118 t23 -101t44.5 -81.5t72 -52t104.5 -19.5t104.5 19.5t72 52t44 81.5t22.5 101t6 118q0 65 -6 117.5t-22.5 102t-44 82.5t-72 53t-104.5 20q-74 0 -125 -29t-77.5 -83.5t-37 -117t-10.5 -145.5z" />
<glyph unicode="p" horiz-adv-x="1189" d="M102 -410v1434q0 22 9.5 31.5t31.5 9.5h103q21 0 28.5 -9t12.5 -32l20 -86h4q122 154 363 154q73 0 135 -17t118 -57.5t95.5 -102.5t62.5 -158.5t23 -219.5q0 -124 -23 -221.5t-63 -160.5t-96.5 -104.5t-120 -58.5t-137.5 -17q-218 0 -316 150h-4v-535q0 -22 -9.5 -31.5 t-31.5 -9.5h-164q-22 0 -31.5 9.5t-9.5 31.5zM348 537q0 -203 72.5 -296.5t212.5 -93.5q45 0 78.5 10t63 35.5t48 69t29 112.5t10.5 163q0 114 -14.5 190t-45.5 118t-71.5 58.5t-99.5 16.5q-140 0 -211.5 -92t-71.5 -291z" />
<glyph unicode="q" horiz-adv-x="1189" d="M82 537q0 123 23 219.5t62.5 158.5t95.5 102.5t118 57.5t135 17q241 0 363 -154h4l20 86q5 23 12.5 32t28.5 9h103q22 0 31 -9.5t9 -31.5v-1434q0 -22 -9 -31.5t-31 -9.5h-164q-22 0 -31.5 9.5t-9.5 31.5v535h-4q-98 -150 -316 -150q-74 0 -137.5 17t-120 58.5 t-96.5 104.5t-63 160.5t-23 221.5zM328 537q0 -94 10.5 -163t29 -112.5t48 -69t63 -35.5t78.5 -10q140 0 212.5 93.5t72.5 296.5q0 199 -71.5 291t-211.5 92q-59 0 -99.5 -16.5t-71.5 -58.5t-45.5 -118t-14.5 -190z" />
<glyph unicode="r" horiz-adv-x="647" d="M102 41v983q0 22 9.5 31.5t31.5 9.5h103q9 0 14 -1t9.5 -6t6 -7.5t5.5 -12.5t6 -14l20 -78h4q25 39 55.5 65.5t53.5 39.5t60.5 20t53.5 8t56 3q23 0 30 -5t7 -26v-154q0 -19 -8.5 -27t-18 -8.5t-29 2t-28.5 2.5q-95 0 -145 -50.5t-50 -147.5v-627q0 -22 -9.5 -31.5 t-31.5 -9.5h-164q-22 0 -31.5 9.5t-9.5 31.5z" />
<glyph unicode="s" horiz-adv-x="970" d="M92 129l43 66q13 17 53 4q154 -52 263 -52q204 0 204 138q0 46 -34 72.5t-125 54.5l-177 53q-111 34 -164 112t-53 185q0 146 100.5 238t282.5 92q121 0 220 -31.5t137 -69.5q21 -21 0 -53l-43 -66q-9 -19 -54 -4q-143 52 -237 52q-87 0 -129.5 -35.5t-42.5 -98.5 q0 -78 80 -100l239 -70q129 -37 181.5 -110.5t52.5 -198.5q0 -106 -60.5 -183t-155 -113t-210.5 -36q-126 0 -232.5 30t-136.5 71q-10 14 -10 28q0 13 8 25z" />
<glyph unicode="t" horiz-adv-x="645" d="M20 944v80q0 22 9.5 31.5t31.5 9.5h107v158q0 5 0.5 9t2 7t2 5t3.5 4.5t4.5 3.5t6 3t6.5 3t8 3t8 3l164 61q7 3 13 3q10 0 17 -8q11 -12 11 -36v-219h129q22 0 31.5 -9.5t9.5 -31.5v-80q0 -22 -9.5 -31.5t-31.5 -9.5h-129v-590q0 -70 29 -105.5t69 -35.5h14 q22 0 31.5 -9.5t9.5 -31.5v-90q0 -22 -9.5 -31.5t-31.5 -9.5h-75q-283 0 -283 319v584h-107q-22 0 -31.5 9.5t-9.5 31.5z" />
<glyph unicode="u" d="M102 377v647q0 41 39 41h168q39 0 39 -41v-578q0 -85 16.5 -149t60 -107t110.5 -43q215 0 215 320v557q0 22 9.5 31.5t31.5 9.5h163q22 0 31.5 -9.5t9.5 -31.5v-983q0 -22 -9.5 -31.5t-31.5 -9.5h-102q-21 0 -28.5 9t-12.5 32l-20 84h-5q-35 -69 -112.5 -109.5 t-159.5 -40.5q-177 0 -294.5 108t-117.5 294z" />
<glyph unicode="v" horiz-adv-x="1032" d="M27 1028q-5 11 -5 19q0 18 29 18h189q41 0 53 -39l223 -780l223 780q9 39 54 39h188q30 0 30 -18q0 -8 -5 -19l-367 -991q-18 -37 -57 -37h-131q-40 0 -58 37z" />
<glyph unicode="w" horiz-adv-x="1605" d="M27 1028q-5 11 -5 19q0 18 29 18h189q41 0 53 -39l182 -780l203 780q9 39 51 39h148q42 0 51 -39l202 -780l183 780q9 39 53 39h188q30 0 30 -18q0 -8 -5 -19l-326 -991q-18 -37 -57 -37h-131q-39 0 -57 37l-205 663l-205 -663q-18 -37 -57 -37h-131q-40 0 -58 37z" />
<glyph unicode="x" horiz-adv-x="1032" d="M31 33l344 512l-328 487q-12 17 -8.5 25t24.5 8h226q41 0 61 -35l166 -348l176 348q20 35 64 35h213q24 0 26.5 -8t-10.5 -25l-328 -487l344 -512q9 -13 9 -21v-4q-4 -8 -25 -8h-225q-42 0 -62 35l-182 362l-192 -362q-20 -35 -64 -35h-213q-25 0 -25 13q0 8 9 20z" />
<glyph unicode="y" horiz-adv-x="1073" d="M27 1028q-5 11 -5 19q0 18 29 18h189q41 0 53 -39l248 -782l250 782q14 39 55 39h176q30 0 30 -18q0 -8 -5 -19l-562 -1442q-18 -37 -57 -37h-182q-43 0 -25 37l193 430z" />
<glyph unicode="z" horiz-adv-x="872" d="M61 41v74q0 37 21 78l430 710h-397q-22 0 -31.5 9.5t-9.5 31.5v80q0 22 9.5 31.5t31.5 9.5h639q22 0 31.5 -9.5t9.5 -31.5v-74q0 -38 -21 -78l-428 -710h424q22 0 31.5 -9.5t9.5 -31.5v-80q0 -22 -9.5 -31.5t-31.5 -9.5h-668q-22 0 -31.5 9.5t-9.5 31.5z" />
<glyph unicode="{" horiz-adv-x="833" d="M102 694v103q0 22 9.5 31.5t31.5 9.5q77 0 122.5 77.5t45.5 188.5v295q0 118 85.5 191t197.5 73h96q22 0 31.5 -9.5t9.5 -31.5v-115q0 -22 -9.5 -31.5t-31.5 -9.5h-28q-95 0 -95 -198v-230q0 -227 -168 -290v-5q78 -27 123 -100t45 -190v-242q0 -199 95 -199h28 q22 0 31.5 -9.5t9.5 -31.5v-114q0 -22 -9.5 -31.5t-31.5 -9.5h-96q-71 0 -134 29.5t-106 91.5t-43 143v307q0 113 -44 189.5t-124 76.5q-23 0 -32 9.5t-9 31.5z" />
<glyph unicode="|" horiz-adv-x="389" d="M102 -266v1802q0 22 9.5 31.5t31.5 9.5h103q22 0 31.5 -9.5t9.5 -31.5v-1802q0 -22 -9.5 -31.5t-31.5 -9.5h-103q-22 0 -31.5 9.5t-9.5 31.5z" />
<glyph unicode="}" horiz-adv-x="833" d="M102 -29q0 22 9.5 31.5t31.5 9.5h29q94 0 94 199v242q0 117 45 190t123 100v5q-168 63 -168 290v230q0 96 -21.5 147t-72.5 51h-29q-22 0 -31.5 9.5t-9.5 31.5v115q0 22 9.5 31.5t31.5 9.5h97q112 0 197 -73t85 -191v-295q0 -111 45.5 -188.5t122.5 -77.5q22 0 31.5 -9.5 t9.5 -31.5v-103q0 -22 -9 -31.5t-32 -9.5q-80 0 -124 -76.5t-44 -189.5v-307q0 -81 -42.5 -143t-105.5 -91.5t-134 -29.5h-97q-22 0 -31.5 9.5t-9.5 31.5v114z" />
<glyph unicode="~" horiz-adv-x="780" d="M102 666q3 90 47 146t134 56q42 0 135 -39q73 -32 82 -32q15 0 24 10.5t13.5 23t16.5 23t32 10.5h61q12 0 21.5 -10.5t9.5 -22.5q-2 -90 -45 -146t-133 -56q-30 0 -70 16q-23 9 -62.5 25t-58.5 23t-26 7q-14 0 -25 -10.5t-17 -23t-17.5 -23t-26.5 -10.5h-62 q-13 0 -23 10.5t-10 22.5z" />
<glyph unicode="&#xa1;" horiz-adv-x="462" d="M102 -471q-3 -41 41 -41h176q44 0 41 41l-41 942q-2 22 -10.5 31.5t-29.5 9.5h-95q-21 0 -30 -9.5t-11 -31.5zM102 758v164q0 22 9.5 31.5t31.5 9.5h176q22 0 31.5 -9.5t9.5 -31.5v-164q0 -22 -9.5 -31.5t-31.5 -9.5h-176q-22 0 -31.5 9.5t-9.5 31.5z" />
<glyph unicode="&#xa2;" horiz-adv-x="980" d="M82 535q0 503 407 550v246q0 22 9.5 31.5t31.5 9.5h103q22 0 31.5 -9.5t9.5 -31.5v-250q67 -12 125 -39t86 -51q24 -20 2 -53l-43 -66q-13 -18 -53 -4q-7 3 -35 14t-49 18t-54.5 13.5t-64.5 6.5q-73 0 -125.5 -31.5t-81 -88t-41 -122.5t-12.5 -146q0 -82 13 -148t41 -121 t80 -85.5t124 -30.5q23 0 44.5 2.5t46 9.5t36.5 11t41.5 15.5t36.5 13.5q40 14 53 -4l43 -66q19 -29 -2 -53q-24 -28 -79.5 -53.5t-131.5 -36.5v-252q0 -22 -9.5 -31.5t-31.5 -9.5h-103q-22 0 -31.5 9.5t-9.5 31.5v246q-407 37 -407 555z" />
<glyph unicode="&#xa5;" horiz-adv-x="1286" d="M22.5 1467q4.5 8 26.5 8h219q42 0 62 -35l327 -664l353 662q16 37 59 37h168q22 0 27 -8.5t-4 -28.5l-410 -738h168q22 0 31.5 -9.5t9.5 -31.5v-90q0 -22 -9.5 -31.5t-31.5 -9.5h-256v-143h256q22 0 31.5 -9.5t9.5 -31.5v-90q0 -22 -9.5 -31.5t-31.5 -9.5h-256v-172 q0 -22 -9.5 -31.5t-31.5 -9.5h-176q-22 0 -31.5 9.5t-9.5 31.5v172h-236q-22 0 -31.5 9.5t-9.5 31.5v90q0 22 9.5 31.5t31.5 9.5h236v143h-236q-22 0 -31.5 9.5t-9.5 31.5v90q0 22 9.5 31.5t31.5 9.5h150l-389 740q-11 19 -6.5 27z" />
<glyph unicode="&#xa8;" horiz-adv-x="819" d="M102 1290v144q0 22 9.5 31.5t31.5 9.5h144q22 0 31.5 -9.5t9.5 -31.5v-144q0 -22 -9.5 -31.5t-31.5 -9.5h-144q-22 0 -31.5 9.5t-9.5 31.5zM492 1290v144q0 22 9 31.5t31 9.5h144q22 0 31.5 -9.5t9.5 -31.5v-144q0 -22 -9.5 -31.5t-31.5 -9.5h-144q-22 0 -31 9.5t-9 31.5 z" />
<glyph unicode="&#xa9;" horiz-adv-x="1433" d="M102 573q0 125 48.5 239t131 196.5t196.5 131t239 48.5t239 -48.5t196 -131t130.5 -196.5t48.5 -239q0 -167 -82 -308.5t-223.5 -223.5t-308.5 -82q-125 0 -239 48.5t-196.5 130.5t-131 196t-48.5 239zM184 573q0 -145 71 -267.5t194 -193.5t268 -71t267.5 71 t193.5 193.5t71 267.5t-71 268t-193.5 194t-267.5 71q-109 0 -207.5 -42t-170 -113.5t-113.5 -170t-42 -207.5zM397 586q0 185 100 283t261 98q61 0 121.5 -17.5t83.5 -34.5q9 -7 2 -26l-17 -43q-6 -6 -26 -2q-99 24 -164 24q-101 0 -163.5 -68t-62.5 -214q0 -147 62.5 -216 t163.5 -69q61 0 164 25q18 9 26 -2l17 -37q8 -23 -2 -33q-22 -16 -83 -32.5t-122 -16.5q-160 0 -260.5 98t-100.5 283z" />
<glyph unicode="&#xab;" d="M82 715v57q0 14 5.5 24.5t11 15.5t20.5 17l553 433q37 16 37 -25v-111q0 -14 -5.5 -24.5t-11 -15.5t-20.5 -17l-418 -326l418 -325q14 -11 20.5 -17t11.5 -16.5t5 -24.5v-110q0 -41 -37 -25l-553 432q-14 11 -20.5 17t-11.5 16.5t-5 24.5zM492 715v57q0 20 7.5 30.5 t28.5 26.5l451 351q37 18 37 -25v-111q0 -14 -5.5 -24.5t-11 -15.5t-20.5 -17l-315 -244l315 -243q14 -11 20.5 -17t11.5 -16.5t5 -24.5v-110q0 -41 -37 -25l-451 350q-14 11 -20 17t-11 16.5t-5 24.5z" />
<glyph unicode="&#xad;" horiz-adv-x="757" d="M102 694v103q0 22 9.5 31.5t31.5 9.5h471q22 0 31.5 -9.5t9.5 -31.5v-103q0 -22 -9.5 -31.5t-31.5 -9.5h-471q-22 0 -31.5 9.5t-9.5 31.5z" />
<glyph unicode="&#xae;" horiz-adv-x="1433" d="M102 942q0 125 48.5 239t131 196t196.5 130.5t239 48.5q167 0 308.5 -82t223.5 -223.5t82 -308.5t-82 -308.5t-223.5 -223.5t-308.5 -82q-125 0 -239 48.5t-196.5 130.5t-131 196t-48.5 239zM184 942q0 -145 71 -267.5t194 -193.5t268 -71t267.5 71t193.5 193.5t71 267.5 t-71 268t-193.5 194t-267.5 71q-109 0 -207.5 -42t-170 -113.5t-113.5 -170t-42 -207.5zM506 608v697q0 20 20 20h195q114 0 188 -74.5t74 -183.5q0 -75 -39 -136.5t-106 -92.5l157 -234q6 -9 5 -12.5t-13 -3.5h-113q-19 0 -30 16l-129 207h-80v-203q0 -20 -21 -20h-88 q-20 0 -20 20zM635 903h65q154 0 154 164q0 166 -154 166h-65v-330z" />
<glyph unicode="&#xaf;" horiz-adv-x="921" d="M102 1331v62q0 22 9.5 31.5t31.5 9.5h635q22 0 31.5 -9.5t9.5 -31.5v-62q0 -22 -9.5 -31.5t-31.5 -9.5h-635q-22 0 -31.5 9.5t-9.5 31.5z" />
<glyph unicode="&#xb4;" horiz-adv-x="612" d="M104.5 1253q-4.5 8 6.5 27l122 201q22 35 64 35h186q44 0 11 -29l-228 -213q-33 -29 -71 -29h-64q-22 0 -26.5 8z" />
<glyph unicode="&#xb8;" horiz-adv-x="565" d="M104 -401l2 36q3 42 44 39v-2h1h1h1h1h1h1h1h1h1h1h1h1h1h1h1h1h1h1h1h1h1h1h1h1h1h1h1h1h1h1h1h1h1h10q65 0 98 21.5t33 56.5q0 68 -134 68l46 182h112l-29 -111q68 -9 106 -50.5t38 -102.5q0 -81 -65.5 -136t-172.5 -55q-79 1 -84 9q-40 3 -37 45z" />
<glyph unicode="&#xbb;" d="M82 332v110q0 20 8 31t29 27l315 243l-315 244q-15 12 -20.5 17t-11 15.5t-5.5 24.5v111q0 43 37 25l450 -351q15 -12 20.5 -17t11 -15.5t5.5 -24.5v-57q0 -20 -8 -31t-29 -27l-450 -350q-37 -16 -37 25zM389 250v110q0 20 8 31t29 27l418 325l-418 326q-15 12 -20.5 17 t-11 15.5t-5.5 24.5v111q0 41 37 25l553 -433q15 -12 20.5 -17t11 -15.5t5.5 -24.5v-57q0 -20 -8 -31t-29 -27l-553 -432q-37 -16 -37 25z" />
<glyph unicode="&#xbf;" horiz-adv-x="1040" d="M86 -137q-9 177 109 319q2 3 36.5 35.5t67 66.5t60.5 86t28 97v29q0 22 9.5 31.5t31.5 9.5h176q22 0 31.5 -9.5t9.5 -31.5v-29q0 -84 -37 -147t-133 -173q-17 -19 -40.5 -53t-53 -102.5t-29.5 -126.5q0 -77 48.5 -129.5t146.5 -52.5q81 0 301 49q28 7 39 6.5t14 -10.5 l33 -86q9 -25 8.5 -35t-10.5 -19q-37 -30 -168 -65t-250 -35q-84 0 -156 20.5t-132.5 63.5t-97.5 117.5t-42 173.5zM387 782v164q0 22 9.5 31.5t31.5 9.5h176q22 0 31.5 -9.5t9.5 -31.5v-164q0 -22 -9.5 -31.5t-31.5 -9.5h-176q-22 0 -31.5 9.5t-9.5 31.5z" />
<glyph unicode="&#xc0;" horiz-adv-x="1376" d="M27 37l559 1401q15 37 57 37h90q43 0 58 -37l559 -1401q18 -37 -25 -37h-195q-41 0 -55 39l-127 323h-581l-127 -323q-14 -39 -56 -39h-133q-42 0 -24 37zM373 1896q-33 29 10 29h186q42 0 64 -35l123 -200q10 -19 5.5 -27t-26.5 -8h-63q-40 0 -72 28zM434 535h447 l-183 530l-41 154l-39 -154z" />
<glyph unicode="&#xc1;" horiz-adv-x="1376" d="M27 37l559 1401q15 37 57 37h90q43 0 58 -37l559 -1401q18 -37 -25 -37h-195q-41 0 -55 39l-127 323h-581l-127 -323q-14 -39 -56 -39h-133q-42 0 -24 37zM434 535h447l-183 530l-41 154l-39 -154zM643 1663q-5 8 6 27l123 200q22 35 64 35h186q43 0 10 -29l-227 -213 q-32 -28 -72 -28h-63q-22 0 -27 8z" />
<glyph unicode="&#xc2;" horiz-adv-x="1376" d="M27 37l559 1401q15 37 57 37h90q43 0 58 -37l559 -1401q18 -37 -25 -37h-195q-41 0 -55 39l-127 323h-581l-127 -323q-14 -39 -56 -39h-133q-42 0 -24 37zM397.5 1663q-3.5 8 8.5 25l147 204q23 33 65 33h140q42 0 65 -33l148 -204q12 -17 8.5 -25t-25.5 -8h-69 q-42 0 -70 28l-127 127l-127 -127q-28 -28 -69 -28h-70q-21 0 -24.5 8zM434 535h447l-183 530l-41 154l-39 -154z" />
<glyph unicode="&#xc3;" horiz-adv-x="1376" d="M27 37l559 1401q15 37 57 37h90q43 0 58 -37l559 -1401q18 -37 -25 -37h-195q-41 0 -55 39l-127 323h-581l-127 -323q-14 -39 -56 -39h-133q-42 0 -24 37zM399 1690q3 90 47 146t134 56q42 0 135 -39q73 -32 82 -32q15 0 24 10.5t13.5 23t16.5 23t32 10.5h61 q12 0 21.5 -10.5t9.5 -22.5q-2 -90 -45 -146t-133 -56q-30 0 -70 16q-23 9 -62.5 25t-58.5 23t-26 7q-14 0 -25 -10.5t-17 -23t-17.5 -23t-26.5 -10.5h-62q-13 0 -23 10.5t-10 22.5zM434 535h447l-183 530l-41 154l-39 -154z" />
<glyph unicode="&#xc4;" horiz-adv-x="1376" d="M27 37l559 1401q15 37 57 37h90q43 0 58 -37l559 -1401q18 -37 -25 -37h-195q-41 0 -55 39l-127 323h-581l-127 -323q-14 -39 -56 -39h-133q-42 0 -24 37zM381 1700v143q0 22 9.5 31.5t31.5 9.5h143q22 0 31.5 -9.5t9.5 -31.5v-143q0 -22 -9.5 -31.5t-31.5 -9.5h-143 q-22 0 -31.5 9.5t-9.5 31.5zM434 535h447l-183 530l-41 154l-39 -154zM770 1700v143q0 22 9.5 31.5t31.5 9.5h143q22 0 31.5 -9.5t9.5 -31.5v-143q0 -22 -9.5 -31.5t-31.5 -9.5h-143q-22 0 -31.5 9.5t-9.5 31.5z" />
<glyph unicode="&#xc5;" horiz-adv-x="1376" d="M27 37l559 1401q15 37 57 37h90q43 0 58 -37l559 -1401q18 -37 -25 -37h-195q-41 0 -55 39l-127 323h-581l-127 -323q-14 -39 -56 -39h-133q-42 0 -24 37zM434 535h447l-183 530l-41 154l-39 -154zM498 1778q0 79 56.5 134.5t133.5 55.5q82 0 136.5 -54t54.5 -136 q0 -78 -56 -134.5t-135 -56.5q-76 0 -133 57t-57 134zM584 1778q0 -41 31.5 -73t72.5 -32q42 0 73.5 30t31.5 75t-29 74.5t-76 29.5q-46 0 -75 -31t-29 -73z" />
<glyph unicode="&#xc6;" horiz-adv-x="1468" d="M27 37l559 1401q15 37 57 37h703q22 0 31 -9.5t9 -31.5v-103q0 -22 -9 -31.5t-31 -9.5h-404v-452h301q22 0 31.5 -9.5t9.5 -31.5v-103q0 -22 -9.5 -31.5t-31.5 -9.5h-301v-469h404q22 0 31 -9.5t9 -31.5v-102q0 -22 -9 -31.5t-31 -9.5h-621q-22 0 -31.5 9.5t-9.5 31.5 v321h-317l-127 -323q-14 -39 -56 -39h-133q-39 0 -24 37zM434 535h250v684h-27l-39 -154z" />
<glyph unicode="&#xc7;" horiz-adv-x="1308" d="M82 737q0 187 55 334t153 239.5t228.5 140.5t286.5 48q122 0 242.5 -33.5t166.5 -66.5q11 -9 11.5 -19.5t-8.5 -33.5l-33 -86q-12 -17 -54 -5q-197 50 -325 50q-97 0 -176 -31t-142.5 -96t-99 -177.5t-35.5 -263.5t35.5 -263.5t99.5 -177t143 -95.5t175 -31q132 0 325 49 q41 14 54 -4l33 -76q9 -28 8.5 -40t-11.5 -23q-43 -30 -150.5 -61.5t-221.5 -37.5l-23 -88q68 -9 106 -50.5t38 -102.5q0 -81 -65.5 -136t-172.5 -55q-79 1 -84 9q-40 3 -37 45l2 36q3 42 43 39v-2h1h1h1h1h1h1h1h1h1h1h1h1h1h1h1h1h1h1h1h1h1h1h1h1h1h1h1h1h1h1h1h1h1h10 q65 0 98 21.5t33 56.5q0 28 -19 36t-77 13q-20 1 -27 19.5t0 38.5l29 123q-141 10 -258 62.5t-204.5 145t-136 233t-48.5 316.5z" />
<glyph unicode="&#xc8;" horiz-adv-x="989" d="M102 41v1393q0 22 9.5 31.5t31.5 9.5h723q22 0 31.5 -9.5t9.5 -31.5v-103q0 -22 -9.5 -31.5t-31.5 -9.5h-506v-452h404q22 0 31.5 -9.5t9.5 -31.5v-103q0 -22 -9.5 -31.5t-31.5 -9.5h-404v-469h506q22 0 31.5 -9.5t9.5 -31.5v-102q0 -22 -9.5 -31.5t-31.5 -9.5h-723 q-22 0 -31.5 9.5t-9.5 31.5zM242 1896q-33 29 10 29h186q42 0 64 -35l123 -200q11 -19 6 -27t-27 -8h-63q-40 0 -72 28z" />
<glyph unicode="&#xc9;" horiz-adv-x="989" d="M102 41v1393q0 22 9.5 31.5t31.5 9.5h723q22 0 31.5 -9.5t9.5 -31.5v-103q0 -22 -9.5 -31.5t-31.5 -9.5h-506v-452h404q22 0 31.5 -9.5t9.5 -31.5v-103q0 -22 -9.5 -31.5t-31.5 -9.5h-404v-469h506q22 0 31.5 -9.5t9.5 -31.5v-102q0 -22 -9.5 -31.5t-31.5 -9.5h-723 q-22 0 -31.5 9.5t-9.5 31.5zM372.5 1663q-4.5 8 6.5 27l123 200q22 35 63 35h187q43 0 10 -29l-227 -213q-32 -28 -72 -28h-64q-22 0 -26.5 8z" />
<glyph unicode="&#xca;" horiz-adv-x="989" d="M102 41v1393q0 22 9.5 31.5t31.5 9.5h723q22 0 31.5 -9.5t9.5 -31.5v-103q0 -22 -9.5 -31.5t-31.5 -9.5h-506v-452h404q22 0 31.5 -9.5t9.5 -31.5v-103q0 -22 -9.5 -31.5t-31.5 -9.5h-404v-469h506q22 0 31.5 -9.5t9.5 -31.5v-102q0 -22 -9.5 -31.5t-31.5 -9.5h-723 q-22 0 -31.5 9.5t-9.5 31.5zM202.5 1663q-3.5 8 8.5 25l147 204q23 33 66 33h139q43 0 66 -33l147 -204q12 -17 8.5 -25t-24.5 -8h-70q-41 0 -69 28l-127 127l-127 -127q-28 -28 -70 -28h-70q-21 0 -24.5 8z" />
<glyph unicode="&#xcb;" horiz-adv-x="989" d="M102 41v1393q0 22 9.5 31.5t31.5 9.5h723q22 0 31.5 -9.5t9.5 -31.5v-103q0 -22 -9.5 -31.5t-31.5 -9.5h-506v-452h404q22 0 31.5 -9.5t9.5 -31.5v-103q0 -22 -9.5 -31.5t-31.5 -9.5h-404v-469h506q22 0 31.5 -9.5t9.5 -31.5v-102q0 -22 -9.5 -31.5t-31.5 -9.5h-723 q-22 0 -31.5 9.5t-9.5 31.5zM186 1700v143q0 22 9.5 31.5t31.5 9.5h144q22 0 31.5 -9.5t9.5 -31.5v-143q0 -22 -9.5 -31.5t-31.5 -9.5h-144q-22 0 -31.5 9.5t-9.5 31.5zM575 1700v143q0 22 9.5 31.5t31.5 9.5h144q22 0 31.5 -9.5t9.5 -31.5v-143q0 -22 -9.5 -31.5 t-31.5 -9.5h-144q-22 0 -31.5 9.5t-9.5 31.5z" />
<glyph unicode="&#xcc;" horiz-adv-x="462" d="M-41 1896q-33 29 10 29h187q41 0 63 -35l123 -200q11 -19 6.5 -27t-26.5 -8h-64q-40 0 -72 28zM102 41v1393q0 22 9.5 31.5t31.5 9.5h176q22 0 31.5 -9.5t9.5 -31.5v-1393q0 -22 -9.5 -31.5t-31.5 -9.5h-176q-22 0 -31.5 9.5t-9.5 31.5z" />
<glyph unicode="&#xcd;" horiz-adv-x="462" d="M102 41v1393q0 22 9.5 31.5t31.5 9.5h176q22 0 31.5 -9.5t9.5 -31.5v-1393q0 -22 -9.5 -31.5t-31.5 -9.5h-176q-22 0 -31.5 9.5t-9.5 31.5zM108.5 1663q-4.5 8 6.5 27l123 200q22 35 63 35h186q44 0 11 -29l-228 -213q-32 -28 -71 -28h-64q-22 0 -26.5 8z" />
<glyph unicode="&#xce;" horiz-adv-x="462" d="M-59.5 1663q-3.5 8 8.5 25l147 204q23 33 66 33h139q43 0 66 -33l147 -204q12 -17 8.5 -25t-24.5 -8h-70q-42 0 -70 28l-127 127l-127 -127q-28 -28 -69 -28h-70q-21 0 -24.5 8zM102 41v1393q0 22 9.5 31.5t31.5 9.5h176q22 0 31.5 -9.5t9.5 -31.5v-1393 q0 -22 -9.5 -31.5t-31.5 -9.5h-176q-22 0 -31.5 9.5t-9.5 31.5z" />
<glyph unicode="&#xcf;" horiz-adv-x="462" d="M-76 1700v143q0 22 9.5 31.5t31.5 9.5h144q22 0 31.5 -9.5t9.5 -31.5v-143q0 -22 -9.5 -31.5t-31.5 -9.5h-144q-22 0 -31.5 9.5t-9.5 31.5zM102 41v1393q0 22 9.5 31.5t31.5 9.5h176q22 0 31.5 -9.5t9.5 -31.5v-1393q0 -22 -9.5 -31.5t-31.5 -9.5h-176q-22 0 -31.5 9.5 t-9.5 31.5zM313 1700v143q0 22 9.5 31.5t31.5 9.5h144q22 0 31.5 -9.5t9.5 -31.5v-143q0 -22 -9.5 -31.5t-31.5 -9.5h-144q-22 0 -31.5 9.5t-9.5 31.5z" />
<glyph unicode="&#xd0;" horiz-adv-x="1443" d="M82 694v103q0 22 9.5 31.5t31.5 9.5h102v596q0 22 9.5 31.5t31.5 9.5h471q124 0 238.5 -55t199.5 -150.5t136 -233t51 -293.5q0 -209 -90.5 -379t-244.5 -266t-339 -98h-422q-22 0 -31.5 9.5t-9.5 31.5v612h-102q-22 0 -31.5 9.5t-9.5 31.5zM483 184h203q116 0 209.5 74 t145.5 204.5t51 291.5q-1 116 -34.5 217t-90.5 170.5t-134 109t-163 39.5h-187v-452h316q22 0 31.5 -9.5t9.5 -31.5v-103q0 -22 -9.5 -31.5t-31.5 -9.5h-316v-469z" />
<glyph unicode="&#xd1;" horiz-adv-x="1302" d="M102 41v1393q0 22 9.5 31.5t31.5 9.5h144q46 0 67 -33l625 -1000h4l-20 418v574q0 22 9.5 31.5t31.5 9.5h155q22 0 31.5 -9.5t9.5 -31.5v-1393q0 -22 -9.5 -31.5t-31.5 -9.5h-143q-47 0 -68 33l-624 999h-5l21 -418v-573q0 -22 -9.5 -31.5t-31.5 -9.5h-156 q-22 0 -31.5 9.5t-9.5 31.5zM362 1690q3 90 47 146t134 56q42 0 135 -39q73 -32 82 -32q15 0 24 10.5t13.5 23t16.5 23t32 10.5h61q12 0 21.5 -10.5t9.5 -22.5q-2 -90 -45 -146t-133 -56q-30 0 -70 16q-23 9 -62.5 25t-58.5 23t-26 7q-14 0 -25 -10.5t-17 -23t-17.5 -23 t-26.5 -10.5h-62q-13 0 -23 10.5t-10 22.5z" />
<glyph unicode="&#xd2;" horiz-adv-x="1609" d="M82 737q0 187 55 334t153 239.5t228.5 140.5t286.5 48t286.5 -48t228.5 -140.5t153 -239.5t55 -334t-55.5 -334t-153.5 -239.5t-228.5 -140.5t-285.5 -48t-285.5 48t-228.5 140.5t-153.5 239.5t-55.5 334zM352 737q0 -151 35.5 -263.5t99.5 -177t143 -95.5t175 -31 q76 0 141.5 18.5t123.5 61.5t99 107.5t64.5 161t23.5 218.5t-23.5 218.5t-64 161.5t-98.5 107.5t-123.5 61.5t-142.5 19q-97 0 -176 -31t-142.5 -96t-99 -177.5t-35.5 -263.5zM541 1896q-33 29 10 29h186q42 0 64 -35l123 -200q10 -19 5.5 -27t-26.5 -8h-63q-40 0 -72 28z " />
<glyph unicode="&#xd3;" horiz-adv-x="1609" d="M82 737q0 187 55 334t153 239.5t228.5 140.5t286.5 48t286.5 -48t228.5 -140.5t153 -239.5t55 -334t-55.5 -334t-153.5 -239.5t-228.5 -140.5t-285.5 -48t-285.5 48t-228.5 140.5t-153.5 239.5t-55.5 334zM352 737q0 -151 35.5 -263.5t99.5 -177t143 -95.5t175 -31 q76 0 141.5 18.5t123.5 61.5t99 107.5t64.5 161t23.5 218.5t-23.5 218.5t-64 161.5t-98.5 107.5t-123.5 61.5t-142.5 19q-97 0 -176 -31t-142.5 -96t-99 -177.5t-35.5 -263.5zM698.5 1663q-4.5 8 6.5 27l122 200q22 35 64 35h186q43 0 10 -29l-227 -213q-32 -28 -72 -28h-63 q-22 0 -26.5 8z" />
<glyph unicode="&#xd4;" horiz-adv-x="1609" d="M82 737q0 187 55 334t153 239.5t228.5 140.5t286.5 48t286.5 -48t228.5 -140.5t153 -239.5t55 -334t-55.5 -334t-153.5 -239.5t-228.5 -140.5t-285.5 -48t-285.5 48t-228.5 140.5t-153.5 239.5t-55.5 334zM352 737q0 -151 35.5 -263.5t99.5 -177t143 -95.5t175 -31 q76 0 141.5 18.5t123.5 61.5t99 107.5t64.5 161t23.5 218.5t-23.5 218.5t-64 161.5t-98.5 107.5t-123.5 61.5t-142.5 19q-97 0 -176 -31t-142.5 -96t-99 -177.5t-35.5 -263.5zM513.5 1663q-3.5 8 8.5 25l148 204q23 33 65 33h139q43 0 66 -33l147 -204q12 -17 8.5 -25 t-24.5 -8h-70q-41 0 -69 28l-127 127l-127 -127q-28 -28 -70 -28h-69q-22 0 -25.5 8z" />
<glyph unicode="&#xd5;" horiz-adv-x="1609" d="M82 737q0 187 55 334t153 239.5t228.5 140.5t286.5 48t286.5 -48t228.5 -140.5t153 -239.5t55 -334t-55.5 -334t-153.5 -239.5t-228.5 -140.5t-285.5 -48t-285.5 48t-228.5 140.5t-153.5 239.5t-55.5 334zM352 737q0 -151 35.5 -263.5t99.5 -177t143 -95.5t175 -31 q76 0 141.5 18.5t123.5 61.5t99 107.5t64.5 161t23.5 218.5t-23.5 218.5t-64 161.5t-98.5 107.5t-123.5 61.5t-142.5 19q-97 0 -176 -31t-142.5 -96t-99 -177.5t-35.5 -263.5zM516 1690q3 91 46.5 146.5t133.5 55.5q42 0 135 -39q73 -32 82 -32q15 0 24 10.5t13.5 23 t16.5 23t32 10.5h62q12 0 21.5 -10.5t9.5 -22.5q-2 -90 -45.5 -146t-133.5 -56q-29 0 -69 16q-18 7 -40.5 16l-37.5 15t-30.5 12t-25 9t-14.5 3q-14 0 -25 -10.5t-17 -23t-17.5 -23t-26.5 -10.5h-61q-13 0 -23 10.5t-10 22.5z" />
<glyph unicode="&#xd6;" horiz-adv-x="1609" d="M82 737q0 187 55 334t153 239.5t228.5 140.5t286.5 48t286.5 -48t228.5 -140.5t153 -239.5t55 -334t-55.5 -334t-153.5 -239.5t-228.5 -140.5t-285.5 -48t-285.5 48t-228.5 140.5t-153.5 239.5t-55.5 334zM352 737q0 -151 35.5 -263.5t99.5 -177t143 -95.5t175 -31 q76 0 141.5 18.5t123.5 61.5t99 107.5t64.5 161t23.5 218.5t-23.5 218.5t-64 161.5t-98.5 107.5t-123.5 61.5t-142.5 19q-97 0 -176 -31t-142.5 -96t-99 -177.5t-35.5 -263.5zM498 1700v143q0 22 9.5 31.5t31.5 9.5h143q22 0 31.5 -9.5t9.5 -31.5v-143q0 -22 -9.5 -31.5 t-31.5 -9.5h-143q-22 0 -31.5 9.5t-9.5 31.5zM887 1700v143q0 22 9.5 31.5t31.5 9.5h143q22 0 31.5 -9.5t9.5 -31.5v-143q0 -22 -9.5 -31.5t-31.5 -9.5h-143q-22 0 -31.5 9.5t-9.5 31.5z" />
<glyph unicode="&#xd7;" horiz-adv-x="802" d="M98 514q-28 28 0 57l172 174l-172 175q-28 28 0 57l72 72q28 29 57 0l174 -172l174 172q29 29 58 0l72 -72q29 -29 0 -57l-173 -175l173 -174q29 -29 0 -57l-72 -72q-29 -29 -58 0l-174 172l-174 -172q-29 -28 -57 0z" />
<glyph unicode="&#xd8;" horiz-adv-x="1609" d="M82 737q0 187 55 334t153 239.5t228.5 140.5t286.5 48q249 0 426 -119l57 68q26 33 60 6l77 -65q34 -27 5 -60l-62 -74q160 -200 160 -518q0 -187 -55.5 -334t-153.5 -239.5t-228.5 -140.5t-285.5 -48q-249 0 -426 119l-57 -67q-26 -33 -60 -7l-78 66q-33 26 -4 59l62 72 q-160 200 -160 520zM352 737q0 -192 58 -321l677 794q-112 95 -282 95q-97 0 -176 -31t-142.5 -96t-99 -177.5t-35.5 -263.5zM522 262q109 -92 283 -92q76 0 141.5 18.5t123.5 61.5t99 107.5t64.5 161t23.5 218.5q0 193 -57 322z" />
<glyph unicode="&#xd9;" horiz-adv-x="1302" d="M102 524v910q0 22 9.5 31.5t31.5 9.5h176q22 0 31.5 -9.5t9.5 -31.5v-852q0 -181 77.5 -301.5t213.5 -120.5q165 0 259 119t94 303v852q0 22 9 31.5t31 9.5h115q22 0 31.5 -9.5t9.5 -31.5v-910q0 -239 -155.5 -394t-397.5 -155q-234 0 -389.5 157t-155.5 392zM463 1896 q-33 29 10 29h186q42 0 64 -35l123 -200q10 -19 5.5 -27t-26.5 -8h-63q-40 0 -72 28z" />
<glyph unicode="&#xda;" horiz-adv-x="1302" d="M102 524v910q0 22 9.5 31.5t31.5 9.5h176q22 0 31.5 -9.5t9.5 -31.5v-852q0 -181 77.5 -301.5t213.5 -120.5q165 0 259 119t94 303v852q0 22 9 31.5t31 9.5h115q22 0 31.5 -9.5t9.5 -31.5v-910q0 -239 -155.5 -394t-397.5 -155q-234 0 -389.5 157t-155.5 392zM448.5 1663 q-4.5 8 6.5 27l123 200q22 35 63 35h186q44 0 11 -29l-228 -213q-32 -28 -71 -28h-64q-22 0 -26.5 8z" />
<glyph unicode="&#xdb;" horiz-adv-x="1302" d="M102 524v910q0 22 9.5 31.5t31.5 9.5h176q22 0 31.5 -9.5t9.5 -31.5v-852q0 -181 77.5 -301.5t213.5 -120.5q165 0 259 119t94 303v852q0 22 9 31.5t31 9.5h115q22 0 31.5 -9.5t9.5 -31.5v-910q0 -239 -155.5 -394t-397.5 -155q-234 0 -389.5 157t-155.5 392zM360.5 1663 q-3.5 8 8.5 25l147 204q23 33 66 33h139q42 0 65 -33l148 -204q12 -17 8.5 -25t-24.5 -8h-70q-42 0 -70 28l-127 127l-127 -127q-28 -28 -69 -28h-70q-21 0 -24.5 8z" />
<glyph unicode="&#xdc;" horiz-adv-x="1302" d="M102 524v910q0 22 9.5 31.5t31.5 9.5h176q22 0 31.5 -9.5t9.5 -31.5v-852q0 -181 77.5 -301.5t213.5 -120.5q165 0 259 119t94 303v852q0 22 9 31.5t31 9.5h115q22 0 31.5 -9.5t9.5 -31.5v-910q0 -239 -155.5 -394t-397.5 -155q-234 0 -389.5 157t-155.5 392zM344 1700 v143q0 22 9.5 31.5t31.5 9.5h143q22 0 31.5 -9.5t9.5 -31.5v-143q0 -22 -9.5 -31.5t-31.5 -9.5h-143q-22 0 -31.5 9.5t-9.5 31.5zM733 1700v143q0 22 9.5 31.5t31.5 9.5h144q22 0 31 -9.5t9 -31.5v-143q0 -22 -9 -31.5t-31 -9.5h-144q-22 0 -31.5 9.5t-9.5 31.5z" />
<glyph unicode="&#xdd;" horiz-adv-x="1286" d="M22.5 1467q4.5 8 26.5 8h219q42 0 62 -35l327 -664l353 662q16 37 59 37h168q22 0 27 -8.5t-4 -28.5l-498 -899v-498q0 -22 -9.5 -31.5t-31.5 -9.5h-176q-22 0 -31.5 9.5t-9.5 31.5v498l-475 901q-11 19 -6.5 27zM544.5 1663q-4.5 8 6.5 27l123 200q22 35 63 35h187 q43 0 10 -29l-227 -213q-32 -28 -72 -28h-64q-22 0 -26.5 8z" />
<glyph unicode="&#xde;" horiz-adv-x="1140" d="M102 41v1391q0 22 9.5 31.5t31.5 9.5h176q22 0 31.5 -9.5t9.5 -31.5v-185h172q151 0 272.5 -68.5t188 -186t66.5 -259.5q0 -104 -39.5 -197t-108.5 -161.5t-167.5 -109t-211.5 -40.5h-172v-184q0 -22 -9.5 -31.5t-31.5 -9.5h-176q-22 0 -31.5 9.5t-9.5 31.5zM360 408h132 q309 0 309 325q0 164 -78.5 247t-230.5 85h-132v-657z" />
<glyph unicode="&#xdf;" horiz-adv-x="1284" d="M20 934v90q0 22 9.5 31.5t31.5 9.5h119v20q0 215 121.5 333t335.5 118t335.5 -107t121.5 -303q0 -215 -195 -307v-4q146 -26 224.5 -132t78.5 -263q0 -179 -135 -299.5t-334 -120.5h-125q-22 0 -31.5 9.5t-9.5 31.5v90q0 22 9.5 31.5t31.5 9.5h58q80 0 137 20.5t86.5 57 t42 77.5t12.5 91q0 44 -8 84t-28.5 78.5t-51.5 66t-79.5 44t-110.5 16.5h-56q-22 0 -31.5 9.5t-9.5 31.5v90q0 22 10 31.5t33 9.5q95 0 159.5 65.5t64.5 177.5q0 113 -49.5 177.5t-147.5 64.5q-101 0 -151 -75.5t-50 -207.5v-1040q0 -22 -9.5 -31.5t-31.5 -9.5h-176 q-22 0 -31.5 9.5t-9.5 31.5v852h-119q-22 0 -31.5 9.5t-9.5 31.5z" />
<glyph unicode="&#xe0;" horiz-adv-x="1052" d="M82 346q0 77 22.5 136t60.5 96t94 60.5t116.5 32.5t134.5 9h211q-3 30 -10.5 58.5t-24 63t-39.5 59.5t-61.5 42t-87.5 17q-67 0 -232 -52q-41 -12 -53 4l-43 66q-19 29 2 53q34 37 136.5 69t217.5 32q103 0 182 -29.5t128 -78.5t80 -120.5t43 -148.5t12 -170v-504 q0 -22 -9.5 -31.5t-31.5 -9.5h-103q-21 0 -28.5 9t-12.5 32l-20 84h-4q-40 -73 -116 -111.5t-179 -38.5q-79 0 -147.5 23t-122 67.5t-84.5 116.5t-31 164zM225 1487q-33 29 11 29h186q41 0 63 -35l123 -201q11 -19 6.5 -27t-26.5 -8h-64q-38 0 -71 29zM330 352q0 -26 6 -53 t20.5 -54.5t36 -49t55.5 -35t76 -13.5q96 0 148.5 74.5t52.5 227.5v59h-215q-82 0 -131 -41.5t-49 -114.5z" />
<glyph unicode="&#xe1;" horiz-adv-x="1052" d="M82 346q0 77 22.5 136t60.5 96t94 60.5t116.5 32.5t134.5 9h211q-3 30 -10.5 58.5t-24 63t-39.5 59.5t-61.5 42t-87.5 17q-67 0 -232 -52q-41 -12 -53 4l-43 66q-19 29 2 53q34 37 136.5 69t217.5 32q103 0 182 -29.5t128 -78.5t80 -120.5t43 -148.5t12 -170v-504 q0 -22 -9.5 -31.5t-31.5 -9.5h-103q-21 0 -28.5 9t-12.5 32l-20 84h-4q-40 -73 -116 -111.5t-179 -38.5q-79 0 -147.5 23t-122 67.5t-84.5 116.5t-31 164zM330 352q0 -26 6 -53t20.5 -54.5t36 -49t55.5 -35t76 -13.5q96 0 148.5 74.5t52.5 227.5v59h-215q-82 0 -131 -41.5 t-49 -114.5zM440.5 1253q-4.5 8 5.5 27l123 201q22 35 64 35h186q43 0 10 -29l-227 -213q-33 -29 -72 -29h-63q-22 0 -26.5 8z" />
<glyph unicode="&#xe2;" horiz-adv-x="1052" d="M82 346q0 77 22.5 136t60.5 96t94 60.5t116.5 32.5t134.5 9h211q-3 30 -10.5 58.5t-24 63t-39.5 59.5t-61.5 42t-87.5 17q-67 0 -232 -52q-41 -12 -53 4l-43 66q-19 29 2 53q34 37 136.5 69t217.5 32q103 0 182 -29.5t128 -78.5t80 -120.5t43 -148.5t12 -170v-504 q0 -22 -9.5 -31.5t-31.5 -9.5h-103q-21 0 -28.5 9t-12.5 32l-20 84h-4q-40 -73 -116 -111.5t-179 -38.5q-79 0 -147.5 23t-122 67.5t-84.5 116.5t-31 164zM235.5 1253q-3.5 8 8.5 25l147 205q23 33 66 33h139q43 0 66 -33l147 -205q12 -17 8.5 -25t-24.5 -8h-70 q-41 0 -70 29l-127 127l-127 -127q-29 -29 -69 -29h-70q-21 0 -24.5 8zM330 352q0 -26 6 -53t20.5 -54.5t36 -49t55.5 -35t76 -13.5q96 0 148.5 74.5t52.5 227.5v59h-215q-82 0 -131 -41.5t-49 -114.5z" />
<glyph unicode="&#xe3;" horiz-adv-x="1052" d="M82 346q0 77 22.5 136t60.5 96t94 60.5t116.5 32.5t134.5 9h211q-3 30 -10.5 58.5t-24 63t-39.5 59.5t-61.5 42t-87.5 17q-67 0 -232 -52q-41 -12 -53 4l-43 66q-19 29 2 53q34 37 136.5 69t217.5 32q103 0 182 -29.5t128 -78.5t80 -120.5t43 -148.5t12 -170v-504 q0 -22 -9.5 -31.5t-31.5 -9.5h-103q-21 0 -28.5 9t-12.5 32l-20 84h-4q-40 -73 -116 -111.5t-179 -38.5q-79 0 -147.5 23t-122 67.5t-84.5 116.5t-31 164zM238 1280q3 91 46.5 147t133.5 56q42 0 135 -39q75 -33 82 -33q15 0 24 10.5t13.5 23.5t16.5 23.5t32 10.5h61 q12 0 21.5 -10.5t9.5 -22.5q-2 -91 -45 -147t-133 -56q-27 0 -70 17q-23 9 -62.5 25t-58.5 23t-26 7q-18 0 -30 -17t-24.5 -34t-31.5 -17h-62q-13 0 -22.5 10.5t-9.5 22.5zM330 352q0 -26 6 -53t20.5 -54.5t36 -49t55.5 -35t76 -13.5q96 0 148.5 74.5t52.5 227.5v59h-215 q-82 0 -131 -41.5t-49 -114.5z" />
<glyph unicode="&#xe4;" horiz-adv-x="1052" d="M82 346q0 77 22.5 136t60.5 96t94 60.5t116.5 32.5t134.5 9h211q-3 30 -10.5 58.5t-24 63t-39.5 59.5t-61.5 42t-87.5 17q-67 0 -232 -52q-41 -12 -53 4l-43 66q-19 29 2 53q34 37 136.5 69t217.5 32q103 0 182 -29.5t128 -78.5t80 -120.5t43 -148.5t12 -170v-504 q0 -22 -9.5 -31.5t-31.5 -9.5h-103q-21 0 -28.5 9t-12.5 32l-20 84h-4q-40 -73 -116 -111.5t-179 -38.5q-79 0 -147.5 23t-122 67.5t-84.5 116.5t-31 164zM219 1290v144q0 22 9.5 31.5t31.5 9.5h143q22 0 31.5 -9.5t9.5 -31.5v-144q0 -22 -9.5 -31.5t-31.5 -9.5h-143 q-22 0 -31.5 9.5t-9.5 31.5zM330 352q0 -26 6 -53t20.5 -54.5t36 -49t55.5 -35t76 -13.5q96 0 148.5 74.5t52.5 227.5v59h-215q-82 0 -131 -41.5t-49 -114.5zM608 1290v144q0 22 9.5 31.5t31.5 9.5h144q22 0 31.5 -9.5t9.5 -31.5v-144q0 -22 -9.5 -31.5t-31.5 -9.5h-144 q-22 0 -31.5 9.5t-9.5 31.5z" />
<glyph unicode="&#xe5;" horiz-adv-x="1052" d="M82 346q0 77 22.5 136t60.5 96t94 60.5t116.5 32.5t134.5 9h211q-3 30 -10.5 58.5t-24 63t-39.5 59.5t-61.5 42t-87.5 17q-67 0 -232 -52q-41 -12 -53 4l-43 66q-19 29 2 53q34 37 136.5 69t217.5 32q103 0 182 -29.5t128 -78.5t80 -120.5t43 -148.5t12 -170v-504 q0 -22 -9.5 -31.5t-31.5 -9.5h-103q-21 0 -28.5 9t-12.5 32l-20 84h-4q-40 -73 -116 -111.5t-179 -38.5q-79 0 -147.5 23t-122 67.5t-84.5 116.5t-31 164zM330 352q0 -26 6 -53t20.5 -54.5t36 -49t55.5 -35t76 -13.5q96 0 148.5 74.5t52.5 227.5v59h-215q-82 0 -131 -41.5 t-49 -114.5zM336 1368q0 79 56.5 135t133.5 56q82 0 136.5 -54.5t54.5 -136.5q0 -78 -56 -134t-135 -56q-76 0 -133 56.5t-57 133.5zM422 1368q0 -41 31.5 -72.5t72.5 -31.5q42 0 73.5 29.5t31.5 74.5t-29 75t-76 30q-45 0 -74.5 -31.5t-29.5 -73.5z" />
<glyph unicode="&#xe6;" horiz-adv-x="1691" d="M82 346q0 77 22.5 136t60.5 96t94 60.5t116.5 32.5t134.5 9h211q-3 30 -10.5 58.5t-24 63t-39.5 59.5t-61.5 42t-87.5 17q-67 0 -232 -52q-41 -12 -53 4l-43 66q-19 29 2 53q34 37 136.5 69t217.5 32q212 0 326 -127q114 127 319 127q195 0 317 -113.5t122 -327.5 q0 -118 -48 -161.5t-176 -43.5h-419q6 -68 22 -120t45 -93.5t77 -63.5t114 -22q37 0 82 8.5t74 17t85 26.5q42 12 54 -4l43 -66q19 -29 -2 -53q-32 -37 -136.5 -69t-226.5 -32q-246 0 -367 144q-121 -144 -364 -144q-79 0 -147.5 23t-122 67.5t-84.5 116.5t-31 164zM330 352 q0 -26 6 -53t20.5 -54.5t36 -49t55.5 -35t76 -13.5q96 0 148.5 74.5t52.5 227.5v59h-215q-82 0 -131 -41.5t-49 -114.5zM967 618h315q49 0 64.5 12.5t15.5 57.5q0 94 -50.5 163t-129.5 69q-193 0 -215 -302z" />
<glyph unicode="&#xe7;" horiz-adv-x="980" d="M82 535q0 557 496 557q93 0 181 -33.5t126 -67.5q24 -20 2 -53l-43 -66q-13 -18 -53 -4q-7 3 -35 14t-49 18t-54.5 13.5t-64.5 6.5q-73 0 -125.5 -31.5t-81 -88t-41 -122.5t-12.5 -146q0 -82 13 -148t41 -121t80 -85.5t124 -30.5q23 0 44.5 2.5t46 9.5t36.5 11t41.5 15.5 t36.5 13.5q40 14 53 -4l43 -66q19 -29 -2 -53q-28 -33 -99.5 -62t-169.5 -37l-22 -88q68 -9 105.5 -50.5t37.5 -102.5q0 -81 -65.5 -136t-171.5 -55q-79 1 -84 9q-40 3 -37 45l2 36q3 42 43 39v-2h1h1h1h1h1h1h1h1h1h1h1h1h1h1h1h1h1h1h1h1h1h1h1h1h1h1h1h1h1h1h1h1h1h10 q65 0 98 21.5t33 56.5q0 28 -19 36t-77 13q-39 3 -27 58l29 120q-422 29 -422 558z" />
<glyph unicode="&#xe8;" horiz-adv-x="1056" d="M82 522q0 122 25 222.5t77.5 180t142 123.5t210.5 44q94 0 173 -27.5t138.5 -81t93 -138.5t33.5 -194q0 -118 -47.5 -161.5t-175.5 -43.5h-420q6 -68 22 -120t45 -93.5t77 -63.5t114 -22q37 0 82 8.5t74 17t85 26.5q42 12 54 -4l43 -66q19 -29 -2 -53q-32 -37 -136.5 -69 t-226.5 -32q-110 0 -195 30t-138.5 79.5t-87 121.5t-47 148.5t-13.5 167.5zM266 1487q-33 29 10 29h187q41 0 63 -35l123 -201q11 -19 6.5 -27t-26.5 -8h-64q-38 0 -71 29zM332 618h315q49 0 64.5 12.5t15.5 57.5q0 94 -50.5 163t-129.5 69q-193 0 -215 -302z" />
<glyph unicode="&#xe9;" horiz-adv-x="1056" d="M82 522q0 122 25 222.5t77.5 180t142 123.5t210.5 44q94 0 173 -27.5t138.5 -81t93 -138.5t33.5 -194q0 -118 -47.5 -161.5t-175.5 -43.5h-420q6 -68 22 -120t45 -93.5t77 -63.5t114 -22q37 0 82 8.5t74 17t85 26.5q42 12 54 -4l43 -66q19 -29 -2 -53q-32 -37 -136.5 -69 t-226.5 -32q-110 0 -195 30t-138.5 79.5t-87 121.5t-47 148.5t-13.5 167.5zM332 618h315q49 0 64.5 12.5t15.5 57.5q0 94 -50.5 163t-129.5 69q-193 0 -215 -302zM407.5 1253q-4.5 8 6.5 27l123 201q22 35 63 35h186q44 0 11 -29l-228 -213q-33 -29 -71 -29h-64 q-22 0 -26.5 8z" />
<glyph unicode="&#xea;" horiz-adv-x="1056" d="M82 522q0 122 25 222.5t77.5 180t142 123.5t210.5 44q94 0 173 -27.5t138.5 -81t93 -138.5t33.5 -194q0 -118 -47.5 -161.5t-175.5 -43.5h-420q6 -68 22 -120t45 -93.5t77 -63.5t114 -22q37 0 82 8.5t74 17t85 26.5q42 12 54 -4l43 -66q19 -29 -2 -53q-32 -37 -136.5 -69 t-226.5 -32q-110 0 -195 30t-138.5 79.5t-87 121.5t-47 148.5t-13.5 167.5zM237.5 1253q-3.5 8 8.5 25l147 205q23 33 66 33h139q43 0 66 -33l147 -205q12 -17 8.5 -25t-24.5 -8h-70q-41 0 -70 29l-127 127l-127 -127q-29 -29 -69 -29h-70q-21 0 -24.5 8zM332 618h315 q49 0 64.5 12.5t15.5 57.5q0 94 -50.5 163t-129.5 69q-193 0 -215 -302z" />
<glyph unicode="&#xeb;" horiz-adv-x="1056" d="M82 522q0 122 25 222.5t77.5 180t142 123.5t210.5 44q94 0 173 -27.5t138.5 -81t93 -138.5t33.5 -194q0 -118 -47.5 -161.5t-175.5 -43.5h-420q6 -68 22 -120t45 -93.5t77 -63.5t114 -22q37 0 82 8.5t74 17t85 26.5q42 12 54 -4l43 -66q19 -29 -2 -53q-32 -37 -136.5 -69 t-226.5 -32q-110 0 -195 30t-138.5 79.5t-87 121.5t-47 148.5t-13.5 167.5zM221 1290v144q0 22 9.5 31.5t31.5 9.5h144q22 0 31 -9.5t9 -31.5v-144q0 -22 -9 -31.5t-31 -9.5h-144q-22 0 -31.5 9.5t-9.5 31.5zM332 618h315q49 0 64.5 12.5t15.5 57.5q0 94 -50.5 163 t-129.5 69q-193 0 -215 -302zM610 1290v144q0 22 9.5 31.5t31.5 9.5h144q22 0 31.5 -9.5t9.5 -31.5v-144q0 -22 -9.5 -31.5t-31.5 -9.5h-144q-22 0 -31.5 9.5t-9.5 31.5z" />
<glyph unicode="&#xec;" horiz-adv-x="450" d="M-47 1487q-33 29 10 29h187q41 0 63 -35l123 -201q10 -19 5.5 -27t-26.5 -8h-63q-39 0 -72 29zM102 41v983q0 22 9.5 31.5t31.5 9.5h164q22 0 31.5 -9.5t9.5 -31.5v-983q0 -22 -9.5 -31.5t-31.5 -9.5h-164q-22 0 -31.5 9.5t-9.5 31.5z" />
<glyph unicode="&#xed;" horiz-adv-x="450" d="M102 41v983q0 22 9.5 31.5t31.5 9.5h164q22 0 31.5 -9.5t9.5 -31.5v-983q0 -22 -9.5 -31.5t-31.5 -9.5h-164q-22 0 -31.5 9.5t-9.5 31.5zM108.5 1253q-4.5 8 6.5 27l123 201q22 35 63 35h186q44 0 11 -29l-228 -213q-33 -29 -71 -29h-64q-22 0 -26.5 8z" />
<glyph unicode="&#xee;" horiz-adv-x="450" d="M-65.5 1253q-3.5 8 8.5 25l147 205q23 33 66 33h139q42 0 65 -33l148 -205q12 -17 8.5 -25t-24.5 -8h-70q-41 0 -70 29l-127 127l-127 -127q-29 -29 -69 -29h-70q-21 0 -24.5 8zM102 41v983q0 22 9.5 31.5t31.5 9.5h164q22 0 31.5 -9.5t9.5 -31.5v-983q0 -22 -9.5 -31.5 t-31.5 -9.5h-164q-22 0 -31.5 9.5t-9.5 31.5z" />
<glyph unicode="&#xef;" horiz-adv-x="450" d="M-82 1290v144q0 22 9.5 31.5t31.5 9.5h143q22 0 31.5 -9.5t9.5 -31.5v-144q0 -22 -9.5 -31.5t-31.5 -9.5h-143q-22 0 -31.5 9.5t-9.5 31.5zM102 41v983q0 22 9.5 31.5t31.5 9.5h164q22 0 31.5 -9.5t9.5 -31.5v-983q0 -22 -9.5 -31.5t-31.5 -9.5h-164q-22 0 -31.5 9.5 t-9.5 31.5zM307 1290v144q0 22 9.5 31.5t31.5 9.5h144q22 0 31 -9.5t9 -31.5v-144q0 -22 -9 -31.5t-31 -9.5h-144q-22 0 -31.5 9.5t-9.5 31.5z" />
<glyph unicode="&#xf0;" horiz-adv-x="1167" d="M82 492q0 88 15 163t49.5 141.5t87.5 113t132 73.5t179 27q122 0 202 -53.5t119 -190.5q-3 295 -61 422l-96 -98q-29 -29 -58 0l-43 43q-28 29 0 57l107 108q-58 37 -146 37q-22 0 -31.5 9.5t-9.5 31.5v103q0 22 9.5 31.5t31.5 9.5q156 0 275 -90l84 83q28 29 57 0 l43 -43q28 -28 0 -57l-86 -88q143 -202 143 -575q0 -382 -133 -578.5t-372 -196.5q-131 0 -229 40t-155.5 112t-85.5 163.5t-28 201.5zM328 498q0 -338 270 -338q39 0 76.5 18t69.5 52.5t52 92t21 128.5q1 79 -9 140t-35 114t-74 81.5t-119 28.5q-74 0 -125.5 -24t-78 -69.5 t-37.5 -99t-11 -124.5z" />
<glyph unicode="&#xf1;" d="M102 41v983q0 22 9.5 31.5t31.5 9.5h103q21 0 28.5 -9t12.5 -32l20 -84h4q35 69 113 109.5t160 40.5q177 0 294 -108t117 -294v-647q0 -41 -39 -41h-168q-38 0 -38 41v577q0 62 -9.5 114t-30.5 95t-58.5 67t-88.5 24q-215 0 -215 -320v-557q0 -22 -9.5 -31.5t-31.5 -9.5 h-164q-22 0 -31.5 9.5t-9.5 31.5zM260 1280q3 91 46.5 147t133.5 56q42 0 135 -39q75 -33 82 -33q15 0 24 10.5t13.5 23.5t16.5 23.5t32 10.5h62q12 0 21.5 -10.5t9.5 -22.5q-2 -90 -45.5 -146.5t-133.5 -56.5q-27 0 -69 17q-18 7 -40.5 16l-37.5 15t-30.5 12t-25 9t-14.5 3 q-18 0 -30 -17t-24.5 -34t-31.5 -17h-61q-13 0 -23 10.5t-10 22.5z" />
<glyph unicode="&#xf2;" horiz-adv-x="1155" d="M82 530q0 97 13.5 176.5t48 152.5t89.5 123.5t142.5 80t202.5 29.5t202.5 -29.5t142 -79.5t89 -123.5t48 -152.5t13.5 -175q0 -97 -13.5 -176t-48 -151.5t-89.5 -122t-142 -78.5t-202 -29t-202.5 29t-142.5 78t-89.5 121.5t-48 151t-13.5 175.5zM319 1487q-33 29 11 29 h186q42 0 64 -35l122 -201q11 -19 6.5 -27t-26.5 -8h-64q-38 0 -71 29zM328 532q0 -66 6 -118t23 -101t44.5 -81.5t72 -52t104.5 -19.5t104.5 19.5t72 52t44 81.5t22.5 101t6 118q0 65 -6 117.5t-22.5 102t-44 82.5t-72 53t-104.5 20q-74 0 -125 -29t-77.5 -83.5t-37 -117 t-10.5 -145.5z" />
<glyph unicode="&#xf3;" horiz-adv-x="1155" d="M82 530q0 97 13.5 176.5t48 152.5t89.5 123.5t142.5 80t202.5 29.5t202.5 -29.5t142 -79.5t89 -123.5t48 -152.5t13.5 -175q0 -97 -13.5 -176t-48 -151.5t-89.5 -122t-142 -78.5t-202 -29t-202.5 29t-142.5 78t-89.5 121.5t-48 151t-13.5 175.5zM328 532q0 -66 6 -118 t23 -101t44.5 -81.5t72 -52t104.5 -19.5t104.5 19.5t72 52t44 81.5t22.5 101t6 118q0 65 -6 117.5t-22.5 102t-44 82.5t-72 53t-104.5 20q-74 0 -125 -29t-77.5 -83.5t-37 -117t-10.5 -145.5zM442.5 1253q-4.5 8 6.5 27l122 201q22 35 64 35h186q43 0 10 -29l-227 -213 q-33 -29 -72 -29h-63q-22 0 -26.5 8z" />
<glyph unicode="&#xf4;" horiz-adv-x="1155" d="M82 530q0 97 13.5 176.5t48 152.5t89.5 123.5t142.5 80t202.5 29.5t202.5 -29.5t142 -79.5t89 -123.5t48 -152.5t13.5 -175q0 -97 -13.5 -176t-48 -151.5t-89.5 -122t-142 -78.5t-202 -29t-202.5 29t-142.5 78t-89.5 121.5t-48 151t-13.5 175.5zM286.5 1253 q-3.5 8 8.5 25l147 205q23 33 66 33h139q43 0 66 -33l147 -205q12 -17 8.5 -25t-24.5 -8h-70q-40 0 -69 29l-127 127l-127 -127q-29 -29 -70 -29h-70q-21 0 -24.5 8zM328 532q0 -66 6 -118t23 -101t44.5 -81.5t72 -52t104.5 -19.5t104.5 19.5t72 52t44 81.5t22.5 101t6 118 q0 65 -6 117.5t-22.5 102t-44 82.5t-72 53t-104.5 20q-74 0 -125 -29t-77.5 -83.5t-37 -117t-10.5 -145.5z" />
<glyph unicode="&#xf5;" horiz-adv-x="1155" d="M82 530q0 97 13.5 176.5t48 152.5t89.5 123.5t142.5 80t202.5 29.5t202.5 -29.5t142 -79.5t89 -123.5t48 -152.5t13.5 -175q0 -97 -13.5 -176t-48 -151.5t-89.5 -122t-142 -78.5t-202 -29t-202.5 29t-142.5 78t-89.5 121.5t-48 151t-13.5 175.5zM289 1280q3 91 46.5 147 t133.5 56q42 0 135 -39q75 -33 82 -33q15 0 24 10.5t13.5 23.5t16.5 23.5t32 10.5h62q12 0 21 -10.5t9 -22.5q-2 -91 -45 -147t-133 -56q-28 0 -70 17q-23 9 -62.5 25t-58.5 23t-26 7q-18 0 -30 -17t-24.5 -34t-31.5 -17h-61q-13 0 -23 10.5t-10 22.5zM328 532q0 -66 6 -118 t23 -101t44.5 -81.5t72 -52t104.5 -19.5t104.5 19.5t72 52t44 81.5t22.5 101t6 118q0 65 -6 117.5t-22.5 102t-44 82.5t-72 53t-104.5 20q-74 0 -125 -29t-77.5 -83.5t-37 -117t-10.5 -145.5z" />
<glyph unicode="&#xf6;" horiz-adv-x="1155" d="M82 530q0 97 13.5 176.5t48 152.5t89.5 123.5t142.5 80t202.5 29.5t202.5 -29.5t142 -79.5t89 -123.5t48 -152.5t13.5 -175q0 -97 -13.5 -176t-48 -151.5t-89.5 -122t-142 -78.5t-202 -29t-202.5 29t-142.5 78t-89.5 121.5t-48 151t-13.5 175.5zM270 1290v144 q0 22 9.5 31.5t31.5 9.5h144q22 0 31.5 -9.5t9.5 -31.5v-144q0 -22 -9.5 -31.5t-31.5 -9.5h-144q-22 0 -31.5 9.5t-9.5 31.5zM328 532q0 -66 6 -118t23 -101t44.5 -81.5t72 -52t104.5 -19.5t104.5 19.5t72 52t44 81.5t22.5 101t6 118q0 65 -6 117.5t-22.5 102t-44 82.5 t-72 53t-104.5 20q-74 0 -125 -29t-77.5 -83.5t-37 -117t-10.5 -145.5zM659 1290v144q0 22 9.5 31.5t31.5 9.5h144q22 0 31.5 -9.5t9.5 -31.5v-144q0 -22 -9.5 -31.5t-31.5 -9.5h-144q-22 0 -31.5 9.5t-9.5 31.5z" />
<glyph unicode="&#xf8;" horiz-adv-x="1155" d="M74 92l78 92q-70 132 -70 346q0 97 13.5 176.5t48 152.5t89.5 123.5t142.5 80t202.5 29.5q169 0 282 -66l60 70q25 32 59 6l78 -66q33 -26 4 -59l-70 -82q82 -136 82 -363q0 -97 -13.5 -176t-48 -151.5t-89.5 -122t-142 -78.5t-202 -29q-186 0 -299 74l-64 -76 q-25 -32 -59 -6l-78 66q-33 26 -4 59zM328 532q0 -76 8 -131l387 461q-54 45 -145 45q-74 0 -125 -29t-77.5 -83.5t-37 -117t-10.5 -145.5zM418 215q58 -55 160 -55q60 0 104.5 19.5t72 52t44 81.5t22.5 101t6 118q0 84 -12 154z" />
<glyph unicode="&#xf9;" d="M102 377v647q0 41 39 41h168q39 0 39 -41v-578q0 -85 16.5 -149t60 -107t110.5 -43q215 0 215 320v557q0 22 9.5 31.5t31.5 9.5h163q22 0 31.5 -9.5t9.5 -31.5v-983q0 -22 -9.5 -31.5t-31.5 -9.5h-102q-21 0 -28.5 9t-12.5 32l-20 84h-5q-35 -69 -112.5 -109.5 t-159.5 -40.5q-177 0 -294.5 108t-117.5 294zM276 1487q-33 29 11 29h186q42 0 64 -35l122 -201q11 -19 6.5 -27t-26.5 -8h-64q-38 0 -71 29z" />
<glyph unicode="&#xfa;" d="M102 377v647q0 41 39 41h168q39 0 39 -41v-578q0 -85 16.5 -149t60 -107t110.5 -43q215 0 215 320v557q0 22 9.5 31.5t31.5 9.5h163q22 0 31.5 -9.5t9.5 -31.5v-983q0 -22 -9.5 -31.5t-31.5 -9.5h-102q-21 0 -28.5 9t-12.5 32l-20 84h-5q-35 -69 -112.5 -109.5 t-159.5 -40.5q-177 0 -294.5 108t-117.5 294zM432.5 1253q-4.5 8 5.5 27l123 201q22 35 64 35h186q43 0 10 -29l-227 -213q-33 -29 -72 -29h-63q-22 0 -26.5 8z" />
<glyph unicode="&#xfb;" d="M102 377v647q0 41 39 41h168q39 0 39 -41v-578q0 -85 16.5 -149t60 -107t110.5 -43q215 0 215 320v557q0 22 9.5 31.5t31.5 9.5h163q22 0 31.5 -9.5t9.5 -31.5v-983q0 -22 -9.5 -31.5t-31.5 -9.5h-102q-21 0 -28.5 9t-12.5 32l-20 84h-5q-35 -69 -112.5 -109.5 t-159.5 -40.5q-177 0 -294.5 108t-117.5 294zM257.5 1253q-3.5 8 8.5 25l148 205q23 33 65 33h139q43 0 66 -33l147 -205q12 -17 8.5 -25t-24.5 -8h-70q-40 0 -69 29l-127 127l-127 -127q-29 -29 -70 -29h-69q-22 0 -25.5 8z" />
<glyph unicode="&#xfc;" d="M102 377v647q0 41 39 41h168q39 0 39 -41v-578q0 -85 16.5 -149t60 -107t110.5 -43q215 0 215 320v557q0 22 9.5 31.5t31.5 9.5h163q22 0 31.5 -9.5t9.5 -31.5v-983q0 -22 -9.5 -31.5t-31.5 -9.5h-102q-21 0 -28.5 9t-12.5 32l-20 84h-5q-35 -69 -112.5 -109.5 t-159.5 -40.5q-177 0 -294.5 108t-117.5 294zM242 1290v144q0 22 9.5 31.5t31.5 9.5h143q22 0 31.5 -9.5t9.5 -31.5v-144q0 -22 -9.5 -31.5t-31.5 -9.5h-143q-22 0 -31.5 9.5t-9.5 31.5zM631 1290v144q0 22 9.5 31.5t31.5 9.5h143q22 0 31.5 -9.5t9.5 -31.5v-144 q0 -22 -9.5 -31.5t-31.5 -9.5h-143q-22 0 -31.5 9.5t-9.5 31.5z" />
<glyph unicode="&#xfd;" horiz-adv-x="1073" d="M27 1028q-18 37 24 37h189q41 0 53 -39l248 -782l250 782q14 39 55 39h176q43 0 25 -37l-562 -1442q-18 -37 -57 -37h-182q-43 0 -25 37l193 430zM333.5 1253q-4.5 8 6.5 27l123 201q22 35 63 35h187q43 0 10 -29l-227 -213q-33 -29 -72 -29h-64q-22 0 -26.5 8z" />
<glyph unicode="&#xfe;" horiz-adv-x="1189" d="M102 -410v1885q0 22 9.5 31.5t31.5 9.5h164q22 0 31.5 -9.5t9.5 -31.5v-533h4q87 150 275 150q80 0 148.5 -17t131 -57.5t106 -102.5t69.5 -158.5t26 -219.5q0 -124 -25.5 -221.5t-69.5 -160.5t-106.5 -104.5t-131 -58.5t-148.5 -17q-188 0 -275 150h-4v-535 q0 -22 -9.5 -31.5t-31.5 -9.5h-164q-22 0 -31.5 9.5t-9.5 31.5zM348 537q0 -203 62 -296.5t182 -93.5q67 0 113 16.5t83.5 58.5t55.5 120t18 195q0 115 -18 192t-55.5 118t-83.5 57t-113 16q-120 0 -182 -91t-62 -292z" />
<glyph unicode="&#xff;" horiz-adv-x="1073" d="M27 1028q-18 37 24 37h189q41 0 53 -39l248 -782l250 782q14 39 55 39h176q43 0 25 -37l-562 -1442q-18 -37 -57 -37h-182q-43 0 -25 37l193 430zM229 1290v144q0 22 9.5 31.5t31.5 9.5h144q22 0 31.5 -9.5t9.5 -31.5v-144q0 -22 -9.5 -31.5t-31.5 -9.5h-144 q-22 0 -31.5 9.5t-9.5 31.5zM618 1290v144q0 22 9.5 31.5t31.5 9.5h144q22 0 31.5 -9.5t9.5 -31.5v-144q0 -22 -9.5 -31.5t-31.5 -9.5h-144q-22 0 -31.5 9.5t-9.5 31.5z" />
<glyph unicode="&#x152;" horiz-adv-x="1878" d="M82 737q0 187 55 334t153 239.5t228.5 140.5t286.5 48q117 0 215 -26q4 2 12 2h723q22 0 31.5 -9.5t9.5 -31.5v-103q0 -22 -9.5 -31.5t-31.5 -9.5h-506v-452h404q22 0 31.5 -9.5t9.5 -31.5v-103q0 -22 -9.5 -31.5t-31.5 -9.5h-404v-469h506q22 0 31.5 -9.5t9.5 -31.5 v-102q0 -22 -9.5 -31.5t-31.5 -9.5h-723h-14q-121 -25 -213 -25q-155 0 -285.5 48t-228.5 140.5t-153.5 239.5t-55.5 334zM352 737q0 -151 35.5 -263.5t99.5 -177t143 -95.5t175 -31q106 0 186 35v1065q-80 35 -186 35q-97 0 -176 -31t-142.5 -96t-99 -177.5t-35.5 -263.5z " />
<glyph unicode="&#x153;" horiz-adv-x="1802" d="M82 530q0 97 13.5 176.5t48 152.5t89.5 123.5t142.5 80t202.5 29.5q261 0 372 -185q108 185 332 185q94 0 173 -27.5t138.5 -81t93 -138.5t33.5 -194q0 -118 -47.5 -161.5t-175.5 -43.5h-420q6 -68 22 -120t45 -93.5t77 -63.5t114 -22q80 0 242 52q41 12 53 -4l43 -66 q19 -29 -2 -53q-32 -37 -136 -69t-226 -32q-251 0 -359 179q-110 -179 -372 -179q-115 0 -202.5 29t-142.5 78t-89.5 121.5t-48 151t-13.5 175.5zM328 532q0 -66 6 -118t23 -101t44.5 -81.5t72 -52t104.5 -19.5t104.5 19.5t72 52t44 81.5t22.5 101t6 118q0 65 -6 117.5 t-22.5 102t-44 82.5t-72 53t-104.5 20q-74 0 -125 -29t-77.5 -83.5t-37 -117t-10.5 -145.5zM1077 618h316q49 0 64.5 12.5t15.5 57.5q0 94 -51 163t-130 69q-193 0 -215 -302z" />
<glyph unicode="&#x178;" horiz-adv-x="1286" d="M22.5 1467q4.5 8 26.5 8h219q42 0 62 -35l327 -664l353 662q16 37 59 37h168q22 0 27 -8.5t-4 -28.5l-498 -899v-498q0 -22 -9.5 -31.5t-31.5 -9.5h-176q-22 0 -31.5 9.5t-9.5 31.5v498l-475 901q-11 19 -6.5 27zM336 1700v143q0 22 9.5 31.5t31.5 9.5h143 q22 0 31.5 -9.5t9.5 -31.5v-143q0 -22 -9.5 -31.5t-31.5 -9.5h-143q-22 0 -31.5 9.5t-9.5 31.5zM725 1700v143q0 22 9.5 31.5t31.5 9.5h143q22 0 31.5 -9.5t9.5 -31.5v-143q0 -22 -9.5 -31.5t-31.5 -9.5h-143q-22 0 -31.5 9.5t-9.5 31.5z" />
<glyph unicode="&#x2c6;" horiz-adv-x="770" d="M104.5 1253q-3.5 8 8.5 25l147 205q23 33 66 33h139q42 0 65 -33l148 -205q12 -17 8.5 -25t-24.5 -8h-70q-41 0 -70 29l-127 127l-127 -127q-29 -29 -69 -29h-70q-21 0 -24.5 8z" />
<glyph unicode="&#x2dc;" horiz-adv-x="780" d="M102 1280q3 91 47 147t134 56q42 0 135 -39q75 -33 82 -33q15 0 24 10.5t13.5 23.5t16.5 23.5t32 10.5h61q12 0 21.5 -10.5t9.5 -22.5q-2 -91 -45 -147t-133 -56q-28 0 -70 17q-23 9 -62.5 25t-58.5 23t-26 7q-18 0 -30 -17t-24.5 -34t-31.5 -17h-62q-13 0 -23 10.5 t-10 22.5z" />
<glyph unicode="&#x2000;" horiz-adv-x="984" />
<glyph unicode="&#x2001;" horiz-adv-x="1968" />
<glyph unicode="&#x2002;" horiz-adv-x="984" />
<glyph unicode="&#x2003;" horiz-adv-x="1968" />
<glyph unicode="&#x2004;" horiz-adv-x="656" />
<glyph unicode="&#x2005;" horiz-adv-x="492" />
<glyph unicode="&#x2006;" horiz-adv-x="328" />
<glyph unicode="&#x2007;" horiz-adv-x="328" />
<glyph unicode="&#x2008;" horiz-adv-x="246" />
<glyph unicode="&#x2009;" horiz-adv-x="393" />
<glyph unicode="&#x200a;" horiz-adv-x="109" />
<glyph unicode="&#x2010;" horiz-adv-x="757" d="M102 694v103q0 22 9.5 31.5t31.5 9.5h471q22 0 31.5 -9.5t9.5 -31.5v-103q0 -22 -9.5 -31.5t-31.5 -9.5h-471q-22 0 -31.5 9.5t-9.5 31.5z" />
<glyph unicode="&#x2011;" horiz-adv-x="757" d="M102 694v103q0 22 9.5 31.5t31.5 9.5h471q22 0 31.5 -9.5t9.5 -31.5v-103q0 -22 -9.5 -31.5t-31.5 -9.5h-471q-22 0 -31.5 9.5t-9.5 31.5z" />
<glyph unicode="&#x2012;" horiz-adv-x="757" d="M102 694v103q0 22 9.5 31.5t31.5 9.5h471q22 0 31.5 -9.5t9.5 -31.5v-103q0 -22 -9.5 -31.5t-31.5 -9.5h-471q-22 0 -31.5 9.5t-9.5 31.5z" />
<glyph unicode="&#x2013;" horiz-adv-x="1228" d="M102 694v103q0 22 17.5 31.5t58.5 9.5h872q41 0 58.5 -9.5t17.5 -31.5v-103q0 -22 -17.5 -31.5t-58.5 -9.5h-872q-41 0 -58.5 9.5t-17.5 31.5z" />
<glyph unicode="&#x2014;" horiz-adv-x="2252" d="M102 694v103q0 22 35 31.5t117 9.5h1744q82 0 117 -9.5t35 -31.5v-103q0 -22 -35 -31.5t-117 -9.5h-1744q-82 0 -117 9.5t-35 31.5z" />
<glyph unicode="&#x202f;" horiz-adv-x="393" />
<glyph unicode="&#x205f;" horiz-adv-x="492" />
<glyph unicode="&#x20ac;" horiz-adv-x="1327" d="M41 522v90q0 22 9.5 31.5t31.5 9.5h143q-2 27 -2 84q0 68 2 101h-143q-22 0 -31.5 9.5t-9.5 31.5v90q0 22 9.5 31.5t31.5 9.5h170q57 239 209.5 364t361.5 125q122 0 243 -33.5t167 -66.5q10 -9 10.5 -19.5t-8.5 -33.5l-33 -86q-12 -17 -53 -5q-197 50 -326 50 q-107 0 -186.5 -72t-116.5 -223h352q22 0 31.5 -9.5t9.5 -31.5v-90q0 -22 -9.5 -31.5t-31.5 -9.5h-376q-2 -33 -2 -101q0 -57 2 -84h376q22 0 31.5 -9.5t9.5 -31.5v-90q0 -22 -9.5 -31.5t-31.5 -9.5h-356q35 -161 115.5 -236t191.5 -75q133 0 326 49q41 13 53 -4l33 -76 q9 -28 8.5 -40.5t-10.5 -22.5q-46 -33 -167.5 -67t-242.5 -34q-211 0 -365 129.5t-208 376.5h-168q-22 0 -31.5 9.5t-9.5 31.5z" />
<glyph unicode="&#x25fc;" horiz-adv-x="1064" d="M0 0v1065h1065v-1065h-1065z" />
</font>
</defs>
</svg>
