<?xml version="1.0" standalone="no"?>
<!DOCTYPE svg PUBLIC "-//W3C//DTD SVG 1.1//EN" "http://www.w3.org/Graphics/SVG/1.1/DTD/svg11.dtd" >
<svg xmlns="http://www.w3.org/2000/svg">
<metadata></metadata>
<defs>
<font id="designosauritalic" horiz-adv-x="1189" >
<font-face units-per-em="2048" ascent="1536" descent="-512" />
<missing-glyph horiz-adv-x="614" />
<glyph horiz-adv-x="2048" />
<glyph horiz-adv-x="2048" />
<glyph unicode="&#xd;" horiz-adv-x="614" />
<glyph unicode=" "  horiz-adv-x="614" />
<glyph unicode="&#x09;" horiz-adv-x="614" />
<glyph unicode="&#xa0;" horiz-adv-x="614" />
<glyph unicode="!" horiz-adv-x="462" d="M106 41l25 164q6 41 45 41h176q43 0 37 -41l-24 -164q-6 -41 -46 -41h-176q-43 0 -37 41zM211 492l92 942q2 41 47 41h176q43 0 35 -41l-174 -942q-8 -41 -47 -41h-94q-23 0 -30 9t-5 32z" />
<glyph unicode="&#x22;" horiz-adv-x="712" d="M258 1106l27 328q2 41 47 41h135q43 0 35 -41l-68 -328q-4 -23 -13 -32t-32 -9h-94q-39 0 -37 41zM586 1106l26 328q2 41 47 41h136q43 0 34 -41l-67 -328q-4 -23 -13.5 -32t-31.5 -9h-94q-39 0 -37 41z" />
<glyph unicode="#" horiz-adv-x="1165" d="M121 88l155 381h-88q-39 0 -36 41l16 102q2 41 45 41h137l76 185h-107q-41 0 -34 41l14 102q6 41 47 41h156l168 412q14 41 53 28l94 -26q39 -8 23 -50l-150 -364h221l168 412q14 41 54 28l94 -26q39 -8 22 -50l-149 -364h86q41 0 35 -41l-15 -102q-6 -41 -47 -41h-135 l-76 -185h105q39 0 37 -41l-17 -102q-2 -41 -45 -41h-154l-176 -428q-14 -41 -53 -29l-94 27q-39 8 -21 49l156 381h-221l-176 -428q-14 -41 -53 -29l-95 27q-39 8 -20 49zM539 653h221l76 185h-222z" />
<glyph unicode="$" horiz-adv-x="1136" d="M107 178q2 10 14 33l45 86q6 12 22.5 10t30.5 -6q18 -6 56 -14t86.5 -15.5t100.5 -13.5t101 -6q129 0 214 42t95 109q4 31 -8 56.5t-35.5 47t-56.5 40t-65 31.5l-189 73q-68 27 -124 60.5t-94 80t-56.5 104.5t-7.5 132q10 78 48 141.5t96 112.5t133 81t159 44l20 149 q6 41 47 41h103q41 0 35 -41l-21 -143q59 -6 115.5 -17.5t102.5 -25.5t78 -28.5t44 -24.5q10 -8 8 -18.5t-14 -34.5l-45 -86q-6 -12 -21.5 -10.5t-31.5 6.5q-18 6 -54.5 14t-80.5 15t-93 13.5t-96 6.5q-80 0 -133 -16.5t-87 -41t-50.5 -54.5t-20.5 -56q-4 -20 1 -41 t21.5 -40.5t48.5 -39t83 -37.5l186 -68q86 -33 146.5 -77.5t97.5 -98t49 -112t4 -117.5q-23 -145 -142.5 -237.5t-303.5 -118.5l-21 -150q-6 -41 -47 -41h-102q-41 0 -35 41l20 141q-61 4 -120.5 15.5t-109.5 25t-87 29.5t-51 29q-10 10 -8 20z" />
<glyph unicode="%" horiz-adv-x="1449" d="M211 137l1102 1307q25 33 57 10l76 -59q31 -25 2 -58l-1100 -1306q-29 -33 -59 -11l-76 60q-31 25 -2 57zM256 942q-12 72 2 168q27 193 120 287t212 94q59 0 107 -23.5t79 -70.5t42 -119t-1 -168q-29 -193 -122 -287t-212 -94q-59 0 -106 23.5t-78 70.5t-43 119z M436 1110q-16 -111 7.5 -155t64.5 -44t78 44t53 155q14 109 -10.5 153t-65.5 44t-75.5 -43t-51.5 -154zM836.5 190.5q-11.5 71.5 1.5 167.5q29 193 120.5 287t210.5 94t186.5 -94t41.5 -287q-27 -193 -121 -287t-213 -94q-59 0 -106.5 24t-78 71t-42 118.5zM1016 358 q-16 -111 7.5 -154.5t63.5 -43.5q41 0 78 44t54 154q14 109 -9.5 153t-64.5 44t-77 -43t-52 -154z" />
<glyph unicode="&#x26;" horiz-adv-x="1460" d="M129 344q14 94 58 171t108.5 139.5t145.5 113.5t169 96l-43 60q-35 59 -50 128.5t-5 149.5q8 68 43 121t89 91t125 58.5t151 20.5q180 0 277 -77t81 -202q-10 -70 -44 -128t-81 -108t-104.5 -92t-114.5 -75l143 -281l223 183q35 31 56 -6l78 -125q20 -33 -15 -60 l-235 -182l172 -307q20 -33 -21 -33h-229q-43 0 -59 35l-78 139q-133 -102 -238.5 -146t-218.5 -44q-102 0 -179 27.5t-126 76.5t-68.5 114.5t-9.5 141.5zM387 352q-10 -66 32 -115t122 -49q70 0 154.5 51.5t172.5 120.5l-159 322q-143 -78 -225.5 -153.5t-96.5 -176.5z M768 1206q-6 -49 12.5 -101t53.5 -118q76 51 127 105.5t61 119.5q6 43 -29 71t-100 28q-41 0 -79 -24.5t-46 -80.5z" />
<glyph unicode="'" horiz-adv-x="385" d="M258 1106l27 328q2 41 47 41h135q43 0 35 -41l-68 -328q-4 -23 -13 -32t-32 -9h-94q-39 0 -37 41z" />
<glyph unicode="(" horiz-adv-x="761" d="M168 332q-16 174 16 407q33 233 98.5 407.5t151.5 289t189.5 171t214.5 56.5h55q41 0 35 -41l-17 -115q-6 -41 -47 -41q-74 0 -136 -33.5t-112.5 -116.5t-90.5 -223.5t-70 -355.5q-31 -213 -30 -353t28.5 -223t80 -116t125.5 -33q43 0 37 -41l-16 -114q-6 -41 -47 -41 h-55q-111 0 -198 56t-141.5 171t-70.5 289z" />
<glyph unicode=")" horiz-adv-x="761" d="M41 -143l16 114q6 41 45 41q74 0 136.5 33t112.5 116t90 223t71 353q31 215 30 355.5t-29 223.5t-80 116.5t-126 33.5q-41 0 -35 41l17 115q6 41 47 41h55q111 0 198 -56.5t141 -171t69.5 -288.5t-17.5 -408q-33 -233 -97 -407t-151.5 -289t-189.5 -171t-213 -56h-55 q-41 0 -35 41z" />
<glyph unicode="*" horiz-adv-x="876" d="M287 1288l20 49q18 39 55 25l197 -78l27 232q2 41 43 40h53q23 0 30 -9t5 -31l-39 -232l217 78q41 14 47 -25l8 -49q6 -39 -37 -51l-219 -63l121 -181q20 -31 -18 -55l-47 -27q-37 -20 -56 13l-100 184l-154 -184q-29 -31 -59 -13l-39 27q-33 25 -2 55l170 181l-203 63 q-39 12 -20 51z" />
<glyph unicode="+" horiz-adv-x="921" d="M178 694l15 103q6 41 47 41h245l35 245q6 41 47 41h103q41 0 35 -41l-35 -245h245q41 0 35 -41l-14 -103q-6 -41 -47 -41h-246l-35 -245q-2 -41 -45 -41h-102q-39 0 -37 41l35 245h-246q-41 0 -35 41z" />
<glyph unicode="," horiz-adv-x="491" d="M106 41l29 205q6 41 47 41h205q41 0 35 -41l-33 -236q-6 -51 -23.5 -100t-39 -90t-43 -72t-37.5 -45q-10 -10 -22.5 -13t-30.5 11l-60 43q-10 8 -7 23.5t11 29.5q14 31 42 83t38 120h-74q-43 0 -37 41z" />
<glyph unicode="-" horiz-adv-x="757" d="M199 694l14 103q6 41 47 41h471q41 0 35 -41l-14 -103q-6 -41 -47 -41h-472q-41 0 -34 41z" />
<glyph unicode="." horiz-adv-x="491" d="M106 41l29 205q6 41 47 41h205q41 0 35 -41l-29 -205q-6 -41 -45 -41h-205q-43 0 -37 41z" />
<glyph unicode="/" horiz-adv-x="897" d="M33 53l878 1446q25 39 60 21l86 -43q35 -18 12 -56l-879 -1446q-23 -37 -59 -20l-86 43q-35 18 -12 55z" />
<glyph unicode="0" horiz-adv-x="1282" d="M181.5 402.5q-23.5 142.5 2.5 334.5q27 193 90.5 335t151.5 237.5t196.5 142.5t227.5 47t214 -47t157.5 -142.5t85 -237.5t-3.5 -335q-27 -193 -90.5 -335t-152.5 -237t-197.5 -142.5t-225.5 -47.5t-213 47.5t-157.5 142.5t-85 237.5zM440.5 473q8.5 -108 38 -176 t77.5 -97.5t108 -29.5q59 0 116.5 29.5t106.5 97.5t86 176.5t59 263.5q23 156 15.5 264.5t-37 176t-79 97.5t-108.5 30t-116.5 -30t-105.5 -97.5t-86 -176t-60 -264.5q-23 -156 -14.5 -264z" />
<glyph unicode="1" horiz-adv-x="671" d="M172 1081l16 115q6 43 45 59l508 232q39 18 33 -23l-201 -1423q-6 -41 -45 -41h-174q-43 0 -37 41l160 1133l-272 -117q-39 -16 -33 24z" />
<glyph unicode="2" horiz-adv-x="1040" d="M100 41l9 57q4 16 10 37t22 41l527 664q6 8 30.5 34.5t51 65.5t51 86t30.5 96q4 35 -2 68t-26.5 58.5t-54 41t-82.5 15.5q-33 0 -76 -5.5t-86 -13.5t-83 -16t-67 -15q-51 -12 -53 5l-20 86q-6 25 -4 34t12 19q18 12 64 29.5t105.5 33t128 26.5t134.5 11q86 0 158.5 -22.5 t125 -68.5t78 -116.5t15.5 -167.5q-10 -90 -46 -165.5t-108 -153.5l-582 -621h580q41 0 35 -41l-14 -102q-6 -41 -45 -41h-781q-43 0 -37 41z" />
<glyph unicode="3" horiz-adv-x="1089" d="M95 96q1 10 14 33l45 86q6 12 22.5 10t32.5 -6q18 -6 57 -14t86 -15.5t97.5 -13.5t95.5 -6q41 0 83 17.5t76.5 53t61.5 88t37 122.5q23 137 -36.5 218t-172.5 79h-51q-41 0 -35 40l6 43q6 43 33 76l268 383h-477q-41 0 -35 41l14 103q6 41 48 41h739q41 0 35 -41l-9 -58 q-4 -16 -9 -36.5t-21 -41.5l-338 -389q82 -12 145.5 -49t104.5 -94t56 -133t3 -168q-14 -106 -65.5 -195.5t-126 -155t-168 -102.5t-191.5 -37q-66 0 -132 10.5t-123.5 26t-100.5 32.5t-60 32q-10 10 -9 20z" />
<glyph unicode="4" horiz-adv-x="1183" d="M135 393l4 21q4 23 10.5 40t22.5 33l762 955q31 33 70 33h135q41 0 35 -41l-127 -899h129q41 0 34 -41l-14 -101q-2 -41 -45 -41h-129l-45 -311q-6 -41 -45 -41h-176q-43 0 -37 41l45 311h-592q-39 0 -37 41zM453 535h335l76 536h-4z" />
<glyph unicode="5" horiz-adv-x="1077" d="M95 96q1 10 14 33l45 86q6 12 22.5 10t32.5 -6q18 -6 57 -14t86 -15.5t97.5 -13.5t95.5 -6q39 0 78 16.5t72.5 52t59 91t38.5 133.5q8 57 1.5 109.5t-26.5 91t-54 61.5t-79 23q-35 0 -75 -4.5t-74.5 -9.5t-63.5 -11t-43 -8q-23 -4 -38 2t-30 22l-10 11q-27 25 -16 69 l118 615q8 41 50 41h604q41 0 35 -41l-15 -103q-6 -41 -47 -41h-473l-70 -368q47 10 89 15t88 5q80 0 157.5 -29.5t136 -89t89 -148.5t14.5 -208q-16 -104 -63.5 -194.5t-120 -156t-163.5 -103.5t-194 -38q-66 0 -132 10.5t-123.5 26t-100.5 32.5t-60 32q-10 10 -9 20z" />
<glyph unicode="6" horiz-adv-x="1126" d="M184 729q27 197 86.5 341t141.5 239.5t183 142.5t212 47q61 0 124.5 -13t116 -32.5t84 -40t29.5 -35.5q0 -12 -12 -32l-45 -86q-8 -10 -23 -11q2 0 -25.5 8.5t-71.5 19.5t-96 19.5t-97 8.5q-66 0 -126.5 -28t-109.5 -92.5t-88 -172t-61 -267.5q29 74 65.5 121t79.5 75 t90 38t98 10q123 0 202 -40t122 -107.5t53 -157.5t-4 -192q-14 -106 -53 -200.5t-105.5 -164.5t-164 -111t-226.5 -41q-225 0 -328.5 187.5t-50.5 566.5zM389 430q-8 -68 5.5 -116t40 -80.5t63.5 -48t73 -15.5q76 0 128.5 27.5t87 73.5t53 105.5t28.5 121.5q8 61 6 115.5 t-22.5 94.5t-62 63.5t-111.5 23.5q-74 0 -124 -30t-84 -80t-53.5 -115.5t-27.5 -139.5z" />
<glyph unicode="7" horiz-adv-x="987" d="M223 39l606 1251h-546q-41 0 -35 41l14 103q6 41 47 41h783q41 0 34 -41l-10 -74q-4 -23 -12 -39t-21 -39l-587 -1243q-18 -39 -58 -39h-190q-43 0 -25 39z" />
<glyph unicode="8" horiz-adv-x="1175" d="M141 424q18 135 107.5 234.5t243.5 152.5q-109 47 -159 122t-34 185q12 84 48 154.5t97.5 121t148.5 78t204 27.5t196.5 -27.5t126.5 -78t63.5 -120t4.5 -153.5q-14 -106 -85 -183t-194 -126q135 -53 198.5 -151.5t43.5 -237.5q-29 -217 -178.5 -332t-388.5 -115 q-248 0 -360.5 116t-82.5 333zM397 430q-16 -123 47.5 -192.5t165.5 -69.5q51 0 99.5 17.5t87.5 51t65.5 82t34.5 109.5q8 63 -4 115.5t-42 87.5t-72 54.5t-93 19.5t-99 -19.5t-87 -55.5t-66.5 -86t-36.5 -114zM555 1120q-6 -43 3 -81t30.5 -66.5t53.5 -46t73 -17.5 q37 0 73.5 16.5t66.5 44t50.5 66.5t26.5 84q12 86 -37 136.5t-127 50.5q-82 0 -142.5 -54.5t-70.5 -132.5z" />
<glyph unicode="9" horiz-adv-x="1126" d="M170 96q2 6 4 14.5t8 18.5l45 86q8 10 23 10q-4 0 24.5 -8t72.5 -19.5t96.5 -19.5t97.5 -8q66 0 126 27.5t110 92t88 172t63 267.5q-31 -74 -68 -121t-79 -74.5t-90 -38t-99 -10.5q-123 0 -202 40t-122 107.5t-53 158t4 192.5q14 106 53 200.5t105.5 164t164 110.5 t226.5 41q225 0 328.5 -188.5t52.5 -565.5q-29 -197 -87 -342t-141 -240t-184.5 -141.5t-212.5 -46.5q-61 0 -124.5 13.5t-116 33t-84 40t-29.5 34.5zM457 861.5q2 -54.5 22.5 -94.5t61.5 -63.5t112 -23.5q68 0 114 29.5t78 80t49 116t28 138.5q8 68 -3.5 116t-36 81 t-57 48.5t-65.5 15.5q-76 0 -128 -28t-86 -74t-53.5 -105.5t-27.5 -120.5q-10 -61 -8 -115.5z" />
<glyph unicode=":" horiz-adv-x="491" d="M106 41l29 205q6 41 47 41h205q41 0 35 -41l-29 -205q-6 -41 -45 -41h-205q-43 0 -37 41zM201 705l28 204q6 41 47 41h205q41 0 35 -41l-29 -204q-6 -41 -47 -41h-204q-41 0 -35 41z" />
<glyph unicode=";" horiz-adv-x="491" d="M106 41l29 205q6 41 47 41h205q41 0 35 -41l-33 -236q-6 -51 -23.5 -100t-39 -90t-43 -72t-37.5 -45q-10 -10 -22.5 -13t-30.5 11l-60 43q-10 8 -7 23.5t11 29.5q14 31 42 83t38 120h-74q-43 0 -37 41zM201 705l28 204q6 41 47 41h205q41 0 35 -41l-29 -204 q-6 -41 -47 -41h-204q-41 0 -35 41z" />
<glyph unicode="&#x3c;" horiz-adv-x="1241" d="M203 715l6 57q6 39 45 57l1024 433q39 16 33 -25l-15 -111q-6 -41 -45 -57l-770 -326l678 -325q35 -16 29 -58l-14 -110q-6 -43 -41 -25l-902 432q-35 16 -28 58z" />
<glyph unicode="=" horiz-adv-x="995" d="M152 500l12 90q6 41 47 41h750q41 0 34 -41l-12 -90q-6 -41 -47 -41h-750q-41 0 -34 41zM207 897l12 90q6 41 47 41h750q41 0 35 -41l-13 -90q-6 -41 -47 -41h-749q-41 0 -35 41z" />
<glyph unicode="&#x3e;" horiz-adv-x="1241" d="M137 250l15 110q6 41 45 58l772 325l-680 326q-35 16 -29 57l14 111q6 43 41 25l902 -433q35 -16 28 -57l-6 -57q-6 -39 -45 -58l-1024 -432q-39 -16 -33 25z" />
<glyph unicode="?" horiz-adv-x="1040" d="M277 1380q2 9 12 19q18 12 64 29.5t105.5 33t128 26.5t134.5 11q80 0 152.5 -20.5t125 -64.5t80 -115.5t19.5 -174.5q-18 -184 -154 -319q-8 -8 -43 -36t-75 -66.5t-74.5 -86t-40.5 -96.5l-4 -28q-6 -41 -48 -41h-176q-41 0 -34 41l4 28q6 45 23.5 84t44 76t63.5 75 t84 85q6 6 30.5 33.5t51 66.5t51 86t30.5 96q4 35 -2 68t-26.5 58.5t-55 41t-85.5 15.5q-31 0 -73 -5.5t-85 -13.5t-83 -16t-67 -15q-29 -6 -40 -6t-13 11l-20 86q-6 25 -4 34zM385 41l25 164q6 41 45 41h176q43 0 37 -41l-25 -164q-6 -41 -45 -41h-176q-43 0 -37 41z" />
<glyph unicode="@" horiz-adv-x="1671" d="M158 547q27 186 102.5 326.5t193 233.5t274.5 140t345 47q166 0 290 -38.5t201.5 -125t104.5 -224.5t0 -337q-16 -106 -43 -189t-76 -141.5t-123.5 -89t-183.5 -30.5q-72 0 -108.5 11t-53 26.5t-17.5 30t-3 20.5l-19 63h-4q-27 -41 -50 -70.5t-51 -48t-59.5 -26.5 t-72.5 -8q-66 0 -123 21.5t-98 70.5t-58.5 129t-1.5 197t56.5 195.5t94.5 127.5t118.5 69.5t130.5 20.5q74 0 115.5 -31.5t72.5 -121.5h4l33 86q8 23 16.5 32t30.5 9h102q41 0 35 -41l-80 -574q-2 -10 4.5 -17t28.5 -7q37 0 63.5 20.5t44 55t28 84t18.5 106.5 q25 170 13.5 283.5t-58.5 182t-131 97.5t-203 29q-289 0 -462 -146.5t-214 -437.5q-23 -158 6 -269.5t99.5 -183t179 -105.5t243.5 -34q59 0 123 5t123.5 13.5t110.5 16.5t86 14t43 6t10 -10l23 -76q8 -29 5 -41t-16 -22q-23 -16 -80 -33.5t-134 -32t-165 -24.5t-174 -10 q-174 0 -317 46t-239.5 142t-139.5 241.5t-14 346.5zM763 413q3 -48 17.5 -76t40 -38t60.5 -10q82 0 131 56t67 192q18 133 -14.5 186t-114.5 53q-35 0 -63.5 -10t-51 -38t-39 -74t-26.5 -119q-10 -74 -7 -122z" />
<glyph unicode="A" horiz-adv-x="1376" d="M26 9q-3 3 -3 8q0 8 8 20l755 1401q20 37 64 37h90q41 0 51 -37l363 -1401q3 -8 3 -15q0 -22 -32 -22h-195q-43 0 -51 39l-82 323h-581l-172 -323q-20 -39 -60 -39h-133q-17 0 -25 9zM508 535h446l-106 530l-21 154l-59 -154z" />
<glyph unicode="B" horiz-adv-x="1155" d="M106 41l197 1393q6 41 47 41h303q240 -1 365 -101q103 -83 103 -225q0 -31 -5 -64q-16 -111 -76.5 -186.5t-160.5 -120.5v-4q145 -23 209 -120q48 -73 47 -168q0 -32 -5 -66q-12 -90 -58 -166t-116.5 -133.5t-160.5 -89t-191 -31.5h-461q-38 0 -38 32q0 4 1 9zM383 172 h176q84 0 141.5 21.5t93 55.5t54 78t24.5 91q3 21 3 41q0 24 -4 48q-7 44 -34.5 80t-77.5 57.5t-130 21.5h-176zM477 838h123q45 0 88 16t78 48t59.5 77t32.5 102q3 21 3 40q0 73 -43 121q-54 61 -191 61h-84z" />
<glyph unicode="C" horiz-adv-x="1308" d="M184 737q27 193 102.5 335t186.5 237.5t249 142.5t292 47q68 0 131 -10t116.5 -25.5t92.5 -33t55 -31.5q9 -9 9 -19t-13 -34l-45 -86q-10 -10 -24.5 -9.5t-28.5 4.5q-47 12 -132 31t-188 19q-92 0 -179 -30t-157.5 -97.5t-122 -176t-73.5 -264.5q-12 -81 -12 -148 q1 -63 11 -116q22 -108 74 -176t129.5 -97.5t169.5 -29.5q102 0 192.5 18.5t141.5 30.5q14 4 29.5 5t21.5 -9l23 -76q6 -29 4 -41t-14 -22q-23 -14 -66 -31.5t-100.5 -33t-124 -26t-133.5 -10.5q-154 0 -279 47.5t-209 142.5q-83 95 -119 237q-20 82 -21 182q0 72 11 153z " />
<glyph unicode="D" horiz-adv-x="1320" d="M106 41l197 1393q6 41 47 41h471q125 0 230.5 -54.5t178.5 -152.5q72 -97 104 -231q18 -77 18 -164q0 -63 -9 -130q-23 -160 -95 -295t-176.5 -234t-235.5 -155.5t-271 -58.5h-422q-38 0 -38 32q0 4 1 9zM385 184h203q88 0 169 43t145.5 120t109.5 180.5t61 226.5 q7 54 7 105q0 60 -10 113q-19 99 -66.5 169.5t-119 109.5t-157.5 39h-186z" />
<glyph unicode="E" horiz-adv-x="989" d="M106 41l197 1393q6 41 47 41h723q36 0 36 -31q0 -5 -1 -10l-14 -103q-6 -41 -47 -41h-506l-64 -452h404q41 0 34 -41l-14 -103q-6 -41 -47 -41h-403l-66 -469h506q36 0 36 -31q0 -5 -1 -10l-15 -102q-6 -41 -45 -41h-723q-38 0 -38 32q0 4 1 9z" />
<glyph unicode="F" horiz-adv-x="989" d="M106 41l197 1393q6 41 47 41h723q36 0 36 -31q0 -5 -1 -10l-14 -103q-6 -41 -47 -41h-506l-64 -452h404q41 0 34 -41l-14 -103q-6 -41 -47 -41h-403l-86 -612q-6 -41 -46 -41h-176q-38 0 -38 32q0 4 1 9z" />
<glyph unicode="G" horiz-adv-x="1329" d="M184 737q27 193 102.5 335t186.5 237.5t249 142.5t292 47q68 0 131 -10t116.5 -25.5t92.5 -33t55 -31.5q9 -9 9 -19t-13 -34l-43 -76q-10 -10 -24.5 -9t-30.5 5q-47 12 -131 30.5t-187 18.5q-92 0 -179 -31t-158.5 -99.5t-123 -178t-73.5 -269.5q-12 -85 -12 -155 q0 -63 9 -114q21 -110 73.5 -178.5t130 -99t169.5 -30.5q86 0 164 12l68 481h-180q-36 0 -36 31q0 5 1 10l14 103q6 41 47 41h397q36 0 36 -31q0 -5 -1 -10l-96 -693q0 -16 -14 -28q-23 -14 -66 -31.5t-100.5 -33t-124 -26t-133.5 -10.5q-154 0 -279 47.5t-209 142.5 t-119 237q-21 83 -21 182q0 72 11 153z" />
<glyph unicode="H" horiz-adv-x="1247" d="M106 41l197 1393q6 41 47 41h176q36 0 36 -31q0 -5 -1 -10l-82 -586h527l81 586q6 41 48 41h176q36 0 36 -31q0 -5 -1 -10l-197 -1393q-6 -41 -45 -41h-176q-38 0 -38 32q0 4 1 9l88 623h-526l-88 -623q-6 -41 -46 -41h-176q-38 0 -38 32q0 4 1 9z" />
<glyph unicode="I" horiz-adv-x="462" d="M106 41l197 1393q6 41 47 41h176q36 0 36 -31q0 -5 -1 -10l-196 -1393q-6 -41 -46 -41h-176q-38 0 -38 32q0 4 1 9z" />
<glyph unicode="J" horiz-adv-x="729" d="M27 45l12 98q6 41 47 41h27q76 0 134 19.5t102 64.5t74 120t46 185l121 861q6 41 47 41h176q36 0 36 -31q0 -5 -1 -10l-127 -904q-41 -262 -196.5 -396t-389.5 -134q-35 0 -58.5 1t-19.5 1q-31 2 -31 31q0 5 1 12z" />
<glyph unicode="K" horiz-adv-x="1304" d="M106 41l197 1393q6 41 47 41h176q36 0 36 -31q0 -5 -1 -10l-88 -631l596 639q31 33 72 33h211q23 0 23 -11q0 -8 -13 -22l-668 -686l488 -723q18 -33 -21 -33h-241q-43 0 -62 33l-405 637l-88 -629q-6 -41 -46 -41h-176q-38 0 -38 32q0 4 1 9z" />
<glyph unicode="L" horiz-adv-x="948" d="M106 41l197 1393q6 41 47 41h176q36 0 36 -31q0 -5 -1 -10l-176 -1250h506q36 0 36 -31q0 -5 -1 -10l-15 -102q-6 -41 -45 -41h-723q-38 0 -38 32q0 4 1 9z" />
<glyph unicode="M" horiz-adv-x="1710" d="M106 41l197 1393q6 41 47 41h187q41 0 55 -35l305 -1118l643 1116q25 37 68 37h166q35 0 35 -30q0 -5 -1 -11l-196 -1393q-6 -41 -45 -41h-176q-38 0 -38 32q0 4 1 9l82 573l77 412h-4l-553 -989q-23 -37 -63 -37h-133q-43 0 -58 35l-256 991h-4l-36 -412l-82 -573 q-6 -41 -45 -41h-136q-38 0 -38 32q0 4 1 9z" />
<glyph unicode="N" horiz-adv-x="1302" d="M106 41l197 1393q6 41 47 41h144q45 0 61 -33l485 -1000h4l39 418l80 574q6 41 47 41h156q36 0 36 -31q0 -5 -1 -10l-197 -1393q-6 -41 -45 -41h-143q-47 0 -64 33l-485 999h-4l-37 -418l-82 -573q-6 -41 -45 -41h-156q-38 0 -38 32q0 4 1 9z" />
<glyph unicode="O" horiz-adv-x="1609" d="M184 737q27 193 102.5 335t186.5 237.5t249 142.5t292 47t279.5 -47t209.5 -142.5t119 -237.5q20 -80 20 -177q0 -74 -12 -158q-27 -193 -102.5 -335t-186 -237t-249 -142.5t-291.5 -47.5q-154 0 -279 47.5t-209 142.5q-83 95 -119 237q-20 82 -21 182q0 72 11 153z M454 473q22 -108 74 -176t129.5 -97.5t169.5 -29.5t179.5 29.5t158 97.5t121.5 176.5t74 263.5q12 82 12 150q0 63 -10 115q-21 108 -73 175.5t-131 97.5t-171 30t-179 -30t-157.5 -97.5t-122 -176t-73.5 -264.5q-12 -81 -12 -148q1 -64 11 -116z" />
<glyph unicode="P" horiz-adv-x="1140" d="M106 41l197 1393q6 41 47 41h389q117 0 207 -40t150 -110q62 -70 86 -164q16 -60 15 -124q0 -37 -5 -76q-14 -104 -66.5 -197.5t-132.5 -163.5t-182 -110.5t-217 -40.5h-172l-57 -408q-6 -41 -46 -41h-176q-38 0 -38 32q0 4 1 9zM449 631h131q152 0 241.5 82t112.5 248 q7 45 7 83q0 104 -50 164q-68 82 -219 84h-131z" />
<glyph unicode="Q" horiz-adv-x="1609" d="M184 737q27 193 102.5 335t186.5 237.5t249 142.5t292 47t279.5 -47t209.5 -142.5t119 -237.5q20 -80 20 -177q0 -74 -12 -158q-31 -217 -120 -368.5t-222 -245.5l166 -307q10 -16 7 -24.5t-27 -8.5h-226q-43 0 -57 35l-96 192q-123 -35 -254 -35q-154 0 -279 47.5 t-209 142.5t-119 237q-21 83 -21 182q0 72 11 153zM454 473q21 -108 73.5 -176t130 -97.5t169.5 -29.5q35 0 69 3t69 13l-160 306q-10 16 -7 24t27 8h226q43 0 57 -35l80 -167q63 68 107 170t65 245q12 82 12 150q0 63 -10 115q-21 108 -73 175.5t-131 97.5t-171 30 t-179 -30t-157.5 -97.5t-122 -176t-73.5 -264.5q-12 -81 -12 -148q0 -64 11 -116z" />
<glyph unicode="R" horiz-adv-x="1161" d="M106 41l197 1393q6 41 47 41h389q117 0 207 -40t150 -110q62 -70 86 -164q16 -60 15 -124q0 -37 -5 -76q-20 -152 -115.5 -275t-238.5 -186l249 -467q10 -16 7.5 -24.5t-27.5 -8.5h-225q-43 0 -58 35l-202 414h-160l-57 -408q-6 -41 -46 -41h-176q-38 0 -38 32q0 4 1 9z M449 631h131q152 0 241.5 82t112.5 248q7 45 7 83q0 104 -50 164q-68 82 -219 84h-131z" />
<glyph unicode="S" horiz-adv-x="1136" d="M109 129l45 86q6 12 22.5 10t32.5 -6q18 -6 57 -14t86 -15.5t97.5 -13.5t95.5 -6q135 0 223 52t98 138q2 13 2 25q0 59 -41 105q-49 56 -120 85l-189 78q-70 29 -126 68t-93 90t-53 115q-9 36 -10 76q0 32 6 67q14 100 64 180t126 135.5t170 85t197 29.5q68 0 135 -11 t123.5 -27.5t96.5 -33t52 -28.5q9 -7 9 -17v-2q-1 -10 -13 -34l-45 -86q-6 -12 -22.5 -10.5t-30.5 5.5q-18 6 -54 14.5t-81 15.5t-93.5 13.5t-91.5 6.5q-82 0 -137 -20.5t-90 -52.5t-52.5 -69t-21.5 -69q-3 -14 -3 -27q0 -41 22 -77q30 -48 129 -89l186 -74 q84 -33 143.5 -81t95.5 -106t48 -124q7 -39 8 -79q0 -27 -4 -54q-12 -94 -62.5 -169t-127 -128t-179 -82t-219.5 -29q-66 0 -132 10.5t-123.5 26t-100.5 32.5t-60 32q-9 9 -9 18q0 10 14 35z" />
<glyph unicode="T" horiz-adv-x="983" d="M207 1331l14 103q6 41 47 41h860q36 0 36 -31q0 -5 -1 -10l-14 -103q-6 -41 -47 -41h-301l-176 -1249q-6 -41 -45 -41h-177q-37 0 -37 30q0 5 1 11l176 1249h-301q-36 0 -36 31q0 5 1 10z" />
<glyph unicode="U" horiz-adv-x="1302" d="M174 524l129 910q6 41 47 41h176q36 0 36 -31q0 -5 -1 -10l-121 -852q-7 -52 -7 -100q0 -32 3 -63q8 -77 37 -134.5t78 -91t121 -33.5q86 0 155.5 32.5t123 90t87 134.5t45.5 165l121 852q6 41 47 41h115q36 0 36 -31q0 -5 -1 -10l-129 -910q-16 -119 -70.5 -219 t-138.5 -174t-191.5 -115t-228.5 -41q-117 0 -211 42t-156 116q-62 75 -90 175q-17 64 -18 133q0 40 6 83z" />
<glyph unicode="V" horiz-adv-x="1273" d="M227 1438q-3 8 -3 14q0 23 34 23h195q41 0 49 -39l123 -660l49 -366l18 -154l62 154l120 284l361 742q20 39 61 39h134q18 1 24 -9q2 -3 2 -8q0 -8 -8 -20l-715 -1401q-23 -37 -61 -37h-90q-45 0 -54 37z" />
<glyph unicode="W" horiz-adv-x="1785" d="M227 1438q-3 8 -3 14q0 23 34 23h195q47 0 49 -39l82 -822l6 -358l108 358l312 822q14 39 57 39h127q43 0 45 -39l68 -822v-358l114 358l326 822q20 39 61 39h134q18 1 24 -9q2 -3 2 -8q0 -8 -8 -20l-612 -1401q-18 -37 -62 -37h-131q-23 0 -37 8t-16 29l-70 995 l-360 -995q-14 -37 -62 -37h-131q-47 0 -53 37z" />
<glyph unicode="X" horiz-adv-x="1202" d="M41 45l518 709l-301 676q-10 25 -5 35t34 10h192q55 0 70 -39l194 -469l347 469q29 39 86 39h143q35 -1 36 -11q0 -11 -20 -34l-489 -656l330 -729q10 -23 5 -34t-36 -11h-193q-51 0 -71 39l-219 510l-377 -510q-29 -39 -82 -39h-146q-35 0 -35 9.5t19 35.5z" />
<glyph unicode="Y" horiz-adv-x="1286" d="M229 1440q-4 9 -4 16q0 19 31 19h219q41 0 55 -35l236 -664l444 662q23 37 66 37h168q25 0 25 -15q0 -8 -9 -22l-624 -899l-70 -498q-6 -41 -45 -41h-176q-38 0 -38 32q0 4 1 9l70 498z" />
<glyph unicode="Z" horiz-adv-x="995" d="M25 41l10 74q6 39 33 78l774 1097h-588q-36 0 -36 31q0 5 1 10l14 103q6 41 48 41h843q36 0 36 -31q0 -5 -1 -10l-10 -74q-6 -39 -33 -78l-772 -1098h614q36 0 36 -31q0 -5 -1 -10l-14 -102q-6 -41 -45 -41h-873q-37 0 -37 30q0 5 1 11z" />
<glyph unicode="[" horiz-adv-x="559" d="M63 -266l283 2007q6 41 47 41h314q41 0 34 -41l-14 -103q-6 -41 -47 -41h-96l-242 -1720h96q41 0 35 -41l-14 -102q-6 -41 -47 -41h-314q-41 0 -35 41z" />
<glyph unicode="\" horiz-adv-x="897" d="M225 1421q-12 39 29 56l98 43q39 16 51 -21l474 -1446q12 -39 -29 -55l-98 -43q-39 -18 -52 20z" />
<glyph unicode="]" horiz-adv-x="559" d="M23 -266l14 102q6 41 47 41h96l242 1720h-96q-41 0 -35 41l14 103q6 41 47 41h314q41 0 34 -41l-282 -2007q-6 -41 -47 -41h-314q-41 0 -34 41z" />
<glyph unicode="^" horiz-adv-x="1032" d="M152 897l448 582q14 16 27.5 26.5t36.5 10.5h131q23 0 33 -10.5t18 -26.5l284 -582q12 -37 -28 -37h-148q-23 0 -31 10.5t-18 28.5l-196 473l-332 -473q-12 -18 -23.5 -28.5t-34.5 -10.5h-147q-45 0 -20 37z" />
<glyph unicode="_" horiz-adv-x="1372" d="M-66 -471l15 102q6 41 47 41h1288q41 0 35 -41l-14 -102q-6 -41 -48 -41h-1288q-41 0 -35 41z" />
<glyph unicode="`" horiz-adv-x="612" d="M328 1487q-29 29 14 29h186q39 0 58 -35l94 -201q16 -35 -25 -35h-63q-39 0 -68 29z" />
<glyph unicode="a" d="M154 268q-10 51 -10 113q0 70 12 156q23 158 73 264t118.5 170.5t150.5 92.5t170 28q104 0 179 -37t122 -117h4l33 86q6 23 15 32t32 9h143q36 0 36 -31q0 -5 -1 -10l-105 -731q-4 -27 -4 -47q0 -30 8 -46q14 -28 35 -28h4q36 0 36 -31q0 -5 -1 -10l-12 -90 q-6 -41 -45 -41h-12q-127 0 -177.5 45t-52.5 123h-4q-78 -102 -175 -148.5t-214 -46.5q-88 0 -163 28t-125 93.5t-70 173.5zM389 342q4 -76 27.5 -120t64.5 -60.5t97 -16.5q137 0 223 91.5t114 300.5q10 67 10 122q-1 112 -41 172q-60 89 -196 89q-55 0 -101 -16.5 t-81 -59.5t-61.5 -117t-43.5 -190q-13 -95 -13 -163q0 -17 1 -32z" />
<glyph unicode="b" d="M176 528l133 947q6 41 47 41h164q36 0 36 -31q0 -5 -1 -10l-76 -535h4q47 59 126 104.5t208 45.5q90 0 167 -28t128 -94q52 -66 72 -172q10 -51 9 -114q0 -67 -11 -147q-23 -164 -77 -271.5t-129 -172t-166 -91.5t-189 -27q-102 0 -192.5 28t-154.5 93q-64 64 -92 170 q-16 60 -16 137q0 59 10 127zM422 528q-10 -67 -10 -122q0 -112 40 -172q60 -89 197 -89q55 0 101.5 16.5t82 59.5t61.5 117t42 190q12 91 12 156q0 21 -1 39q-5 76 -29.5 119t-64.5 59.5t-93 16.5q-135 0 -222 -90.5t-116 -299.5z" />
<glyph unicode="c" horiz-adv-x="980" d="M148 322q-3 34 -3 69q0 70 11 144q16 113 53 214t103.5 176.5t168 121t248.5 45.5q51 0 98 -10.5t86 -26t68 -32.5t43 -32q10 -10 10 -21.5t-16 -31.5l-53 -66q-10 -10 -24.5 -9t-29.5 5q-29 10 -78 31t-116 21q-76 0 -131.5 -33t-92 -86t-59 -123t-33.5 -146 q-8 -65 -8 -124v-24q2 -70 24.5 -122.5t68.5 -83.5t120 -31q59 0 110.5 17.5t100.5 34.5q18 6 32.5 6t20.5 -10l33 -66q16 -29 -8 -53q-33 -33 -122 -67t-220 -34q-139 0 -225 46.5t-129 122.5t-51 178z" />
<glyph unicode="d" d="M154 264q-10 50 -10 112q0 69 12 152q23 160 73 267.5t119.5 173t152.5 93.5t173 28q66 0 114 -12.5t83.5 -33t58 -48t39.5 -56.5h4l76 535q6 41 47 41h164q35 0 35 -30q0 -5 -1 -11l-168 -1182q-4 -27 -4 -47q0 -30 8 -46q14 -28 35 -28h4q36 0 36 -31q0 -5 -1 -10 l-12 -90q-6 -41 -45 -41h-12q-127 0 -177.5 45t-52.5 123h-4q-78 -102 -175 -148.5t-214 -46.5q-88 0 -163 28t-125 92.5t-70 170.5zM389 338q4 -74 27.5 -117t64.5 -59.5t97 -16.5q137 0 223 89.5t114 293.5q9 66 9 121q0 117 -42 179q-62 90 -198 90q-53 0 -97 -16.5 t-80 -59.5t-62.5 -119t-43.5 -195q-13 -94 -13 -159q0 -16 1 -31z" />
<glyph unicode="e" horiz-adv-x="1056" d="M148 316q-3 36 -4 72q0 65 10 134q16 119 55 222.5t104.5 180t157.5 122t217 45.5q92 0 169 -27t128 -82t73 -138q13 -49 14 -107q0 -41 -7 -87q-8 -59 -24.5 -98t-46 -62.5t-73.5 -34t-108 -10.5h-420q-1 -21 -2 -41q1 -42 7 -79q8 -54 32.5 -93.5t68.5 -62.5t111 -23 q59 0 121 15.5t127 36.5q33 10 41 6t12 -10l33 -66q16 -29 -8 -53q-16 -16 -53 -34.5t-87.5 -33t-110.5 -24t-126 -9.5q-141 0 -228 45.5t-131 121.5t-52 174zM418 618h315q47 0 65.5 11.5t24.5 58.5q3 21 3 41q0 23 -4 46q-7 42 -25.5 74t-49 51.5t-71.5 19.5 q-55 0 -98 -25t-74 -66t-52.5 -95t-33.5 -116z" />
<glyph unicode="f" horiz-adv-x="604" d="M-51 -471l12 90q6 41 45 41h14q35 0 72 33t47 108l154 1102h-107q-41 0 -34 41l12 80q6 41 47 41h106l19 131q23 162 105.5 241t222.5 79h75q36 0 36 -31q0 -5 -1 -10l-12 -91q-6 -41 -47 -41h-15q-35 0 -71.5 -32.5t-46.5 -108.5l-19 -137h129q36 0 36 -31q0 -5 -1 -10 l-12 -80q-6 -41 -47 -41h-129l-154 -1096q-23 -162 -105.5 -240.5t-222.5 -78.5h-73q-36 0 -36 31q0 5 1 10z" />
<glyph unicode="g" d="M121 -315l45 86q6 12 21.5 10t31.5 -6q18 -6 57 -14.5t86.5 -15.5t98.5 -13t96 -6q111 0 189.5 87t99.5 226l12 86h-4q-47 -59 -126 -104.5t-210 -45.5q-90 0 -166 28t-127 93.5t-71 173.5q-10 50 -10 112q0 70 12 155q23 158 73 264t118.5 170.5t150.5 92.5t170 28 q117 0 202.5 -37t139.5 -117h4l33 86q8 23 16 32t31 9h102q36 0 36 -31q0 -5 -1 -10l-135 -963q-16 -121 -66.5 -219t-125.5 -167.5t-170 -106.5t-204 -37q-66 0 -132 10t-123.5 25.5t-100.5 33t-59 31.5q-8 8 -8 17q0 10 14 37zM390 340q5 -76 29.5 -119t64.5 -58.5 t94 -15.5q135 0 222 90.5t115 299.5q10 67 10 122q0 112 -41 172q-59 89 -196 89q-55 0 -101 -16.5t-81 -59.5t-61.5 -117t-43.5 -190q-12 -92 -12 -158q0 -21 1 -39z" />
<glyph unicode="h" horiz-adv-x="1128" d="M106 41l203 1434q6 41 47 41h164q36 0 36 -31q0 -5 -1 -10l-76 -535h4q41 59 111 104.5t184 45.5q82 0 150.5 -28t113.5 -94q44 -64 62 -172q8 -48 8 -106q0 -73 -12 -162l-31 -215q-4 -33 -4 -58q0 -33 7 -51q13 -32 34 -32h4q36 0 36 -31q0 -5 -1 -10l-12 -90 q-6 -41 -46 -41h-12q-259 0 -259 228q0 33 5 71l33 229q14 106 14 178v17q-2 76 -20.5 119t-52 59.5t-76.5 16.5q-117 0 -190.5 -75t-98.5 -253l-78 -549q-6 -41 -45 -41h-164q-38 0 -38 32q0 4 1 9z" />
<glyph unicode="i" horiz-adv-x="450" d="M143 299l103 725q6 41 47 41h164q36 0 36 -31q0 -5 -1 -10l-101 -711q-4 -32 -4 -57q-1 -34 7 -52q14 -32 34 -32h4q36 0 36 -31q0 -5 -1 -10l-12 -90q-6 -41 -45 -41h-13q-259 0 -259 228q0 33 5 71zM285 1311l24 164q6 41 47 41h164q36 0 36 -31q0 -5 -1 -10l-25 -164 q-6 -41 -45 -41h-163q-38 0 -38 32q0 4 1 9z" />
<glyph unicode="j" horiz-adv-x="450" d="M-68 -410l15 91q6 40 43 40h2h12q20 0 45 38t35 124l162 1141q6 41 47 41h164q36 0 36 -31q0 -5 -1 -10l-162 -1155q-23 -162 -106 -241t-222 -79h-33q-38 0 -38 32q0 4 1 9zM285 1311l24 164q6 41 47 41h164q36 0 36 -31q0 -5 -1 -10l-25 -164q-6 -41 -45 -41h-163 q-38 0 -38 32q0 4 1 9z" />
<glyph unicode="k" horiz-adv-x="997" d="M106 41l203 1434q6 41 47 41h162q36 0 36 -31q0 -5 -1 -10l-123 -877l404 434q31 33 71 33h170q26 0 26 -10q0 -8 -16 -23l-475 -481l359 -518q23 -33 -21 -33h-200q-43 0 -62 33l-276 432l-60 -424q-6 -41 -45 -41h-162q-38 0 -38 32q0 4 1 9z" />
<glyph unicode="l" horiz-adv-x="462" d="M145 319l164 1156q6 41 47 41h164q36 0 36 -31q0 -5 -1 -10l-162 -1141q-4 -38 -5 -67q0 -36 8 -57q12 -38 32 -38h14q36 0 36 -31q0 -5 -1 -10l-12 -90q-6 -41 -45 -41h-35q-139 0 -201 79q-45 58 -45 161q0 37 6 79z" />
<glyph unicode="m" horiz-adv-x="1581" d="M106 41l103 731q4 27 4 47q-1 31 -9 47q-14 28 -34 27h-4q-36 0 -36 31q0 5 1 10l12 90q6 41 47 41h13q63 0 106 -11.5t70 -33t38 -53t13 -70.5h4q59 98 117.5 145.5t150.5 47.5t163 -44.5t110 -123.5q53 80 132 124t153 44q76 0 139 -27t107 -78t62 -126q11 -45 12 -99 q0 -35 -5 -72l-53 -375q-4 -33 -4 -58q0 -33 7 -51q13 -32 34 -32h4q35 0 35 -30q0 -5 -1 -11l-12 -90q-6 -41 -45 -41h-12q-259 0 -259 228q0 33 5 71l45 319q8 59 8 113.5t-11 95.5t-36 66t-66 25q-172 0 -215 -306l-81 -571q-6 -41 -44 -41h-167q-36 0 -36 31q0 5 1 10 l82 577q8 59 8 113.5t-11.5 95.5t-36 66t-65.5 25q-174 0 -217 -320l-80 -557q-6 -41 -45 -41h-164q-38 0 -38 32q0 4 1 9z" />
<glyph unicode="n" horiz-adv-x="1097" d="M106 41l103 731q4 27 4 47q-1 31 -9 47q-14 28 -34 27h-4q-36 0 -36 31q0 5 1 10l12 90q6 41 47 41h13q63 0 106 -11.5t70 -33t38 -53t13 -70.5h4q66 98 134.5 145.5t174.5 47.5q82 0 152 -27t118 -78q47 -51 69 -126q14 -48 14 -105q0 -32 -4 -66l-54 -375 q-4 -32 -5 -57q1 -34 9 -52q14 -32 33 -32h4q36 0 36 -31q0 -5 -1 -10l-12 -90q-6 -41 -45 -41h-13q-259 0 -259 227q0 34 6 72l45 319q6 47 6 92v22q-2 54 -17.5 95t-48.5 66t-86 25q-215 0 -258 -320l-80 -557q-6 -41 -45 -41h-164q-38 0 -38 32q0 4 1 9z" />
<glyph unicode="o" horiz-adv-x="1155" d="M148 314q-3 34 -3 70q0 70 11 146q16 115 52 216.5t102.5 178t169 122t249.5 45.5t237.5 -45.5t135.5 -121t53 -177.5q3 -34 3 -70q0 -71 -11 -146q-16 -115 -52 -216t-102.5 -177t-169 -120t-250.5 -44q-147 0 -237 44t-135 118.5t-53 176.5zM391 386.5 q0 -67.5 20.5 -117.5t64.5 -79.5t122 -29.5q76 0 129 29.5t88 79.5t55.5 118t30.5 145q10 76 10 144.5t-20.5 120t-65 81t-120.5 29.5q-78 0 -130.5 -29.5t-87 -81t-55 -120t-31.5 -144.5q-10 -78 -10 -145.5z" />
<glyph unicode="p" d="M43 -410l166 1182q4 29 4 50q0 28 -7 44q-13 27 -34 27h-4q-36 0 -36 31q0 5 1 10l12 90q6 41 48 41h12q63 0 106 -11.5t70 -33t38 -53t13 -70.5h4q78 102 175.5 148.5t213.5 46.5q88 0 163 -28t125 -92.5t71 -171.5q9 -51 9 -114q0 -68 -11 -149q-23 -160 -73 -267.5 t-119.5 -173t-153.5 -93.5t-172 -28q-66 0 -114 12.5t-84 33t-59.5 48t-37.5 56.5h-4l-76 -535q-6 -41 -45 -41h-164q-38 0 -38 32q0 4 1 9zM422 537q-9 -66 -9 -121q0 -117 43 -178q62 -91 197 -91q53 0 97.5 15.5t80 58.5t62.5 119t43 197q13 94 13 159q0 17 -1 32 q-4 73 -27.5 116t-64.5 59.5t-96 16.5q-137 0 -223 -89.5t-115 -293.5z" />
<glyph unicode="q" d="M154 270q-10 50 -10 112q0 70 12 155q23 158 73 264t118.5 170.5t150.5 92.5t170 28q117 0 202.5 -37t139.5 -117h4l33 86q8 23 16 32t31 9h102q36 0 36 -31q0 -5 -1 -10l-164 -1161q-4 -33 -4 -58q0 -32 7 -51q13 -33 34 -33h14q38 0 38 -31q0 -4 -1 -9l-14 -91 q-6 -41 -45 -41h-23q-259 0 -259 228q0 33 5 71l39 277h-4q-47 -59 -126 -104.5t-210 -45.5q-90 0 -166 28t-127 93.5t-71 173.5zM390 340q5 -76 29.5 -119t64.5 -58.5t94 -15.5q135 0 222 90.5t115 299.5q10 67 10 122q0 112 -41 172q-59 89 -196 89q-55 0 -101 -16.5 t-81 -59.5t-61.5 -117t-43.5 -190q-12 -92 -12 -158q0 -21 1 -39z" />
<glyph unicode="r" horiz-adv-x="647" d="M106 41l103 731q4 27 4 47q-1 31 -9 47q-14 28 -34 27h-4q-36 0 -36 31q0 5 1 10l12 90q6 41 47 41h13q127 0 178 -30.5t55 -88.5h4q61 72 129 103.5t174 31.5q19 0 27 -4q5 -3 5 -13q0 -5 -1 -13l-22 -154q-4 -20 -12.5 -27.5t-20.5 -8.5t-26.5 2t-28.5 3 q-195 0 -224 -198l-88 -627q-6 -41 -45 -41h-164q-38 0 -38 32q0 4 1 9z" />
<glyph unicode="s" horiz-adv-x="970" d="M104 76q-7 12 -7 23q0 15 12 30l53 66q10 10 25.5 9t27.5 -5q57 -20 118.5 -36t137.5 -16q63 0 105 12.5t67 32t36 44t15 49.5q1 8 1 14q-1 37 -27 59q-32 26 -115 54l-170 53q-109 35 -149 115q-29 59 -29 130q0 25 4 52q10 70 43 130t87 105t129 70t169 25 q131 0 223 -33t121 -68q7 -11 7 -22q0 -12 -15 -31l-53 -66q-8 -14 -23.5 -11t-30.5 7q-53 20 -108.5 36t-120.5 16q-92 0 -137 -37t-56 -97q-4 -35 11.5 -61.5t56.5 -38.5l229 -70q127 -38 167 -114q29 -54 29 -131q0 -30 -5 -64q-12 -84 -56.5 -145.5t-109 -103.5 t-144 -62.5t-163.5 -20.5q-66 0 -124.5 8.5t-106.5 21.5t-79.5 31.5t-44.5 39.5z" />
<glyph unicode="t" horiz-adv-x="645" d="M152 944l12 80q6 41 47 41h106l21 158q4 23 15.5 27.5t31.5 13.5l172 61q9 3 15 3q11 0 17 -8q9 -13 5 -36l-31 -219h129q36 0 36 -31q0 -5 -1 -10l-12 -80q-6 -41 -47 -41h-129l-82 -590q-3 -21 -3 -38q0 -47 20 -71q26 -32 61 -32h14q36 0 36 -31q0 -5 -1 -10l-13 -90 q-6 -41 -45 -41h-75q-139 0 -201 79q-45 58 -45 159q0 38 6 81l82 584h-107q-35 0 -35 30q0 5 1 11z" />
<glyph unicode="u" horiz-adv-x="1097" d="M154 377l92 647q6 41 45 41h168q39 0 33 -41l-82 -578q-8 -56 -8 -107v-6q0 -54 17 -95t52 -66t92 -25q205 0 252 320l78 557q6 41 47 41h164q36 0 36 -31q0 -5 -1 -10l-103 -731q-4 -27 -4 -47q0 -30 8 -46q14 -28 35 -28h4q36 0 36 -31q0 -5 -1 -10l-12 -90 q-6 -41 -45 -41h-13q-127 0 -177 45t-52 123h-4q-66 -98 -134.5 -145.5t-174.5 -47.5q-80 0 -149.5 27t-118 78t-70.5 126q-14 48 -15 104q0 32 5 67z" />
<glyph unicode="v" horiz-adv-x="1032" d="M170 1028q-3 8 -3 14q0 23 34 23h188q41 0 47 -39l113 -780l334 780q14 39 59 39h188q18 0 24 -9q2 -3 3 -8q0 -8 -8 -20l-506 -991q-12 -18 -25.5 -27.5t-35.5 -9.5h-131q-41 0 -54 37z" />
<glyph unicode="w" horiz-adv-x="1605" d="M170 1028q-3 8 -3 14q0 23 34 23h188q41 0 47 -39l72 -780l313 780q14 39 58 39h147q43 0 45 -39l92 -780l293 780q14 39 60 39h188q18 0 24 -9q2 -3 3 -7q0 -8 -9 -21l-465 -991q-12 -18 -25 -27.5t-36 -9.5h-131q-41 0 -53 37l-111 663l-299 -663q-12 -18 -25.5 -27.5 t-35.5 -9.5h-131q-41 0 -54 37z" />
<glyph unicode="x" horiz-adv-x="1032" d="M24 8l-2 4q0 8 13 21l416 512l-261 487q-18 33 23 33h225q41 0 56 -35l116 -348l226 348q27 35 69 35h213q26 0 26 -9q0 -8 -16 -24l-395 -487l273 -512q18 -33 -21 -33h-225q-43 0 -58 35l-131 362l-243 -362q-27 -35 -68 -35h-213q-17 0 -23 8z" />
<glyph unicode="y" horiz-adv-x="1118" d="M121 -315l45 86q6 12 21.5 10t31.5 -6q14 -6 46 -14.5t71 -15.5t81 -13t79 -6q106 0 182 86t96 227l12 86h-4q-41 -59 -106.5 -104.5t-177.5 -45.5q-86 0 -158 28t-121 93.5t-67 173.5q-9 47 -9 106q0 72 13 161l69 487q6 41 47 41h164q36 0 36 -31q0 -5 -1 -10l-70 -487 q-13 -97 -13 -165q0 -17 1 -32q4 -76 25.5 -119t57.5 -58.5t85 -15.5q111 0 184.5 90.5t102.5 299.5l69 487q6 41 48 41h163q36 0 36 -31q0 -5 -1 -10l-135 -963q-16 -121 -65.5 -219t-123 -167.5t-167 -106.5t-199.5 -37q-55 0 -111.5 10t-105.5 25.5t-86 33t-51 31.5 q-8 8 -8 17q0 10 14 37z" />
<glyph unicode="z" horiz-adv-x="872" d="M66 41l10 74q6 39 33 78l528 710h-397q-36 0 -36 31q0 5 1 10l12 80q6 41 47 41h639q36 0 36 -31q0 -5 -1 -10l-10 -74q-6 -39 -33 -78l-526 -710h424q41 0 34 -41l-12 -80q-6 -41 -45 -41h-668q-37 0 -37 30q0 5 1 11z" />
<glyph unicode="{" horiz-adv-x="833" d="M199 694l14 103q6 41 47 41q39 0 74 21.5t61.5 58t45 85t24.5 101.5l41 295q8 61 40 110.5t77 83t98 52t106 18.5h97q41 0 34 -41l-16 -115q-6 -41 -47 -41h-29q-53 0 -80.5 -54t-42.5 -144l-30 -230q-16 -123 -73.5 -192.5t-135.5 -97.5v-5q72 -27 107.5 -97.5 t19.5 -192.5l-35 -242q-12 -90 0 -144.5t66 -54.5h28q43 0 37 -41l-16 -114q-6 -41 -47 -41h-97q-51 0 -99 17t-84 51t-54.5 83t-7.5 113l43 307q8 53 4 101.5t-20.5 85t-45.5 58t-70 21.5t-34 41z" />
<glyph unicode="|" horiz-adv-x="389" d="M63 -266l254 1802q6 41 48 41h102q41 0 35 -41l-254 -1802q-6 -41 -47 -41h-103q-41 0 -35 41z" />
<glyph unicode="}" horiz-adv-x="833" d="M82 -143l16 114q6 41 45 41h29q53 0 82 54.5t41 144.5l35 242q16 123 72.5 193.5t136.5 96.5v5q-72 29 -108 98t-19 192l30 230q14 90 1 144t-66 54h-29q-41 0 -35 41l17 115q6 41 47 41h96q53 0 101.5 -18.5t83 -52t51 -83t8.5 -110.5l-41 -295q-6 -53 -2 -101.5 t20.5 -85t44 -58t68.5 -21.5t35 -41l-15 -103q-6 -41 -47 -41t-75.5 -21.5t-60.5 -58t-43 -85t-26 -101.5l-43 -307q-10 -63 -41.5 -112.5t-75.5 -83.5t-97.5 -51t-104.5 -17h-96q-41 0 -35 41z" />
<glyph unicode="~" horiz-adv-x="780" d="M195 666q16 84 64 143t144 59q35 0 68 -12t61 -27q47 -23 60.5 -27.5t17.5 -4.5q16 0 25.5 10t18 23.5t19.5 23.5t34 10h61q12 0 20.5 -10t6.5 -23q-14 -84 -62.5 -143t-144.5 -59q-18 0 -35.5 5t-32.5 11q-49 20 -88 37.5t-51 17.5q-16 0 -26.5 -10t-20.5 -23.5 t-21.5 -23.5t-27.5 -10h-62q-14 0 -22 10t-6 23z" />
<glyph unicode="&#xa1;" horiz-adv-x="462" d="M35 -471l174 942q8 41 47 41h94q23 0 30 -9t5 -32l-92 -942q-2 -41 -47 -41h-176q-43 0 -35 41zM209 758l22 164q6 41 48 41h176q41 0 34 -41l-22 -164q-6 -41 -47 -41h-176q-41 0 -35 41z" />
<glyph unicode="&#xa2;" horiz-adv-x="980" d="M146.5 334q-5.5 96 9.5 201q14 104 45.5 197t89 167t142.5 123t208 63l35 246q6 41 47 41h102q41 0 35 -41l-35 -250q72 -14 124 -41.5t75 -48.5q10 -10 10 -21.5t-16 -31.5l-53 -66q-10 -10 -24.5 -9t-29.5 5q-29 10 -78 31t-116 21q-76 0 -131.5 -33t-92 -86t-59 -123 t-33.5 -146q-10 -78 -8 -147.5t24.5 -122.5t68.5 -84t120 -31q59 0 110.5 17.5t100.5 34.5q18 6 32.5 6t20.5 -10l33 -66q16 -29 -8 -53q-27 -25 -83 -51.5t-140 -38.5l-37 -252q-6 -41 -47 -41h-103q-41 0 -34 41l34 246q-119 10 -190.5 59t-107 124t-41 171z" />
<glyph unicode="&#xa5;" horiz-adv-x="1286" d="M229 1440q-14 35 27 35h219q41 0 55 -35l236 -664l444 662q23 37 66 37h168q39 0 16 -37l-512 -738h168q41 0 35 -41l-12 -90q-6 -41 -47 -41h-256l-21 -143h256q41 0 35 -41l-12 -90q-6 -41 -47 -41h-256l-25 -172q-6 -41 -45 -41h-176q-43 0 -37 41l24 172h-235 q-41 0 -35 41l12 90q6 41 48 41h235l21 143h-236q-41 0 -35 41l12 90q6 41 48 41h149z" />
<glyph unicode="&#xa8;" horiz-adv-x="819" d="M283 1290l20 144q6 41 47 41h144q41 0 34 -41l-20 -144q-6 -41 -47 -41h-144q-41 0 -34 41zM672 1290l20 144q6 41 47 41h144q41 0 35 -41l-21 -144q-6 -41 -47 -41h-143q-41 0 -35 41z" />
<glyph unicode="&#xa9;" horiz-adv-x="1433" d="M182 573q18 127 82 240t159 196t214 131t246 48t232.5 -48t177 -131t104 -196t14.5 -240t-81.5 -239.5t-159 -195.5t-214 -131t-245.5 -48t-232.5 48t-177.5 131t-104.5 195.5t-14.5 239.5zM264 573q-16 -111 12.5 -208t90 -168.5t152.5 -113.5t202 -42t214 42t185 113.5 t137.5 169t71.5 207.5q14 111 -13.5 208.5t-90 169t-153.5 113.5t-202 42t-213 -42t-185 -113.5t-138.5 -169t-69.5 -208.5zM479 586q12 96 50 167.5t93.5 119t124 71t146.5 23.5q68 0 124 -18.5t73 -33.5q6 -4 6 -9t-9 -17l-20 -43q-8 -6 -29 -2q-23 6 -65.5 15t-93.5 9 q-47 0 -90.5 -15t-78 -49t-60 -87t-36.5 -131q-12 -78 -1.5 -132.5t37 -88t64.5 -49t85 -15.5q51 0 96 9t72 16q6 4 14 4t12 -6l11 -37q4 -23 -7 -33q-20 -14 -81.5 -31.5t-129.5 -17.5q-76 0 -138 23.5t-104 70.5t-60.5 118.5t-4.5 168.5z" />
<glyph unicode="&#xab;" horiz-adv-x="1097" d="M182 715l6 57q4 23 15.5 33t29.5 24l615 433q39 16 33 -25l-15 -111q-4 -23 -15 -33t-30 -24l-463 -326l371 -325q16 -14 24.5 -24.5t4.5 -33.5l-15 -110q-6 -41 -41 -25l-491 432q-16 14 -24.5 24.5t-4.5 33.5zM592 715l6 57q4 23 15.5 33t29.5 24l500 351q20 10 28.5 2 t6.5 -27l-17 -111q-4 -23 -14 -33t-31 -24l-348 -244l281 -243q16 -14 24 -24.5t4 -33.5l-16 -110q-2 -18 -11.5 -26.5t-27.5 1.5l-401 350q-16 14 -24.5 24.5t-4.5 33.5z" />
<glyph unicode="&#xad;" horiz-adv-x="757" d="M199 694l14 103q6 41 47 41h471q41 0 35 -41l-14 -103q-6 -41 -47 -41h-472q-41 0 -34 41z" />
<glyph unicode="&#xae;" horiz-adv-x="1433" d="M233 942q18 127 82 239.5t159 195.5t214 131t246 48t232.5 -48t177 -131t104 -195.5t14.5 -239.5t-81.5 -239.5t-159 -195.5t-214 -131t-245.5 -48t-232.5 48t-177 131t-104.5 195.5t-15 239.5zM315 942q-16 -111 12.5 -208t91 -168.5t154 -113.5t201.5 -42 q111 0 213.5 42t185 113.5t137 168.5t70.5 208q14 111 -13.5 208t-88.5 169t-152.5 114t-201.5 42q-111 0 -214.5 -42t-185.5 -114t-138.5 -169t-70.5 -208zM590 608l98 697q2 20 23 20h194q57 0 103.5 -20.5t76 -55.5t43 -82t5.5 -100q-10 -76 -58.5 -137.5t-120.5 -91.5 l125 -234q4 -10 3 -13t-13 -3h-113q-20 0 -28 16l-101 207h-79l-29 -203q-2 -20 -23 -20h-88q-20 0 -18 20zM760 903h65q154 0 179 164q20 166 -132 166h-65z" />
<glyph unicode="&#xaf;" horiz-adv-x="921" d="M289 1331l8 62q6 41 47 41h635q41 0 35 -41l-8 -62q-6 -41 -48 -41h-634q-41 0 -35 41z" />
<glyph unicode="&#xb4;" horiz-adv-x="612" d="M289 1280l151 201q29 35 70 35h186q41 0 6 -29l-258 -213q-35 -29 -75 -29h-64q-39 0 -16 35z" />
<glyph unicode="&#xb8;" horiz-adv-x="565" d="M47 -401l6 36q8 41 49 39v-2h43q68 0 103 21.5t39 56.5q4 31 -20.5 49.5t-102.5 18.5l72 182h112l-45 -111q68 -10 99.5 -52t21.5 -101q-10 -80 -83 -135.5t-181 -55.5q-37 0 -61.5 2t-20.5 7q-39 2 -31 45z" />
<glyph unicode="&#xbb;" horiz-adv-x="1097" d="M127 332l16 110q4 23 15.5 33t29.5 25l351 243l-283 244q-14 14 -23.5 24.5t-5.5 32.5l17 111q2 18 12 26.5t27 -1.5l401 -351q16 -14 24.5 -24t4.5 -33l-6 -57q-4 -23 -15.5 -33t-29.5 -25l-500 -350q-39 -16 -35 25zM424 250l14 110q4 23 15.5 33t29.5 25l465 325 l-373 326q-16 14 -24 24.5t-4 32.5l14 111q6 41 41 25l492 -433q16 -14 24 -24t4 -33l-6 -57q-4 -23 -15 -33t-30 -25l-614 -432q-39 -16 -33 25z" />
<glyph unicode="&#xbf;" horiz-adv-x="1040" d="M66 -137q10 92 48 170t105 149q8 8 43 36t75 67t74.5 86t41.5 96l4 29q2 41 45 41h176q39 0 37 -41l-4 -29q-6 -47 -23.5 -85t-44.5 -75t-63.5 -74.5t-83.5 -85.5q-8 -6 -32 -33.5t-51.5 -66.5t-51 -86t-29.5 -96q-4 -35 2 -68t25.5 -58.5t54.5 -40.5t88 -15q31 0 72.5 5 t84.5 13t82 16.5t68 14.5t40 6t13 -10l21 -86q6 -25 4 -34t-15 -20q-18 -12 -63 -29.5t-105.5 -32.5t-130 -26.5t-133.5 -11.5q-80 0 -152.5 19.5t-124.5 64.5t-80 116.5t-17 174.5zM496 782l22 164q6 41 47 41h176q41 0 35 -41l-22 -164q-6 -41 -47 -41h-177q-41 0 -34 41z " />
<glyph unicode="&#xc0;" horiz-adv-x="1376" d="M25.5 9q-7.5 9 5.5 28l755 1401q20 37 64 37h90q41 0 51 -37l363 -1401q12 -37 -29 -37h-195q-43 0 -51 39l-82 323h-581l-172 -323q-20 -39 -60 -39h-133q-18 0 -25.5 9zM508 535h446l-106 530l-21 154l-59 -154zM639 1897q-29 29 14 29h186q39 0 58 -35l94 -201 q16 -35 -25 -35h-63q-39 0 -68 29z" />
<glyph unicode="&#xc1;" horiz-adv-x="1376" d="M25.5 9q-7.5 9 5.5 28l755 1401q20 37 64 37h90q41 0 51 -37l363 -1401q12 -37 -29 -37h-195q-43 0 -51 39l-82 323h-581l-172 -323q-20 -39 -60 -39h-133q-18 0 -25.5 9zM508 535h446l-106 530l-21 154l-59 -154zM885 1690l151 201q29 35 70 35h186q41 0 6 -29 l-258 -213q-35 -29 -75 -29h-64q-39 0 -16 35z" />
<glyph unicode="&#xc2;" horiz-adv-x="1376" d="M25.5 9q-7.5 9 5.5 28l755 1401q20 37 64 37h90q41 0 51 -37l363 -1401q12 -37 -29 -37h-195q-43 0 -51 39l-82 323h-581l-172 -323q-20 -39 -60 -39h-133q-18 0 -25.5 9zM508 535h446l-106 530l-21 154l-59 -154zM641 1688l176 205q31 33 72 33h139q41 0 59 -33 l119 -205q20 -33 -20 -33h-70q-39 0 -66 29l-108 127l-146 -127q-31 -29 -73 -29h-70q-39 0 -12 33z" />
<glyph unicode="&#xc3;" horiz-adv-x="1376" d="M25.5 9q-7.5 9 5.5 28l755 1401q20 37 64 37h90q41 0 51 -37l363 -1401q12 -37 -29 -37h-195q-43 0 -51 39l-82 323h-581l-172 -323q-20 -39 -60 -39h-133q-18 0 -25.5 9zM508 535h446l-106 530l-21 154l-59 -154zM635 1690q16 84 64 143.5t144 59.5q35 0 68 -12.5 t64 -26.5q47 -23 59 -28t16 -5q16 0 25.5 10.5t18 23.5t19.5 23.5t34 10.5h61q12 0 20.5 -10.5t6.5 -22.5q-14 -84 -62.5 -143.5t-144.5 -59.5q-18 0 -35.5 5t-32.5 12q-49 20 -88 37.5t-51 17.5q-16 0 -26.5 -10.5t-20.5 -23.5t-21.5 -23.5t-27.5 -10.5h-62q-14 0 -22 10.5 t-6 22.5z" />
<glyph unicode="&#xc4;" horiz-adv-x="1376" d="M25.5 9q-7.5 9 5.5 28l755 1401q20 37 64 37h90q41 0 51 -37l363 -1401q12 -37 -29 -37h-195q-43 0 -51 39l-82 323h-581l-172 -323q-20 -39 -60 -39h-133q-18 0 -25.5 9zM508 535h446l-106 530l-21 154l-59 -154zM619 1700l20 144q6 41 47 41h144q41 0 34 -41l-20 -144 q-6 -41 -47 -41h-144q-41 0 -34 41zM1008 1700l20 144q6 41 47 41h144q41 0 35 -41l-21 -144q-6 -41 -47 -41h-143q-41 0 -35 41z" />
<glyph unicode="&#xc5;" horiz-adv-x="1376" d="M25.5 9q-7.5 9 5.5 28l755 1401q20 37 64 37h90q41 0 51 -37l363 -1401q12 -37 -29 -37h-195q-43 0 -51 39l-82 323h-581l-172 -323q-20 -39 -60 -39h-133q-18 0 -25.5 9zM508 535h446l-106 530l-21 154l-59 -154zM746 1778q6 39 26.5 74t50 61.5t65.5 41t75 14.5 q82 0 129 -54.5t35 -136.5q-6 -39 -25.5 -73.5t-48.5 -60.5t-66.5 -41t-76.5 -15q-37 0 -70 15t-55.5 41t-33.5 60.5t-5 73.5zM832 1778q-4 -41 22.5 -72.5t67.5 -31.5t77 28.5t42 75.5q6 45 -17.5 75t-70.5 30t-81 -32t-40 -73z" />
<glyph unicode="&#xc6;" horiz-adv-x="1468" d="M26.5 9q-6.5 9 4.5 28l755 1401q20 37 64 37h702q41 0 35 -41l-14 -103q-6 -41 -47 -41h-404l-63 -452h301q41 0 35 -41l-15 -103q-6 -41 -47 -41h-301l-65 -469h403q41 0 35 -41l-14 -102q-6 -41 -45 -41h-621q-43 0 -37 41l45 321h-317l-172 -323q-20 -39 -60 -39h-133 q-18 0 -24.5 9zM508 535h250l96 684h-27l-59 -154z" />
<glyph unicode="&#xc7;" horiz-adv-x="1308" d="M184 737q27 193 102.5 335t186.5 237.5t249 142.5t292 47q68 0 131 -10t116.5 -25.5t92.5 -33t55 -31.5q10 -10 9 -20.5t-13 -32.5l-45 -86q-10 -10 -24.5 -9.5t-28.5 4.5q-47 12 -132 31t-188 19q-92 0 -179 -30t-157.5 -97.5t-122 -176t-73.5 -264.5 q-23 -156 -1.5 -264t74 -176t130 -97.5t169.5 -29.5q102 0 192.5 18.5t141.5 30.5q14 4 29.5 5t21.5 -9l23 -76q6 -29 4 -41t-14 -22q-20 -12 -60.5 -28.5t-91.5 -31t-111.5 -25.5t-123.5 -14l-35 -88q68 -10 99.5 -52t21.5 -101q-10 -80 -83 -135.5t-182 -55.5 q-37 0 -61.5 2t-19.5 7q-39 2 -31 45l6 36q8 41 49 39v-2h43q68 0 102.5 21.5t38.5 56.5q4 31 -17 38t-71 11q-23 2 -25.5 19.5t7.5 38.5l45 123q-137 10 -248.5 62t-184.5 146.5t-102.5 231.5t-5.5 317z" />
<glyph unicode="&#xc8;" horiz-adv-x="989" d="M106 41l197 1393q6 41 47 41h723q41 0 35 -41l-14 -103q-6 -41 -47 -41h-506l-64 -452h404q41 0 34 -41l-14 -103q-6 -41 -47 -41h-403l-66 -469h506q41 0 35 -41l-15 -102q-6 -41 -45 -41h-723q-43 0 -37 41zM508 1897q-29 29 14 29h186q39 0 58 -35l94 -201 q16 -35 -25 -35h-63q-39 0 -68 29z" />
<glyph unicode="&#xc9;" horiz-adv-x="989" d="M106 41l197 1393q6 41 47 41h723q41 0 35 -41l-14 -103q-6 -41 -47 -41h-506l-64 -452h404q41 0 34 -41l-14 -103q-6 -41 -47 -41h-403l-66 -469h506q41 0 35 -41l-15 -102q-6 -41 -45 -41h-723q-43 0 -37 41zM615 1690l151 201q29 35 70 35h186q41 0 6 -29l-258 -213 q-35 -29 -75 -29h-64q-39 0 -16 35z" />
<glyph unicode="&#xca;" horiz-adv-x="989" d="M106 41l197 1393q6 41 47 41h723q41 0 35 -41l-14 -103q-6 -41 -47 -41h-506l-64 -452h404q41 0 34 -41l-14 -103q-6 -41 -47 -41h-403l-66 -469h506q41 0 35 -41l-15 -102q-6 -41 -45 -41h-723q-43 0 -37 41zM447 1688l176 205q31 33 72 33h139q41 0 59 -33l119 -205 q20 -33 -20 -33h-70q-39 0 -66 29l-108 127l-146 -127q-31 -29 -73 -29h-70q-39 0 -12 33z" />
<glyph unicode="&#xcb;" horiz-adv-x="989" d="M106 41l197 1393q6 41 47 41h723q41 0 35 -41l-14 -103q-6 -41 -47 -41h-506l-64 -452h404q41 0 34 -41l-14 -103q-6 -41 -47 -41h-403l-66 -469h506q41 0 35 -41l-15 -102q-6 -41 -45 -41h-723q-43 0 -37 41zM424 1700l20 144q6 41 47 41h144q41 0 34 -41l-20 -144 q-6 -41 -47 -41h-144q-41 0 -34 41zM813 1700l20 144q6 41 47 41h144q41 0 35 -41l-21 -144q-6 -41 -47 -41h-143q-41 0 -35 41z" />
<glyph unicode="&#xcc;" horiz-adv-x="462" d="M106 41l197 1393q6 41 47 41h176q41 0 35 -41l-196 -1393q-6 -41 -46 -41h-176q-43 0 -37 41zM230 1897q-29 29 14 29h186q39 0 58 -35l94 -201q16 -35 -25 -35h-63q-39 0 -68 29z" />
<glyph unicode="&#xcd;" horiz-adv-x="462" d="M106 41l197 1393q6 41 47 41h176q41 0 35 -41l-196 -1393q-6 -41 -46 -41h-176q-43 0 -37 41zM350 1690l151 201q29 35 70 35h186q41 0 6 -29l-258 -213q-35 -29 -75 -29h-64q-39 0 -16 35z" />
<glyph unicode="&#xce;" horiz-adv-x="462" d="M106 41l197 1393q6 41 47 41h176q41 0 35 -41l-196 -1393q-6 -41 -46 -41h-176q-43 0 -37 41zM189 1688l176 205q31 33 72 33h139q41 0 59 -33l119 -205q20 -33 -20 -33h-70q-39 0 -66 29l-108 127l-146 -127q-31 -29 -73 -29h-70q-39 0 -12 33z" />
<glyph unicode="&#xcf;" horiz-adv-x="462" d="M106 41l197 1393q6 41 47 41h176q41 0 35 -41l-196 -1393q-6 -41 -46 -41h-176q-43 0 -37 41zM166 1700l20 144q6 41 47 41h144q41 0 34 -41l-20 -144q-6 -41 -47 -41h-144q-41 0 -34 41zM555 1700l20 144q6 41 47 41h144q41 0 35 -41l-21 -144q-6 -41 -47 -41h-143 q-41 0 -35 41z" />
<glyph unicode="&#xd0;" horiz-adv-x="1443" d="M178 694l15 103q6 41 47 41h102l84 596q6 41 47 41h471q125 0 230.5 -54.5t178 -152t104.5 -231.5t9 -294t-95.5 -295t-176.5 -234t-235.5 -155.5t-270.5 -58.5h-422q-43 0 -37 41l86 612h-102q-41 0 -35 41zM508 184h203q88 0 169 43t145.5 120t109.5 180.5t61 226.5 q16 119 -3 218t-66.5 169.5t-119 109.5t-157.5 39h-186l-64 -452h315q41 0 35 -41l-14 -103q-6 -41 -47 -41h-316z" />
<glyph unicode="&#xd1;" horiz-adv-x="1302" d="M106 41l197 1393q6 41 47 41h144q45 0 61 -33l485 -1000h4l39 418l80 574q6 41 47 41h156q41 0 35 -41l-197 -1393q-6 -41 -45 -41h-143q-47 0 -64 33l-485 999h-4l-37 -418l-82 -573q-6 -41 -45 -41h-156q-43 0 -37 41zM598 1690q16 84 64 143.5t144 59.5q35 0 68 -12.5 t64 -26.5q47 -23 59 -28t16 -5q16 0 25.5 10.5t18 23.5t19.5 23.5t34 10.5h61q12 0 20.5 -10.5t6.5 -22.5q-14 -84 -62.5 -143.5t-144.5 -59.5q-18 0 -35.5 5t-32.5 12q-49 20 -88 37.5t-51 17.5q-16 0 -26.5 -10.5t-20.5 -23.5t-21.5 -23.5t-27.5 -10.5h-62q-14 0 -22 10.5 t-6 22.5z" />
<glyph unicode="&#xd2;" horiz-adv-x="1609" d="M184 737q27 193 102.5 335t186.5 237.5t249 142.5t292 47t279.5 -47t209.5 -142.5t119 -237.5t8 -335t-102.5 -335t-186 -237t-249 -142.5t-291.5 -47.5q-154 0 -279 47.5t-209 142.5t-119.5 237.5t-9.5 334.5zM453.5 473q21.5 -108 74 -176t130 -97.5t169.5 -29.5 t179.5 29.5t158 97.5t121.5 176.5t74 263.5q23 156 2 264.5t-73 176t-131 97.5t-171 30t-179 -30t-157.5 -97.5t-122 -176t-73.5 -264.5q-23 -156 -1.5 -264zM807 1897q-29 29 14 29h186q39 0 58 -35l94 -201q16 -35 -25 -35h-63q-39 0 -68 29z" />
<glyph unicode="&#xd3;" horiz-adv-x="1609" d="M184 737q27 193 102.5 335t186.5 237.5t249 142.5t292 47t279.5 -47t209.5 -142.5t119 -237.5t8 -335t-102.5 -335t-186 -237t-249 -142.5t-291.5 -47.5q-154 0 -279 47.5t-209 142.5t-119.5 237.5t-9.5 334.5zM453.5 473q21.5 -108 74 -176t130 -97.5t169.5 -29.5 t179.5 29.5t158 97.5t121.5 176.5t74 263.5q23 156 2 264.5t-73 176t-131 97.5t-171 30t-179 -30t-157.5 -97.5t-122 -176t-73.5 -264.5q-23 -156 -1.5 -264zM940 1690l151 201q29 35 70 35h186q41 0 6 -29l-258 -213q-35 -29 -75 -29h-64q-39 0 -16 35z" />
<glyph unicode="&#xd4;" horiz-adv-x="1609" d="M184 737q27 193 102.5 335t186.5 237.5t249 142.5t292 47t279.5 -47t209.5 -142.5t119 -237.5t8 -335t-102.5 -335t-186 -237t-249 -142.5t-291.5 -47.5q-154 0 -279 47.5t-209 142.5t-119.5 237.5t-9.5 334.5zM453.5 473q21.5 -108 74 -176t130 -97.5t169.5 -29.5 t179.5 29.5t158 97.5t121.5 176.5t74 263.5q23 156 2 264.5t-73 176t-131 97.5t-171 30t-179 -30t-157.5 -97.5t-122 -176t-73.5 -264.5q-23 -156 -1.5 -264zM758 1688l176 205q31 33 72 33h139q41 0 59 -33l119 -205q20 -33 -20 -33h-70q-39 0 -66 29l-108 127l-146 -127 q-31 -29 -73 -29h-70q-39 0 -12 33z" />
<glyph unicode="&#xd5;" horiz-adv-x="1609" d="M184 737q27 193 102.5 335t186.5 237.5t249 142.5t292 47t279.5 -47t209.5 -142.5t119 -237.5t8 -335t-102.5 -335t-186 -237t-249 -142.5t-291.5 -47.5q-154 0 -279 47.5t-209 142.5t-119.5 237.5t-9.5 334.5zM453.5 473q21.5 -108 74 -176t130 -97.5t169.5 -29.5 t179.5 29.5t158 97.5t121.5 176.5t74 263.5q23 156 2 264.5t-73 176t-131 97.5t-171 30t-179 -30t-157.5 -97.5t-122 -176t-73.5 -264.5q-23 -156 -1.5 -264zM752 1690q16 84 64 143.5t144 59.5q35 0 68 -12.5t64 -26.5q47 -23 59 -28t16 -5q16 0 25.5 10.5t18 23.5 t19.5 23.5t34 10.5h61q12 0 20.5 -10.5t6.5 -22.5q-14 -84 -62.5 -143.5t-144.5 -59.5q-18 0 -35.5 5t-32.5 12q-49 20 -88 37.5t-51 17.5q-16 0 -26.5 -10.5t-20.5 -23.5t-21.5 -23.5t-27.5 -10.5h-62q-14 0 -22 10.5t-6 22.5z" />
<glyph unicode="&#xd6;" horiz-adv-x="1609" d="M184 737q27 193 102.5 335t186.5 237.5t249 142.5t292 47t279.5 -47t209.5 -142.5t119 -237.5t8 -335t-102.5 -335t-186 -237t-249 -142.5t-291.5 -47.5q-154 0 -279 47.5t-209 142.5t-119.5 237.5t-9.5 334.5zM453.5 473q21.5 -108 74 -176t130 -97.5t169.5 -29.5 t179.5 29.5t158 97.5t121.5 176.5t74 263.5q23 156 2 264.5t-73 176t-131 97.5t-171 30t-179 -30t-157.5 -97.5t-122 -176t-73.5 -264.5q-23 -156 -1.5 -264zM736 1700l20 144q6 41 47 41h144q41 0 34 -41l-20 -144q-6 -41 -47 -41h-144q-41 0 -34 41zM1125 1700l20 144 q6 41 47 41h144q41 0 35 -41l-21 -144q-6 -41 -47 -41h-143q-41 0 -35 41z" />
<glyph unicode="&#xd7;" horiz-adv-x="802" d="M170 514q-27 29 8 57l197 174l-148 175q-27 29 9 57l79 72q35 29 58 0l151 -172l197 172q35 29 57 0l64 -72q23 -29 -8 -57l-197 -175l147 -174q23 -29 -8 -57l-82 -72q-35 -29 -57 0l-150 172l-198 -172q-35 -29 -58 0z" />
<glyph unicode="&#xd8;" horiz-adv-x="1609" d="M184 737q27 193 102.5 335t186.5 237.5t249 142.5t292 47q123 0 226 -29.5t183 -89.5l68 68q31 35 59 6l70 -65q29 -27 -4 -60l-72 -74q61 -94 85 -223t1 -295q-27 -193 -102.5 -335t-186 -237t-249 -142.5t-291.5 -47.5q-123 0 -226.5 30t-183.5 89l-67 -67 q-31 -33 -60 -7l-69 66q-29 27 4 59l71 72q-61 94 -84.5 223t-1.5 297zM445 557q4 -80 22 -141l790 794q-53 49 -121.5 72t-148.5 23q-92 0 -179 -30t-157.5 -97.5t-122 -176t-73.5 -264.5q-14 -100 -10 -180zM557 262q53 -49 122 -70.5t148 -21.5q92 0 179.5 29.5t158 97.5 t121.5 176.5t74 263.5q14 100 10 179t-22 143z" />
<glyph unicode="&#xd9;" horiz-adv-x="1302" d="M174 524l129 910q6 41 47 41h176q41 0 35 -41l-121 -852q-12 -86 -4 -163t37 -134.5t78 -91t121 -33.5q86 0 155.5 32.5t123 90t87 134.5t45.5 165l121 852q6 41 47 41h115q41 0 35 -41l-129 -910q-16 -119 -70.5 -219t-138.5 -174t-191.5 -115t-228.5 -41 q-117 0 -211 42t-156.5 116t-90 174.5t-11.5 216.5zM729 1897q-29 29 14 29h186q39 0 58 -35l94 -201q16 -35 -25 -35h-63q-39 0 -68 29z" />
<glyph unicode="&#xda;" horiz-adv-x="1302" d="M174 524l129 910q6 41 47 41h176q41 0 35 -41l-121 -852q-12 -86 -4 -163t37 -134.5t78 -91t121 -33.5q86 0 155.5 32.5t123 90t87 134.5t45.5 165l121 852q6 41 47 41h115q41 0 35 -41l-129 -910q-16 -119 -70.5 -219t-138.5 -174t-191.5 -115t-228.5 -41 q-117 0 -211 42t-156.5 116t-90 174.5t-11.5 216.5zM690 1690l151 201q29 35 70 35h186q41 0 6 -29l-258 -213q-35 -29 -75 -29h-64q-39 0 -16 35z" />
<glyph unicode="&#xdb;" horiz-adv-x="1302" d="M174 524l129 910q6 41 47 41h176q41 0 35 -41l-121 -852q-12 -86 -4 -163t37 -134.5t78 -91t121 -33.5q86 0 155.5 32.5t123 90t87 134.5t45.5 165l121 852q6 41 47 41h115q41 0 35 -41l-129 -910q-16 -119 -70.5 -219t-138.5 -174t-191.5 -115t-228.5 -41 q-117 0 -211 42t-156.5 116t-90 174.5t-11.5 216.5zM604 1688l176 205q31 33 72 33h139q41 0 59 -33l119 -205q20 -33 -20 -33h-70q-39 0 -66 29l-108 127l-146 -127q-31 -29 -73 -29h-70q-39 0 -12 33z" />
<glyph unicode="&#xdc;" horiz-adv-x="1302" d="M174 524l129 910q6 41 47 41h176q41 0 35 -41l-121 -852q-12 -86 -4 -163t37 -134.5t78 -91t121 -33.5q86 0 155.5 32.5t123 90t87 134.5t45.5 165l121 852q6 41 47 41h115q41 0 35 -41l-129 -910q-16 -119 -70.5 -219t-138.5 -174t-191.5 -115t-228.5 -41 q-117 0 -211 42t-156.5 116t-90 174.5t-11.5 216.5zM582 1700l20 144q6 41 47 41h144q41 0 34 -41l-20 -144q-6 -41 -47 -41h-144q-41 0 -34 41zM971 1700l20 144q6 41 47 41h144q41 0 35 -41l-21 -144q-6 -41 -47 -41h-143q-41 0 -35 41z" />
<glyph unicode="&#xdd;" horiz-adv-x="1286" d="M229 1440q-14 35 27 35h219q41 0 55 -35l236 -664l444 662q23 37 66 37h168q39 0 16 -37l-624 -899l-70 -498q-6 -41 -45 -41h-176q-43 0 -37 41l70 498zM787 1690l151 201q29 35 70 35h186q41 0 6 -29l-258 -213q-35 -29 -75 -29h-64q-39 0 -16 35z" />
<glyph unicode="&#xde;" horiz-adv-x="1140" d="M106 41l197 1391q6 41 47 41h176q41 0 35 -41l-26 -185h172q117 0 207 -40t150 -109.5t86 -163.5t11 -201q-14 -104 -66.5 -196.5t-132 -162t-182 -109.5t-217.5 -40h-172l-26 -184q-6 -41 -46 -41h-176q-43 0 -37 41zM416 408h131q152 0 243 79.5t113 245.5 q23 166 -44.5 248t-217.5 84h-131z" />
<glyph unicode="&#xdf;" horiz-adv-x="1284" d="M152 934l12 90q6 41 47 41h119l2 20q31 217 169 334t351 117q106 0 187 -26.5t132.5 -79t73 -129t6.5 -175.5q-16 -111 -76.5 -186.5t-160.5 -120.5l-2 -4q147 -27 208.5 -134.5t39.5 -260.5q-12 -90 -58.5 -166t-117 -133.5t-160.5 -89t-191 -31.5h-125q-43 0 -37 41 l13 90q6 41 47 41h57q84 0 141.5 21.5t93 55.5t54 78t24.5 91q8 53 2 104t-32.5 92t-76.5 67t-130 26h-55q-41 0 -35 41l12 90q6 41 49 41q45 0 88 16t78 48t59.5 77t32.5 102q14 111 -23.5 176.5t-140.5 65.5q-104 0 -163.5 -77t-75.5 -206l-148 -1040q-6 -41 -45 -41h-176 q-43 0 -37 41l121 852h-119q-41 0 -34 41z" />
<glyph unicode="&#xe0;" d="M153.5 267.5q-20.5 107.5 2.5 269.5q23 158 73 264t118.5 170.5t150.5 92.5t170 28q104 0 179 -37t122 -117h4l33 86q6 23 15 32t32 9h143q41 0 35 -41l-105 -731q-10 -66 4.5 -93.5t34.5 -27.5h4q41 0 35 -41l-12 -90q-6 -41 -45 -41h-12q-127 0 -177.5 45t-52.5 123h-4 q-78 -102 -175 -148.5t-214 -46.5q-88 0 -163 28t-125 93.5t-70.5 173zM389 342q4 -76 27.5 -120t64.5 -60.5t97 -16.5q137 0 223 91.5t114 300.5q29 205 -30.5 294t-196.5 89q-55 0 -101 -16.5t-81 -59.5t-61.5 -117t-43.5 -190q-16 -119 -12 -195zM541 1487q-29 29 14 29 h186q39 0 58 -35l94 -201q16 -35 -25 -35h-63q-39 0 -68 29z" />
<glyph unicode="&#xe1;" d="M153.5 267.5q-20.5 107.5 2.5 269.5q23 158 73 264t118.5 170.5t150.5 92.5t170 28q104 0 179 -37t122 -117h4l33 86q6 23 15 32t32 9h143q41 0 35 -41l-105 -731q-10 -66 4.5 -93.5t34.5 -27.5h4q41 0 35 -41l-12 -90q-6 -41 -45 -41h-12q-127 0 -177.5 45t-52.5 123h-4 q-78 -102 -175 -148.5t-214 -46.5q-88 0 -163 28t-125 93.5t-70.5 173zM389 342q4 -76 27.5 -120t64.5 -60.5t97 -16.5q137 0 223 91.5t114 300.5q29 205 -30.5 294t-196.5 89q-55 0 -101 -16.5t-81 -59.5t-61.5 -117t-43.5 -190q-16 -119 -12 -195zM625 1280l151 201 q29 35 70 35h186q41 0 6 -29l-258 -213q-35 -29 -75 -29h-64q-39 0 -16 35z" />
<glyph unicode="&#xe2;" d="M153.5 267.5q-20.5 107.5 2.5 269.5q23 158 73 264t118.5 170.5t150.5 92.5t170 28q104 0 179 -37t122 -117h4l33 86q6 23 15 32t32 9h143q41 0 35 -41l-105 -731q-10 -66 4.5 -93.5t34.5 -27.5h4q41 0 35 -41l-12 -90q-6 -41 -45 -41h-12q-127 0 -177.5 45t-52.5 123h-4 q-78 -102 -175 -148.5t-214 -46.5q-88 0 -163 28t-125 93.5t-70.5 173zM389 342q4 -76 27.5 -120t64.5 -60.5t97 -16.5q137 0 223 91.5t114 300.5q29 205 -30.5 294t-196.5 89q-55 0 -101 -16.5t-81 -59.5t-61.5 -117t-43.5 -190q-16 -119 -12 -195zM490 1278l176 205 q31 33 72 33h139q41 0 59 -33l119 -205q20 -33 -20 -33h-70q-39 0 -66 29l-108 127l-146 -127q-31 -29 -73 -29h-70q-39 0 -12 33z" />
<glyph unicode="&#xe3;" d="M153.5 267.5q-20.5 107.5 2.5 269.5q23 158 73 264t118.5 170.5t150.5 92.5t170 28q104 0 179 -37t122 -117h4l33 86q6 23 15 32t32 9h143q41 0 35 -41l-105 -731q-10 -66 4.5 -93.5t34.5 -27.5h4q41 0 35 -41l-12 -90q-6 -41 -45 -41h-12q-127 0 -177.5 45t-52.5 123h-4 q-78 -102 -175 -148.5t-214 -46.5q-88 0 -163 28t-125 93.5t-70.5 173zM389 342q4 -76 27.5 -120t64.5 -60.5t97 -16.5q137 0 223 91.5t114 300.5q29 205 -30.5 294t-196.5 89q-55 0 -101 -16.5t-81 -59.5t-61.5 -117t-43.5 -190q-16 -119 -12 -195zM486 1280 q16 84 64 143.5t144 59.5q35 0 68 -12.5t64 -26.5q47 -23 59 -28t16 -5q16 0 25.5 10.5t18 23.5t19.5 23.5t34 10.5h61q12 0 20.5 -10.5t6.5 -22.5q-14 -84 -62.5 -143.5t-144.5 -59.5q-18 0 -35.5 5t-32.5 12q-49 20 -88 37.5t-51 17.5q-16 0 -26.5 -10.5t-20.5 -23.5 t-21.5 -23.5t-27.5 -10.5h-62q-14 0 -22 10.5t-6 22.5z" />
<glyph unicode="&#xe4;" d="M153.5 267.5q-20.5 107.5 2.5 269.5q23 158 73 264t118.5 170.5t150.5 92.5t170 28q104 0 179 -37t122 -117h4l33 86q6 23 15 32t32 9h143q41 0 35 -41l-105 -731q-10 -66 4.5 -93.5t34.5 -27.5h4q41 0 35 -41l-12 -90q-6 -41 -45 -41h-12q-127 0 -177.5 45t-52.5 123h-4 q-78 -102 -175 -148.5t-214 -46.5q-88 0 -163 28t-125 93.5t-70.5 173zM389 342q4 -76 27.5 -120t64.5 -60.5t97 -16.5q137 0 223 91.5t114 300.5q29 205 -30.5 294t-196.5 89q-55 0 -101 -16.5t-81 -59.5t-61.5 -117t-43.5 -190q-16 -119 -12 -195zM467 1290l20 144 q6 41 47 41h144q41 0 34 -41l-20 -144q-6 -41 -47 -41h-144q-41 0 -34 41zM856 1290l20 144q6 41 47 41h144q41 0 35 -41l-21 -144q-6 -41 -47 -41h-143q-41 0 -35 41z" />
<glyph unicode="&#xe5;" d="M153.5 267.5q-20.5 107.5 2.5 269.5q23 158 73 264t118.5 170.5t150.5 92.5t170 28q104 0 179 -37t122 -117h4l33 86q6 23 15 32t32 9h143q41 0 35 -41l-105 -731q-10 -66 4.5 -93.5t34.5 -27.5h4q41 0 35 -41l-12 -90q-6 -41 -45 -41h-12q-127 0 -177.5 45t-52.5 123h-4 q-78 -102 -175 -148.5t-214 -46.5q-88 0 -163 28t-125 93.5t-70.5 173zM389 342q4 -76 27.5 -120t64.5 -60.5t97 -16.5q137 0 223 91.5t114 300.5q29 205 -30.5 294t-196.5 89q-55 0 -101 -16.5t-81 -59.5t-61.5 -117t-43.5 -190q-16 -119 -12 -195zM594 1368q6 39 26.5 74 t50 61.5t65.5 41t75 14.5q82 0 129 -54.5t35 -136.5q-6 -39 -25.5 -73.5t-48.5 -60.5t-66.5 -41t-76.5 -15q-37 0 -70 15t-55.5 41t-33.5 60.5t-5 73.5zM680 1368q-4 -41 22.5 -72.5t67.5 -31.5t77 28.5t42 75.5q6 45 -17.5 75t-70.5 30t-81 -32t-40 -73z" />
<glyph unicode="&#xe6;" horiz-adv-x="1691" d="M129 346q14 98 57 162.5t106.5 102.5t143.5 53.5t168 15.5h211q0 33 -5 74t-24.5 77.5t-57.5 62.5t-101 26q-49 0 -108.5 -14.5t-131.5 -37.5q-31 -10 -40 -6t-13 10l-33 66q-16 29 10 53q18 16 54 34.5t85.5 33t107.5 24t120 9.5q117 0 190.5 -34t118.5 -93 q61 59 144 93t192 34q92 0 169 -27t128 -82t73.5 -138t6.5 -194q-8 -59 -24.5 -98t-46.5 -62.5t-74 -34t-107 -10.5h-420q-4 -66 4 -120t33 -93.5t69 -62.5t111 -23q59 0 120.5 15.5t127.5 36.5q33 10 41 6t12 -10l33 -66q16 -29 -8 -53q-16 -16 -53 -34.5t-87.5 -33 t-110.5 -24t-126 -9.5q-133 0 -216 39t-130 105q-66 -66 -160 -105t-225 -39q-78 0 -144.5 22.5t-112.5 69t-67.5 116t-9.5 163.5zM379 352q-4 -31 1 -66.5t23.5 -66.5t52 -51.5t89.5 -20.5q94 0 156.5 72t84.5 230l9 59h-215q-82 0 -136.5 -41t-64.5 -115zM1053 618h315 q47 0 65.5 11.5t24.5 58.5q6 45 -1 87t-25.5 74t-49 51.5t-71.5 19.5q-55 0 -98.5 -25t-74 -66t-52 -95t-33.5 -116z" />
<glyph unicode="&#xe7;" horiz-adv-x="980" d="M147.5 330.5q-6.5 97.5 8.5 204.5q16 113 53 214t103.5 176.5t168 121t248.5 45.5q51 0 98 -10.5t86 -26t68 -32.5t43 -32q10 -10 10 -21.5t-16 -31.5l-53 -66q-10 -10 -24.5 -9t-29.5 5q-29 10 -78 31t-116 21q-76 0 -131.5 -33t-92 -86t-59 -123t-33.5 -146 q-10 -78 -8 -147.5t24.5 -122.5t68.5 -84t120 -31q59 0 110.5 17.5t100.5 34.5q18 6 32.5 6t20.5 -10l33 -66q16 -29 -8 -53q-29 -29 -101.5 -58.5t-181.5 -40.5l-34 -88q68 -10 99.5 -52t20.5 -101q-10 -80 -82.5 -135.5t-181.5 -55.5q-37 0 -61.5 2t-20.5 7q-39 2 -30 45 l6 36q8 41 49 39v-2h43q68 0 102.5 21.5t38.5 56.5q4 31 -17.5 38t-70.5 11q-23 2 -25 19.5t7 38.5l45 120q-123 8 -197 56.5t-111.5 124t-44 173z" />
<glyph unicode="&#xe8;" horiz-adv-x="1056" d="M147.5 315.5q-8.5 98.5 6.5 206.5q16 119 55 222.5t104.5 180t157.5 122t217 45.5q92 0 169 -27t128 -82t73.5 -138t6.5 -194q-8 -59 -24.5 -98t-46 -62.5t-73.5 -34t-108 -10.5h-420q-4 -66 4.5 -120t33 -93.5t68.5 -62.5t111 -23q59 0 121 15.5t127 36.5q33 10 41 6 t12 -10l33 -66q16 -29 -8 -53q-16 -16 -53 -34.5t-87.5 -33t-110.5 -24t-126 -9.5q-141 0 -228 45.5t-131 121t-52.5 174zM418 618h315q47 0 65.5 11.5t24.5 58.5q6 45 -1 87t-25.5 74t-49 51.5t-71.5 19.5q-55 0 -98 -25t-74 -66t-52.5 -95t-33.5 -116zM475 1487 q-29 29 14 29h186q39 0 58 -35l94 -201q16 -35 -25 -35h-63q-39 0 -68 29z" />
<glyph unicode="&#xe9;" horiz-adv-x="1056" d="M147.5 315.5q-8.5 98.5 6.5 206.5q16 119 55 222.5t104.5 180t157.5 122t217 45.5q92 0 169 -27t128 -82t73.5 -138t6.5 -194q-8 -59 -24.5 -98t-46 -62.5t-73.5 -34t-108 -10.5h-420q-4 -66 4.5 -120t33 -93.5t68.5 -62.5t111 -23q59 0 121 15.5t127 36.5q33 10 41 6 t12 -10l33 -66q16 -29 -8 -53q-16 -16 -53 -34.5t-87.5 -33t-110.5 -24t-126 -9.5q-141 0 -228 45.5t-131 121t-52.5 174zM418 618h315q47 0 65.5 11.5t24.5 58.5q6 45 -1 87t-25.5 74t-49 51.5t-71.5 19.5q-55 0 -98 -25t-74 -66t-52.5 -95t-33.5 -116zM592 1280l151 201 q29 35 70 35h186q41 0 6 -29l-258 -213q-35 -29 -75 -29h-64q-39 0 -16 35z" />
<glyph unicode="&#xea;" horiz-adv-x="1056" d="M147.5 315.5q-8.5 98.5 6.5 206.5q16 119 55 222.5t104.5 180t157.5 122t217 45.5q92 0 169 -27t128 -82t73.5 -138t6.5 -194q-8 -59 -24.5 -98t-46 -62.5t-73.5 -34t-108 -10.5h-420q-4 -66 4.5 -120t33 -93.5t68.5 -62.5t111 -23q59 0 121 15.5t127 36.5q33 10 41 6 t12 -10l33 -66q16 -29 -8 -53q-16 -16 -53 -34.5t-87.5 -33t-110.5 -24t-126 -9.5q-141 0 -228 45.5t-131 121t-52.5 174zM418 618h315q47 0 65.5 11.5t24.5 58.5q6 45 -1 87t-25.5 74t-49 51.5t-71.5 19.5q-55 0 -98 -25t-74 -66t-52.5 -95t-33.5 -116zM424 1278l176 205 q31 33 72 33h139q41 0 59 -33l119 -205q20 -33 -20 -33h-70q-39 0 -66 29l-108 127l-146 -127q-31 -29 -73 -29h-70q-39 0 -12 33z" />
<glyph unicode="&#xeb;" horiz-adv-x="1056" d="M147.5 315.5q-8.5 98.5 6.5 206.5q16 119 55 222.5t104.5 180t157.5 122t217 45.5q92 0 169 -27t128 -82t73.5 -138t6.5 -194q-8 -59 -24.5 -98t-46 -62.5t-73.5 -34t-108 -10.5h-420q-4 -66 4.5 -120t33 -93.5t68.5 -62.5t111 -23q59 0 121 15.5t127 36.5q33 10 41 6 t12 -10l33 -66q16 -29 -8 -53q-16 -16 -53 -34.5t-87.5 -33t-110.5 -24t-126 -9.5q-141 0 -228 45.5t-131 121t-52.5 174zM402 1290l20 144q6 41 47 41h144q41 0 34 -41l-20 -144q-6 -41 -47 -41h-144q-41 0 -34 41zM418 618h315q47 0 65.5 11.5t24.5 58.5q6 45 -1 87 t-25.5 74t-49 51.5t-71.5 19.5q-55 0 -98 -25t-74 -66t-52.5 -95t-33.5 -116zM791 1290l20 144q6 41 47 41h144q41 0 35 -41l-21 -144q-6 -41 -47 -41h-143q-41 0 -35 41z" />
<glyph unicode="&#xec;" horiz-adv-x="450" d="M106 41l140 983q6 41 47 41h164q41 0 35 -41l-140 -983q-6 -41 -45 -41h-164q-43 0 -37 41zM164 1487q-29 29 14 29h186q39 0 58 -35l94 -201q16 -35 -25 -35h-63q-39 0 -68 29z" />
<glyph unicode="&#xed;" horiz-adv-x="450" d="M106 41l140 983q6 41 47 41h164q41 0 35 -41l-140 -983q-6 -41 -45 -41h-164q-43 0 -37 41zM293 1280l151 201q29 35 70 35h186q41 0 6 -29l-258 -213q-35 -29 -75 -29h-64q-39 0 -16 35z" />
<glyph unicode="&#xee;" horiz-adv-x="450" d="M106 41l140 983q6 41 47 41h164q41 0 35 -41l-140 -983q-6 -41 -45 -41h-164q-43 0 -37 41zM123 1278l176 205q31 33 72 33h139q41 0 59 -33l119 -205q20 -33 -20 -33h-70q-39 0 -66 29l-108 127l-146 -127q-31 -29 -73 -29h-70q-39 0 -12 33z" />
<glyph unicode="&#xef;" horiz-adv-x="450" d="M101 1290l20 144q6 41 47 41h144q41 0 34 -41l-20 -144q-6 -41 -47 -41h-144q-41 0 -34 41zM106 41l140 983q6 41 47 41h164q41 0 35 -41l-140 -983q-6 -41 -45 -41h-164q-43 0 -37 41zM490 1290l20 144q6 41 47 41h144q41 0 35 -41l-21 -144q-6 -41 -47 -41h-143 q-41 0 -35 41z" />
<glyph unicode="&#xf0;" horiz-adv-x="1167" d="M149.5 291q-14.5 94 0.5 201q14 106 52 200t102.5 165t158.5 112t223 41q55 0 103.5 -10.5t85 -38t62.5 -74.5t36 -121q18 147 19 250.5t-21 171.5l-111 -98q-31 -29 -57 0l-37 43q-23 29 8 57l123 108q-55 37 -141 37q-41 0 -35 41l14 103q6 41 47 41q156 0 262 -90 l95 83q35 29 57 0l37 -43q27 -29 -8 -57l-99 -88q55 -96 74 -238.5t-10 -336.5q-55 -389 -217 -582t-398 -193q-135 0 -224 41t-138 111t-63.5 164zM390 371.5q3 -60.5 26.5 -107.5t72 -75.5t129.5 -28.5q37 0 79 17.5t79 53t64.5 91t38.5 129.5q12 74 11 139t-20.5 115.5 t-61.5 80t-116 29.5q-78 0 -130 -24.5t-86 -67.5t-52 -101.5t-27 -123.5q-10 -66 -7 -126.5z" />
<glyph unicode="&#xf1;" horiz-adv-x="1097" d="M106 41l103 731q10 66 -4.5 93.5t-34.5 27.5h-4q-41 0 -35 41l12 90q6 41 47 41h13q63 0 106 -11.5t70 -33t38 -53t13 -70.5h4q66 98 134.5 145.5t174.5 47.5q82 0 152 -27t118 -78t69.5 -126t9.5 -171l-54 -375q-10 -76 3.5 -108.5t33.5 -32.5h4q41 0 35 -41l-12 -90 q-6 -41 -45 -41h-13q-297 0 -253 299l45 319q8 59 6 113.5t-17.5 95.5t-48.5 66t-86 25q-215 0 -258 -320l-80 -557q-6 -41 -45 -41h-164q-43 0 -37 41zM439 1280q16 84 64 143.5t144 59.5q35 0 68 -12.5t64 -26.5q47 -23 59 -28t16 -5q16 0 25.5 10.5t18 23.5t19.5 23.5 t34 10.5h61q12 0 20.5 -10.5t6.5 -22.5q-14 -84 -62.5 -143.5t-144.5 -59.5q-18 0 -35.5 5t-32.5 12q-49 20 -88 37.5t-51 17.5q-16 0 -26.5 -10.5t-20.5 -23.5t-21.5 -23.5t-27.5 -10.5h-62q-14 0 -22 10.5t-6 22.5z" />
<glyph unicode="&#xf2;" horiz-adv-x="1155" d="M147.5 314.5q-8.5 101.5 8.5 215.5q16 115 52 216.5t102.5 178t169 122t249.5 45.5t237.5 -45.5t135.5 -121t53 -178t-8 -215.5q-16 -115 -52 -216t-102.5 -177t-169 -120t-250.5 -44q-147 0 -237 44t-135 119t-53.5 176.5zM391 386.5q0 -67.5 20.5 -117.5t64.5 -79.5 t122 -29.5q76 0 129 29.5t88 79.5t55.5 118t30.5 145q10 76 10 144.5t-20.5 120t-65 81t-120.5 29.5q-78 0 -130.5 -29.5t-87 -81t-55 -120t-31.5 -144.5q-10 -78 -10 -145.5zM529 1487q-29 29 14 29h186q39 0 58 -35l94 -201q16 -35 -25 -35h-63q-39 0 -68 29z" />
<glyph unicode="&#xf3;" horiz-adv-x="1155" d="M147.5 314.5q-8.5 101.5 8.5 215.5q16 115 52 216.5t102.5 178t169 122t249.5 45.5t237.5 -45.5t135.5 -121t53 -178t-8 -215.5q-16 -115 -52 -216t-102.5 -177t-169 -120t-250.5 -44q-147 0 -237 44t-135 119t-53.5 176.5zM391 386.5q0 -67.5 20.5 -117.5t64.5 -79.5 t122 -29.5q76 0 129 29.5t88 79.5t55.5 118t30.5 145q10 76 10 144.5t-20.5 120t-65 81t-120.5 29.5q-78 0 -130.5 -29.5t-87 -81t-55 -120t-31.5 -144.5q-10 -78 -10 -145.5zM627 1280l151 201q29 35 70 35h186q41 0 6 -29l-258 -213q-35 -29 -75 -29h-64q-39 0 -16 35z " />
<glyph unicode="&#xf4;" horiz-adv-x="1155" d="M147.5 314.5q-8.5 101.5 8.5 215.5q16 115 52 216.5t102.5 178t169 122t249.5 45.5t237.5 -45.5t135.5 -121t53 -178t-8 -215.5q-16 -115 -52 -216t-102.5 -177t-169 -120t-250.5 -44q-147 0 -237 44t-135 119t-53.5 176.5zM391 386.5q0 -67.5 20.5 -117.5t64.5 -79.5 t122 -29.5q76 0 129 29.5t88 79.5t55.5 118t30.5 145q10 76 10 144.5t-20.5 120t-65 81t-120.5 29.5q-78 0 -130.5 -29.5t-87 -81t-55 -120t-31.5 -144.5q-10 -78 -10 -145.5zM473 1278l176 205q31 33 72 33h139q41 0 59 -33l119 -205q20 -33 -20 -33h-70q-39 0 -66 29 l-108 127l-146 -127q-31 -29 -73 -29h-70q-39 0 -12 33z" />
<glyph unicode="&#xf5;" horiz-adv-x="1155" d="M147.5 314.5q-8.5 101.5 8.5 215.5q16 115 52 216.5t102.5 178t169 122t249.5 45.5t237.5 -45.5t135.5 -121t53 -178t-8 -215.5q-16 -115 -52 -216t-102.5 -177t-169 -120t-250.5 -44q-147 0 -237 44t-135 119t-53.5 176.5zM391 386.5q0 -67.5 20.5 -117.5t64.5 -79.5 t122 -29.5q76 0 129 29.5t88 79.5t55.5 118t30.5 145q10 76 10 144.5t-20.5 120t-65 81t-120.5 29.5q-78 0 -130.5 -29.5t-87 -81t-55 -120t-31.5 -144.5q-10 -78 -10 -145.5zM467 1280q16 84 64 143.5t144 59.5q35 0 68 -12.5t64 -26.5q47 -23 59 -28t16 -5q16 0 25.5 10.5 t18 23.5t19.5 23.5t34 10.5h61q12 0 20.5 -10.5t6.5 -22.5q-14 -84 -62.5 -143.5t-144.5 -59.5q-18 0 -35.5 5t-32.5 12q-49 20 -88 37.5t-51 17.5q-16 0 -26.5 -10.5t-20.5 -23.5t-21.5 -23.5t-27.5 -10.5h-62q-14 0 -22 10.5t-6 22.5z" />
<glyph unicode="&#xf6;" horiz-adv-x="1155" d="M147.5 314.5q-8.5 101.5 8.5 215.5q16 115 52 216.5t102.5 178t169 122t249.5 45.5t237.5 -45.5t135.5 -121t53 -178t-8 -215.5q-16 -115 -52 -216t-102.5 -177t-169 -120t-250.5 -44q-147 0 -237 44t-135 119t-53.5 176.5zM391 386.5q0 -67.5 20.5 -117.5t64.5 -79.5 t122 -29.5q76 0 129 29.5t88 79.5t55.5 118t30.5 145q10 76 10 144.5t-20.5 120t-65 81t-120.5 29.5q-78 0 -130.5 -29.5t-87 -81t-55 -120t-31.5 -144.5q-10 -78 -10 -145.5zM451 1290l20 144q6 41 47 41h144q41 0 34 -41l-20 -144q-6 -41 -47 -41h-144q-41 0 -34 41z M840 1290l20 144q6 41 47 41h144q41 0 35 -41l-21 -144q-6 -41 -47 -41h-143q-41 0 -35 41z" />
<glyph unicode="&#xf8;" horiz-adv-x="1155" d="M82 33q-31 27 4 59l90 92q-29 72 -32 160t12 186q16 115 52 216.5t102.5 178t169 122t249.5 45.5q90 0 158.5 -17.5t116.5 -48.5l69 70q31 33 60 6l69 -66q27 -29 -4 -59l-82 -82q35 -74 40 -166t-9 -197q-16 -115 -52 -216t-102.5 -177t-169 -120t-250.5 -44 q-98 0 -168.5 19.5t-119.5 54.5l-74 -76q-33 -33 -61 -6zM391 401l453 461q-49 45 -139 45q-78 0 -130.5 -29.5t-87 -81t-55 -120t-31.5 -144.5q-4 -35 -7 -67.5t-3 -63.5zM446 215q25 -27 62 -41t90 -14q76 0 129 29.5t88 79.5t55.5 118t30.5 145q6 41 8 80t2 74z" />
<glyph unicode="&#xf9;" horiz-adv-x="1097" d="M154 377l92 647q6 41 45 41h168q39 0 33 -41l-82 -578q-8 -59 -7.5 -113t17 -95t51.5 -66t92 -25q205 0 252 320l78 557q6 41 47 41h164q41 0 35 -41l-103 -731q-10 -66 4.5 -93.5t34.5 -27.5h4q41 0 35 -41l-12 -90q-6 -41 -45 -41h-13q-127 0 -177 45t-52 123h-4 q-66 -98 -134.5 -145.5t-174.5 -47.5q-80 0 -149.5 27t-118 78t-71 126t-9.5 171zM486 1487q-29 29 14 29h186q39 0 58 -35l94 -201q16 -35 -25 -35h-63q-39 0 -68 29z" />
<glyph unicode="&#xfa;" horiz-adv-x="1097" d="M154 377l92 647q6 41 45 41h168q39 0 33 -41l-82 -578q-8 -59 -7.5 -113t17 -95t51.5 -66t92 -25q205 0 252 320l78 557q6 41 47 41h164q41 0 35 -41l-103 -731q-10 -66 4.5 -93.5t34.5 -27.5h4q41 0 35 -41l-12 -90q-6 -41 -45 -41h-13q-127 0 -177 45t-52 123h-4 q-66 -98 -134.5 -145.5t-174.5 -47.5q-80 0 -149.5 27t-118 78t-71 126t-9.5 171zM617 1280l151 201q29 35 70 35h186q41 0 6 -29l-258 -213q-35 -29 -75 -29h-64q-39 0 -16 35z" />
<glyph unicode="&#xfb;" horiz-adv-x="1097" d="M154 377l92 647q6 41 45 41h168q39 0 33 -41l-82 -578q-8 -59 -7.5 -113t17 -95t51.5 -66t92 -25q205 0 252 320l78 557q6 41 47 41h164q41 0 35 -41l-103 -731q-10 -66 4.5 -93.5t34.5 -27.5h4q41 0 35 -41l-12 -90q-6 -41 -45 -41h-13q-127 0 -177 45t-52 123h-4 q-66 -98 -134.5 -145.5t-174.5 -47.5q-80 0 -149.5 27t-118 78t-71 126t-9.5 171zM445 1278l176 205q31 33 72 33h139q41 0 59 -33l119 -205q20 -33 -20 -33h-70q-39 0 -66 29l-108 127l-146 -127q-31 -29 -73 -29h-70q-39 0 -12 33z" />
<glyph unicode="&#xfc;" horiz-adv-x="1097" d="M154 377l92 647q6 41 45 41h168q39 0 33 -41l-82 -578q-8 -59 -7.5 -113t17 -95t51.5 -66t92 -25q205 0 252 320l78 557q6 41 47 41h164q41 0 35 -41l-103 -731q-10 -66 4.5 -93.5t34.5 -27.5h4q41 0 35 -41l-12 -90q-6 -41 -45 -41h-13q-127 0 -177 45t-52 123h-4 q-66 -98 -134.5 -145.5t-174.5 -47.5q-80 0 -149.5 27t-118 78t-71 126t-9.5 171zM422 1290l20 144q6 41 47 41h144q41 0 34 -41l-20 -144q-6 -41 -47 -41h-144q-41 0 -34 41zM811 1290l20 144q6 41 47 41h144q41 0 35 -41l-21 -144q-6 -41 -47 -41h-143q-41 0 -35 41z" />
<glyph unicode="&#xfd;" horiz-adv-x="1118" d="M107 -348.5q2 10.5 14 33.5l45 86q6 12 21.5 10t31.5 -6q14 -6 46 -14.5t71 -15.5t81 -13t79 -6q106 0 182 86t96 227l12 86h-4q-41 -59 -106.5 -104.5t-177.5 -45.5q-86 0 -158 28t-121 93.5t-67.5 173t4.5 267.5l69 487q6 41 47 41h164q41 0 35 -41l-70 -487 q-16 -121 -12 -197t25.5 -119t57.5 -58.5t85 -15.5q111 0 184.5 90.5t102.5 299.5l69 487q6 41 48 41h163q41 0 35 -41l-135 -963q-16 -121 -65.5 -219t-123 -167.5t-167 -106.5t-199.5 -37q-55 0 -111.5 10t-105.5 25.5t-86 33t-51 31.5q-10 10 -8 20.5zM518 1280l151 201 q29 35 70 35h186q41 0 6 -29l-258 -213q-35 -29 -75 -29h-64q-39 0 -16 35z" />
<glyph unicode="&#xfe;" d="M43 -410l266 1885q6 41 47 41h164q41 0 35 -41l-76 -533h4q41 57 111 103.5t184 46.5q96 0 179 -28t140.5 -92.5t82 -171t2.5 -263.5q-23 -160 -77 -267.5t-129 -173t-166 -93.5t-187 -28q-57 0 -99.5 12.5t-72 33t-50 48t-32.5 56.5h-4l-76 -535q-6 -41 -45 -41h-164 q-43 0 -37 41zM422 537q-29 -209 23.5 -299.5t166.5 -90.5q61 0 113.5 15.5t93.5 58.5t71 119t46 197q16 119 8 193.5t-36.5 116.5t-77 57.5t-109.5 15.5q-115 0 -192.5 -88.5t-106.5 -294.5z" />
<glyph unicode="&#xff;" horiz-adv-x="1118" d="M107 -348.5q2 10.5 14 33.5l45 86q6 12 21.5 10t31.5 -6q14 -6 46 -14.5t71 -15.5t81 -13t79 -6q106 0 182 86t96 227l12 86h-4q-41 -59 -106.5 -104.5t-177.5 -45.5q-86 0 -158 28t-121 93.5t-67.5 173t4.5 267.5l69 487q6 41 47 41h164q41 0 35 -41l-70 -487 q-16 -121 -12 -197t25.5 -119t57.5 -58.5t85 -15.5q111 0 184.5 90.5t102.5 299.5l69 487q6 41 48 41h163q41 0 35 -41l-135 -963q-16 -121 -65.5 -219t-123 -167.5t-167 -106.5t-199.5 -37q-55 0 -111.5 10t-105.5 25.5t-86 33t-51 31.5q-10 10 -8 20.5zM410 1290l20 144 q6 41 47 41h144q41 0 34 -41l-20 -144q-6 -41 -47 -41h-144q-41 0 -34 41zM799 1290l20 144q6 41 47 41h144q41 0 35 -41l-21 -144q-6 -41 -47 -41h-143q-41 0 -35 41z" />
<glyph unicode="&#x152;" horiz-adv-x="1878" d="M184 737q27 193 102.5 335t186.5 237.5t249 142.5t292 47q119 0 213 -26q4 2 12 2h723q41 0 35 -41l-15 -103q-6 -41 -47 -41h-505l-64 -452h403q41 0 35 -41l-14 -103q-6 -41 -47 -41h-404l-65 -469h506q41 0 35 -41l-15 -102q-6 -41 -45 -41h-737q-53 -10 -107.5 -17.5 t-109.5 -7.5q-154 0 -279 47.5t-209 142.5t-119.5 237.5t-9.5 334.5zM453.5 473q21.5 -108 74 -176t130 -97.5t169.5 -29.5q49 0 97.5 8t95.5 27l149 1065q-41 18 -87 26.5t-95 8.5q-92 0 -179 -30t-157.5 -97.5t-122 -176t-73.5 -264.5q-23 -156 -1.5 -264z" />
<glyph unicode="&#x153;" horiz-adv-x="1802" d="M147.5 314.5q-8.5 101.5 8.5 215.5q16 115 52 216.5t102.5 178t169 122t249.5 45.5q143 0 225 -49.5t123 -135.5q59 86 147.5 135.5t209.5 49.5q92 0 168.5 -27t128 -82t74 -138t5.5 -194q-8 -59 -24.5 -98t-46 -62.5t-73.5 -34t-107 -10.5h-420q-4 -66 4 -120 t32.5 -93.5t68.5 -62.5t112 -23q59 0 120.5 15.5t127.5 36.5q33 10 41 6t12 -10l33 -66q16 -29 -9 -53q-16 -16 -53 -34.5t-87 -33t-110.5 -24t-125.5 -9.5q-135 0 -215 48.5t-119 130.5q-63 -84 -159.5 -131.5t-238.5 -47.5q-147 0 -237 44t-135 119t-53.5 176.5z M391 386.5q0 -67.5 20.5 -117.5t64.5 -79.5t122 -29.5q76 0 129 29.5t88 79.5t55.5 118t30.5 145q10 76 10 144.5t-20.5 120t-65 81t-120.5 29.5q-78 0 -130.5 -29.5t-87 -81t-55 -120t-31.5 -144.5q-10 -78 -10 -145.5zM1163 618h316q47 0 65.5 11.5t24.5 58.5q6 45 -1 87 t-25.5 74t-49.5 51.5t-72 19.5q-55 0 -98 -25t-73.5 -66t-52 -95t-34.5 -116z" />
<glyph unicode="&#x178;" horiz-adv-x="1286" d="M229 1440q-14 35 27 35h219q41 0 55 -35l236 -664l444 662q23 37 66 37h168q39 0 16 -37l-624 -899l-70 -498q-6 -41 -45 -41h-176q-43 0 -37 41l70 498zM574 1700l20 144q6 41 47 41h144q41 0 34 -41l-20 -144q-6 -41 -47 -41h-144q-41 0 -34 41zM963 1700l20 144 q6 41 47 41h144q41 0 35 -41l-21 -144q-6 -41 -47 -41h-143q-41 0 -35 41z" />
<glyph unicode="&#x2c6;" horiz-adv-x="770" d="M291 1278l176 205q31 33 72 33h139q41 0 59 -33l119 -205q20 -33 -20 -33h-70q-39 0 -66 29l-108 127l-146 -127q-31 -29 -73 -29h-70q-39 0 -12 33z" />
<glyph unicode="&#x2dc;" horiz-adv-x="780" d="M281 1280q16 84 64 143.5t144 59.5q35 0 68 -12.5t64 -26.5q47 -23 59 -28t16 -5q16 0 25.5 10.5t18 23.5t19.5 23.5t34 10.5h61q12 0 20.5 -10.5t6.5 -22.5q-14 -84 -62.5 -143.5t-144.5 -59.5q-18 0 -35.5 5t-32.5 12q-49 20 -88 37.5t-51 17.5q-16 0 -26.5 -10.5 t-20.5 -23.5t-21.5 -23.5t-27.5 -10.5h-62q-14 0 -22 10.5t-6 22.5z" />
<glyph unicode="&#x2000;" horiz-adv-x="984" />
<glyph unicode="&#x2001;" horiz-adv-x="1969" />
<glyph unicode="&#x2002;" horiz-adv-x="984" />
<glyph unicode="&#x2003;" horiz-adv-x="1969" />
<glyph unicode="&#x2004;" horiz-adv-x="656" />
<glyph unicode="&#x2005;" horiz-adv-x="492" />
<glyph unicode="&#x2006;" horiz-adv-x="328" />
<glyph unicode="&#x2007;" horiz-adv-x="328" />
<glyph unicode="&#x2008;" horiz-adv-x="246" />
<glyph unicode="&#x2009;" horiz-adv-x="393" />
<glyph unicode="&#x200a;" horiz-adv-x="109" />
<glyph unicode="&#x2010;" horiz-adv-x="757" d="M199 694l14 103q6 41 47 41h471q41 0 35 -41l-14 -103q-6 -41 -47 -41h-472q-41 0 -34 41z" />
<glyph unicode="&#x2011;" horiz-adv-x="757" d="M199 694l14 103q6 41 47 41h471q41 0 35 -41l-14 -103q-6 -41 -47 -41h-472q-41 0 -34 41z" />
<glyph unicode="&#x2012;" horiz-adv-x="757" d="M199 694l14 103q6 41 47 41h471q41 0 35 -41l-14 -103q-6 -41 -47 -41h-472q-41 0 -34 41z" />
<glyph unicode="&#x2013;" horiz-adv-x="1212" d="M199 694l25 103q11 41 85 41h848q73 0 63 -41l-26 -103q-10 -41 -84 -41h-850q-74 0 -61 41z" />
<glyph unicode="&#x2014;" horiz-adv-x="2236" d="M201 694l50 103q22 41 169 41h1696q148 0 126 -41l-50 -103q-22 -41 -169 -41h-1700q-148 0 -122 41z" />
<glyph unicode="&#x202f;" horiz-adv-x="393" />
<glyph unicode="&#x205f;" horiz-adv-x="492" />
<glyph unicode="&#x20ac;" horiz-adv-x="1327" d="M113 522l14 90q2 41 45 41h143q2 20 4.5 41t6.5 43q4 27 8 51.5t8 49.5h-143q-41 0 -35 41l12 90q6 41 47 41h170q45 123 112.5 215t150.5 152.5t178.5 91t197.5 30.5q68 0 131.5 -10t116.5 -25.5t92 -33t55 -31.5q10 -10 9.5 -20.5t-13.5 -32.5l-45 -86 q-10 -10 -24.5 -9.5t-28.5 4.5q-47 12 -132 31t-187 19t-193.5 -69t-150.5 -226h352q41 0 35 -41l-13 -90q-6 -41 -47 -41h-377q-4 -25 -8 -49.5t-8 -51.5q-4 -23 -6 -43t-4 -41h377q39 0 36 -41l-14 -90q-6 -41 -45 -41h-356q6 -84 28.5 -143t56 -96t79 -54.5t98.5 -17.5 q102 0 192 18.5t142 30.5q14 4 29.5 5t21.5 -9l22 -76q6 -29 4 -41t-14 -22q-23 -14 -65.5 -31.5t-100 -33t-124 -26t-134.5 -10.5q-102 0 -190 31t-153.5 94.5t-107.5 158.5t-51 222h-167q-43 0 -37 41z" />
<glyph unicode="&#x25fc;" horiz-adv-x="1064" d="M0 0v1065h1065v-1065h-1065z" />
</font>
</defs>
</svg>
